<svg width="177" height="225" viewBox="0 0 177 225" fill="none" xmlns="http://www.w3.org/2000/svg">
<path fill-rule="evenodd" clip-rule="evenodd" d="M20.6172 157.325C19.6808 179.893 25.2995 192.582 54.0485 211.78C56.2491 228.331 22.9818 224.609 16.45 217.141C6.07885 205.295 2.8949 196.96 1.72434 186.706C-2.39604 150.559 -0.3827 118.298 21.7409 94.4657C19.7785 84.9349 19.6118 75.1215 21.2493 65.5295C19.4366 64.7973 17.7285 63.8291 16.1691 62.6499C14.7942 61.6044 13.5931 60.3481 12.6106 58.9275C6.52363 50.1249 14.0855 38.0915 23.6607 36.0782C24.1869 30.9077 25.4974 25.8475 27.5469 21.0715C32.2292 11.3325 42.4365 5.31578 52.4799 2.34255C66.6905 -1.89489 89.6336 -0.560479 102.697 7.79734C108.698 11.7746 112.991 17.8552 114.73 24.8407C115.825 28.9616 116.307 33.2215 116.159 37.4828C116.245 40.0205 116.183 42.5611 115.971 45.0914C115.854 46.3322 115.737 47.5965 115.643 48.8841C119.951 56.8674 121.028 67.1917 120.326 76.1816C137.791 82.924 150.994 96.6196 151.463 112.282C167.663 132.532 176.138 146.977 176.162 165.168C176.162 179.215 171.83 197.944 161.272 221.074C141.302 225.756 121.59 225.428 103.61 224.258C105.951 215.151 103.61 211.92 99.2556 206.816C94.0115 200.706 95.0416 194.853 98.7406 187.502C101.807 181.415 107.262 176.616 113.443 172.027C122.716 165.657 131.383 158.447 139.336 150.489C145.071 144.402 146.219 137.636 147.342 128.365C140.319 147.399 131.212 154.703 113.724 166.034C102.486 174.111 95.7673 180.081 91.366 191.482C89.7975 197.967 90.4061 203.398 94.3392 206.84C99.8409 211.709 104.102 221.8 95.2523 223.626C69.8745 228.893 54.2592 218.943 52.9716 191.599C52.5615 180.141 53.6236 168.677 56.1321 157.489C45.3863 164.091 47.6104 188.954 48.9682 202.532C27.8981 186.987 25.8379 175.118 20.6172 157.442" fill="#231F20"/>
<path fill-rule="evenodd" clip-rule="evenodd" d="M25.4649 37.0144C25.9463 31.4434 27.2807 25.9795 29.4214 20.8138C37.1939 4.68342 61.5182 -1.8249 77.4613 1.21856C58.1704 5.47941 44.2173 11.1917 37.8494 27.4625C36.9364 29.8037 33.9866 41.2752 34.5251 45.9809C39.6989 28.8672 43.2106 21.282 52.5985 14.0947C58.3233 9.96271 64.8708 7.11212 71.7957 5.73691C76.7775 4.35279 81.9382 3.72154 87.1067 3.86404C92.3148 4.02902 97.3932 5.52835 101.856 8.2185C112.484 15.2419 117.495 30.2953 112.367 50.3587C108.388 61.1982 92.2103 60.4724 79.4746 61.7132C70.4379 64.8737 50.0467 69.158 31.0602 65.1312C22.7258 63.3754 14.8362 60.6831 12.4951 52.0444C10.8563 46.0511 19.7526 36.8271 25.4649 37.0144ZM54.2139 35.7969L54.7758 32.496L60.3242 30.787L62.8058 33.1281L65.9196 32.1448L57.632 23.8806C57.3788 23.5881 57.057 23.3629 56.6955 23.2251C56.1419 22.9745 55.516 22.9338 54.9346 23.1104C54.3531 23.287 53.8557 23.6689 53.535 24.185C53.243 24.5401 53.0564 24.97 52.9965 25.4258L51.03 36.71L54.2139 35.7969ZM55.3143 29.1014L57.9597 28.3288L55.9229 26.4559L55.3143 29.1014ZM68.8693 26.7602L69.2908 28.0947L79.8258 24.8171C79.8604 24.3386 79.7188 23.8641 79.4278 23.4827L68.8693 26.7602ZM67.6285 22.7101L80.2238 18.8238L79.2874 15.8272L67.2306 19.5964C66.4823 20.0001 65.8647 20.6087 65.45 21.3509C65.0354 22.0931 64.8409 22.9382 64.8895 23.787L67.4413 31.7936L79.6853 27.9776C80.2951 27.8387 80.8495 27.5208 81.2773 27.0646C81.8042 26.6001 82.1763 25.9855 82.3437 25.3033C82.511 24.6212 82.4657 23.9042 82.2138 23.2486C82.0431 22.7905 81.7822 22.3714 81.4465 22.0161C81.1109 21.6608 80.7073 21.3765 80.2597 21.18C79.8122 20.9835 79.3297 20.8789 78.841 20.8723C78.3522 20.8657 77.8671 20.9572 77.4144 21.1416L68.0499 24.0445L67.6285 22.7101ZM84.0164 14.3757L81.3241 15.1716L82.5415 19.1516C82.7627 19.7681 83.1649 20.3035 83.6954 20.6878C84.2259 21.0721 84.86 21.2873 85.5148 21.3054C85.9536 21.3191 86.3908 21.2475 86.8023 21.0947L96.7287 18.0278L97.1501 19.4091L84.6017 23.2953L85.5148 26.1984L98.0866 22.2887C98.8373 21.8346 99.4181 21.1464 99.7395 20.3301C100.061 19.5137 100.105 18.6144 99.8659 17.7703C99.0231 15.1483 98.3207 12.8305 97.5247 10.2085L94.5281 11.1449L95.8625 15.4292L85.3509 18.6131L84.0164 14.3757Z" fill="#F48120"/>
<path fill-rule="evenodd" clip-rule="evenodd" d="M42.9522 76.4389C40.611 72.5058 35.6713 71.0777 31.2465 76.4389C26.0961 82.5492 27.0793 96.877 31.8552 102.8C32.4458 103.649 33.2028 104.369 34.0801 104.916C34.9575 105.463 35.9368 105.827 36.9588 105.984C41.9454 106.405 44.825 103.409 44.5207 99.1946C44.2494 97.5422 43.4237 96.0312 42.1796 94.9103C41.2197 93.3665 40.6049 91.6336 40.3769 89.8301C40.4166 87.5826 41.1438 85.4012 42.4605 83.5793C44.31 80.6061 44.8016 78.8971 43.0926 76.5559" fill="white"/>
<path d="M42.9522 76.4389C40.611 72.5058 35.6713 71.0777 31.2465 76.4389C26.0961 82.5492 27.0793 96.877 31.8552 102.8C32.4458 103.649 33.2028 104.369 34.0801 104.916C34.9575 105.463 35.9368 105.827 36.9588 105.984C41.9454 106.405 44.825 103.409 44.5207 99.1946C44.2494 97.5422 43.4237 96.0312 42.1796 94.9103C41.2197 93.3665 40.6049 91.6336 40.3769 89.8301C40.4166 87.5826 41.1438 85.4012 42.4605 83.5793C44.1695 80.5359 44.5675 78.9907 42.9522 76.4389Z" stroke="#231F20" stroke-width="0.65" stroke-miterlimit="22.93"/>
<path fill-rule="evenodd" clip-rule="evenodd" d="M29.2825 75.1047C30.9236 72.8449 33.2716 71.1972 35.9547 70.4224C37.2189 70.0479 37.0551 68.7836 35.229 68.6432C32.2949 68.836 29.3606 68.2717 26.7073 67.0044C19.4967 74.2151 29.2825 75.8304 29.2825 75.011" fill="white"/>
<path d="M29.2825 75.1047C30.9236 72.8449 33.2716 71.1972 35.9547 70.4224C37.2189 70.0479 37.0551 68.7836 35.229 68.6432C32.2949 68.836 29.3606 68.2717 26.7073 67.0044C19.4967 74.3087 29.2825 75.9241 29.2825 75.1047Z" stroke="#231F20" stroke-width="0.65" stroke-miterlimit="22.93"/>
<path fill-rule="evenodd" clip-rule="evenodd" d="M66.3184 76.2048C63.0642 72.3419 56.9539 70.7031 51.265 76.2048C44.663 82.479 45.9038 97.275 52.0375 103.315C53.7538 105.148 56.0721 106.303 58.5693 106.569C64.9606 106.991 70.2749 103.432 68.2616 99.5458C65.9204 94.8636 61.2382 88.0743 67.9572 80.6061C68.8234 79.6463 67.7465 77.8904 66.3184 76.2048Z" fill="white"/>
<path d="M66.3184 76.2048C63.0642 72.3419 56.9539 70.7031 51.265 76.2048C44.663 82.479 45.9038 97.2749 52.0375 103.315C53.7538 105.148 56.0721 106.303 58.5693 106.569C64.9606 106.991 70.2749 103.432 68.2616 99.5458C65.9204 94.8636 61.2382 88.0743 67.9572 80.6061C68.8234 79.6463 67.7465 77.8904 66.3184 76.2048Z" stroke="#231F20" stroke-width="0.65" stroke-miterlimit="22.93"/>
<path fill-rule="evenodd" clip-rule="evenodd" d="M64.28 69.1814C69.2588 73.2517 72.5781 79.0015 73.6129 85.3485C74.6477 91.6955 73.3268 98.2019 69.8987 103.643C67.3 107.787 64.6078 110.666 59.4105 110.666C57.0484 110.602 54.6974 110.32 52.3871 109.823C49.6714 106.827 47.0727 106.171 45.0359 110.362C32.5812 113.476 29.0929 104.626 24.317 103.783C23.7551 103.783 23.2635 104.251 22.3739 105.375C15.8187 113.71 15.3505 127.827 21.6949 137.542C30.0762 150.231 48.2901 150.325 60.8385 144.425C74.3468 138.057 80.1294 120.663 82.8685 107.154C85.8418 92.3352 86.1929 74.847 78.397 64.429C74.1304 67.1442 69.2544 68.7534 64.2098 69.1112L64.28 69.1814ZM53.6747 114.061C54.4005 117.245 52.1062 119.024 49.367 119.726C45.3637 120.756 43.046 117.924 45.7383 116.168C49.9055 113.476 49.6714 110.034 53.6747 114.061ZM31.2936 114.693C34.8755 111.088 34.6648 114.154 38.3169 116.566C40.6581 118.134 38.6681 120.686 35.0862 119.75C32.628 119.118 30.5678 117.549 31.2233 114.693" fill="white"/>
<path d="M64.28 69.1814C69.2588 73.2517 72.5781 79.0015 73.6129 85.3485C74.6477 91.6955 73.3268 98.2019 69.8987 103.643C67.3 107.787 64.6078 110.666 59.4105 110.666C57.0484 110.602 54.6974 110.32 52.3871 109.823C49.6714 106.827 47.0727 106.171 45.0359 110.362C32.5812 113.476 29.0929 104.626 24.317 103.783C23.7551 103.783 23.2635 104.251 22.3739 105.375C15.8187 113.71 15.3505 127.827 21.6949 137.542C30.0762 150.231 48.2901 150.325 60.8385 144.425C74.3468 138.057 80.1294 120.663 82.8685 107.154C85.8418 92.3352 86.1929 74.847 78.397 64.429C74.1576 67.158 69.3067 68.791 64.28 69.1814V69.1814ZM53.7449 114.131C54.4707 117.315 52.1764 119.094 49.4373 119.797C45.434 120.827 43.1162 117.994 45.8085 116.238C49.882 113.546 49.6479 110.104 53.6513 114.108L53.7449 114.131ZM31.3638 114.763C34.9457 111.158 34.735 114.225 38.3872 116.636C40.7283 118.205 38.7383 120.756 35.1564 119.82C32.6748 119.188 30.6146 117.619 31.2701 114.763H31.3638Z" stroke="#231F20" stroke-width="0.65" stroke-miterlimit="22.93"/>
</svg>
