<svg width="180" height="60" viewBox="0 0 180 60" fill="none" xmlns="http://www.w3.org/2000/svg">
<g clip-path="url(#clip0)">
<path fill-rule="evenodd" clip-rule="evenodd" d="M92.4117 15.5822L92.4558 27.3686L119.091 27.2688L119.053 15.5509L126.647 15.5197C126.717 22.7177 126.723 29.048 126.786 36.246C126.276 41.5836 123.537 45.0921 119.419 46.2345L87.5128 46.3531V38.406L119.356 38.2874V34.5417L94.2125 34.6353C93.1397 34.7053 92.0645 34.539 91.0642 34.1484C87.8444 32.8249 86.0582 30.282 85.7056 26.5196L85.6678 15.5946L92.4117 15.5822ZM48.5168 34.935L74.8247 34.8413C75.2592 34.8413 75.2844 34.7851 75.4544 35.2346C75.7535 36.1412 75.7535 37.1186 75.4544 38.0252C75.3096 38.4934 75.3285 38.4809 74.8877 38.4809L48.5293 38.5746L48.5168 34.935ZM48.479 23.8789L80.4415 23.7603L80.41 15.6446L51.2559 15.7507C50.3539 15.7042 49.451 15.8228 48.5923 16.1003C46.9725 16.7176 45.5184 17.6973 44.3432 18.9631C43.168 20.229 42.3035 21.7468 41.817 23.3982C41.5694 24.1637 41.4648 24.9677 41.5084 25.7705L41.7036 46.4405L72.8161 46.3282C73.5384 46.3458 74.2605 46.2851 74.9696 46.1471C76.1874 45.8509 77.3297 45.3066 78.3237 44.5489C79.3178 43.7911 80.142 42.8366 80.7437 41.7459C81.507 40.3756 81.9328 38.8459 81.9865 37.2815C82.0401 35.7171 81.72 34.1622 81.0523 32.7437C79.7929 29.9594 77.3938 27.8868 74.3588 27.5247C73.6976 27.4613 73.033 27.4384 72.369 27.456L48.4916 27.5497L48.479 23.8789ZM8.02839 46.428L11.6994 38.6495L25.7853 38.5995L29.8216 46.4593L37.7367 46.428C33.2995 37.4467 28.8561 28.4445 24.4063 19.4215C23.2666 17.0992 21.0879 15.3324 18.5503 15.4198C16.0127 15.5072 13.7207 17.3489 12.5684 19.7087L0.0440674 46.4405L8.02839 46.428ZM15.3705 30.54L18.6385 24.4283L22.0513 30.6274L15.3705 30.54Z" fill="#231F20"/>
<path fill-rule="evenodd" clip-rule="evenodd" d="M138.164 41.9832C137.912 48.0013 139.424 51.3849 147.156 56.504C147.748 60.9177 138.8 59.9251 137.043 57.9336C134.254 54.7748 133.398 52.5523 133.083 49.8179C131.974 40.179 132.516 31.5763 138.466 25.2211C137.939 22.6796 137.894 20.0628 138.334 17.505C137.847 17.3097 137.387 17.0515 136.968 16.7371C136.598 16.4583 136.275 16.1233 136.011 15.7445C134.374 13.3972 136.407 10.1883 138.983 9.65146C139.124 8.27271 139.477 6.92336 140.028 5.64979C141.287 3.05277 144.033 1.44836 146.734 0.655517C150.556 -0.474438 156.727 -0.118604 160.241 2.11009C161.855 3.17066 163.009 4.79211 163.477 6.65488C163.772 7.75376 163.901 8.88969 163.861 10.026C163.885 10.7027 163.868 11.3802 163.811 12.0549C163.78 12.3858 163.748 12.7229 163.723 13.0663C164.881 15.1951 165.171 17.9482 164.982 20.3454C169.68 22.1434 173.231 25.7955 173.357 29.9719C177.714 35.372 179.994 39.2238 180 44.0745C180 47.8202 178.835 52.8145 175.995 58.9824C170.624 60.231 165.322 60.1436 160.486 59.8314C161.116 57.403 160.486 56.5415 159.315 55.1805C157.905 53.5512 158.182 51.9904 159.177 50.0302C160.001 48.407 161.469 47.1273 163.131 45.9037C165.625 44.2049 167.956 42.2824 170.095 40.1602C171.638 38.5371 171.946 36.7329 172.249 34.2607C170.36 39.3362 167.91 41.284 163.207 44.3055C160.184 46.4593 158.377 48.0512 157.193 51.0915C156.771 52.8207 156.935 54.2691 157.993 55.1868C159.473 56.4853 160.619 59.176 158.238 59.6629C151.413 61.0675 147.213 58.4143 146.866 51.1227C146.756 48.0672 147.042 45.0103 147.716 42.0269C144.826 43.7873 145.424 50.4172 145.79 54.0381C140.122 49.8928 139.568 46.7277 138.164 42.0144" fill="#231F20"/>
<path fill-rule="evenodd" clip-rule="evenodd" d="M139.468 9.90114C139.597 8.41559 139.956 6.95857 140.532 5.58108C142.622 1.27976 149.165 -0.455747 153.453 0.355823C148.264 1.49202 144.511 3.01527 142.799 7.35405C142.553 7.97833 141.76 11.0373 141.904 12.2921C143.296 7.72862 144.241 5.70594 146.766 3.78939C148.305 2.68754 150.066 1.9274 151.929 1.56069C153.269 1.1916 154.657 1.02327 156.047 1.06127C157.448 1.10526 158.814 1.50507 160.014 2.22243C162.873 4.09528 164.22 8.10943 162.841 13.4596C161.771 16.35 157.42 16.1565 153.994 16.4873C151.564 17.3301 146.079 18.4726 140.973 17.3988C138.731 16.9306 136.609 16.2126 135.979 13.909C135.538 12.3109 137.931 9.8512 139.468 9.90114ZM147.2 9.5765L147.351 8.69628L148.844 8.24054L149.511 8.86483L150.348 8.60262L148.119 6.39889C148.051 6.32089 147.965 6.26083 147.868 6.22409C147.719 6.15728 147.55 6.14641 147.394 6.1935C147.238 6.24059 147.104 6.34243 147.017 6.48005C146.939 6.57475 146.889 6.68938 146.873 6.81092L146.344 9.81998L147.2 9.5765ZM147.496 7.79106L148.208 7.58503L147.66 7.08561L147.496 7.79106ZM151.142 7.16677L151.255 7.52262L154.089 6.6486C154.098 6.52102 154.06 6.39448 153.982 6.29278L151.142 7.16677ZM150.808 6.08675L154.196 5.05044L153.944 4.25135L150.701 5.25646C150.5 5.36411 150.334 5.52639 150.222 5.72431C150.111 5.92223 150.058 6.14759 150.071 6.37394L150.758 8.50898L154.051 7.49139C154.215 7.45437 154.364 7.36959 154.479 7.24793C154.621 7.12407 154.721 6.96017 154.766 6.77827C154.811 6.59637 154.799 6.40517 154.731 6.23034C154.685 6.10821 154.615 5.99645 154.525 5.9017C154.434 5.80695 154.326 5.73114 154.205 5.67874C154.085 5.62635 153.955 5.59845 153.824 5.59669C153.692 5.59492 153.562 5.61934 153.44 5.66849L150.921 6.4426L150.808 6.08675ZM155.216 3.8643L154.492 4.07655L154.819 5.13785C154.879 5.30225 154.987 5.44502 155.13 5.54749C155.272 5.64997 155.443 5.70736 155.619 5.71218C155.737 5.71583 155.855 5.69675 155.965 5.65599L158.635 4.83818L158.748 5.20651L155.373 6.24282L155.619 7.01695L159 5.97439C159.202 5.85329 159.358 5.66979 159.445 5.4521C159.531 5.23441 159.543 4.99459 159.479 4.76952C159.252 4.07032 159.063 3.45227 158.849 2.75307L158.043 3.00278L158.402 4.14524L155.575 4.99425L155.216 3.8643Z" fill="#F48120"/>
<path fill-rule="evenodd" clip-rule="evenodd" d="M144.171 20.4141C143.542 19.3653 142.213 18.9845 141.023 20.4141C139.638 22.0435 139.902 25.8641 141.187 27.4436C141.345 27.6699 141.549 27.8618 141.785 28.0078C142.021 28.1537 142.284 28.2506 142.559 28.2926C143.901 28.4049 144.675 27.6059 144.593 26.4822C144.52 26.0415 144.298 25.6386 143.964 25.3397C143.705 24.928 143.54 24.4659 143.479 23.985C143.489 23.3857 143.685 22.804 144.039 22.3182C144.537 21.5253 144.669 21.0696 144.209 20.4453" fill="white"/>
<path d="M144.171 20.4141C143.542 19.3653 142.213 18.9845 141.023 20.4141C139.638 22.0435 139.902 25.8641 141.187 27.4436C141.345 27.6699 141.549 27.8618 141.785 28.0078C142.021 28.1537 142.284 28.2506 142.559 28.2926C143.901 28.4049 144.675 27.6059 144.593 26.4822C144.52 26.0415 144.298 25.6386 143.964 25.3397C143.705 24.928 143.54 24.4659 143.479 23.985C143.489 23.3857 143.685 22.804 144.039 22.3182C144.499 21.5066 144.606 21.0946 144.171 20.4141Z" stroke="#231F20" stroke-width="0.65" stroke-miterlimit="22.93"/>
<path fill-rule="evenodd" clip-rule="evenodd" d="M140.494 20.0583C140.935 19.4557 141.567 19.0163 142.289 18.8097C142.629 18.7098 142.584 18.3727 142.093 18.3352C141.304 18.3867 140.515 18.2362 139.801 17.8983C137.862 19.8211 140.494 20.2518 140.494 20.0333" fill="white"/>
<path d="M140.494 20.0583C140.935 19.4557 141.567 19.0163 142.289 18.8097C142.629 18.7098 142.584 18.3727 142.093 18.3352C141.304 18.3867 140.515 18.2362 139.801 17.8983C137.862 19.846 140.494 20.2768 140.494 20.0583Z" stroke="#231F20" stroke-width="0.65" stroke-miterlimit="22.93"/>
<path fill-rule="evenodd" clip-rule="evenodd" d="M150.455 20.3517C149.58 19.3216 147.937 18.8846 146.407 20.3517C144.631 22.0248 144.965 25.9703 146.614 27.5809C147.076 28.0698 147.7 28.3778 148.371 28.4487C150.09 28.561 151.52 27.6121 150.978 26.5758C150.348 25.3272 149.089 23.5168 150.896 21.5253C151.129 21.2694 150.84 20.8012 150.455 20.3517Z" fill="white"/>
<path d="M150.455 20.3517C149.58 19.3216 147.937 18.8846 146.407 20.3517C144.631 22.0248 144.965 25.9703 146.614 27.5809C147.076 28.0698 147.7 28.3778 148.371 28.4487C150.09 28.561 151.52 27.6121 150.978 26.5758C150.348 25.3272 149.089 23.5168 150.896 21.5253C151.129 21.2694 150.84 20.8012 150.455 20.3517Z" stroke="#231F20" stroke-width="0.65" stroke-miterlimit="22.93"/>
<path fill-rule="evenodd" clip-rule="evenodd" d="M149.908 18.4788C151.247 19.5642 152.14 21.0974 152.418 22.7899C152.696 24.4824 152.341 26.2174 151.419 27.6683C150.72 28.7733 149.996 29.5412 148.598 29.5412C147.963 29.524 147.33 29.4487 146.709 29.3164C145.978 28.5173 145.28 28.3425 144.732 29.46C141.382 30.2903 140.444 27.9305 139.159 27.7058C139.008 27.7058 138.876 27.8306 138.636 28.1303C136.873 30.3527 136.747 34.1172 138.454 36.7079C140.708 40.0916 145.607 40.1165 148.982 38.5433C152.615 36.8453 154.171 32.2068 154.907 28.6047C155.707 24.653 155.801 19.9896 153.705 17.2115C152.557 17.9356 151.246 18.3647 149.889 18.4601L149.908 18.4788ZM147.055 30.4464C147.25 31.2954 146.633 31.7698 145.897 31.9571C144.82 32.2318 144.196 31.4764 144.921 31.0082C146.041 30.2903 145.978 29.3726 147.055 30.4464ZM141.035 30.6149C141.999 29.6535 141.942 30.4713 142.925 31.1143C143.554 31.5326 143.019 32.2131 142.056 31.9634C141.394 31.7948 140.84 31.3766 141.017 30.6149" fill="white"/>
<path d="M149.908 18.4788C151.247 19.5642 152.14 21.0974 152.418 22.7899C152.696 24.4824 152.341 26.2174 151.419 27.6683C150.72 28.7733 149.996 29.5412 148.598 29.5412C147.963 29.524 147.33 29.4487 146.709 29.3164C145.978 28.5173 145.28 28.3425 144.732 29.46C141.382 30.2903 140.444 27.9305 139.159 27.7058C139.008 27.7058 138.876 27.8306 138.636 28.1303C136.873 30.3527 136.747 34.1172 138.454 36.7079C140.708 40.0916 145.607 40.1165 148.982 38.5433C152.615 36.8453 154.171 32.2068 154.907 28.6047C155.707 24.653 155.801 19.9896 153.705 17.2115C152.564 17.9393 151.26 18.3747 149.908 18.4788V18.4788ZM147.074 30.4651C147.269 31.3141 146.652 31.7886 145.916 31.9759C144.839 32.2505 144.215 31.4952 144.939 31.027C146.035 30.309 145.972 29.3913 147.049 30.4589L147.074 30.4651ZM141.054 30.6337C142.018 29.6723 141.961 30.4901 142.943 31.1331C143.573 31.5513 143.038 32.2318 142.074 31.9821C141.407 31.8136 140.853 31.3953 141.029 30.6337H141.054Z" stroke="#231F20" stroke-width="0.65" stroke-miterlimit="22.93"/>
<path d="M0 57.5403L2.18499 51.9218H2.99097L5.32079 57.5403H4.45183L3.82216 55.8298H1.44826L0.818584 57.5403H0ZM1.63717 55.2242H3.56398L2.97208 53.6635C2.78948 53.1891 2.65725 52.7958 2.56909 52.4899C2.49639 52.8577 2.3932 53.2189 2.26055 53.5699L1.63717 55.2242Z" fill="#231F20"/>
<path d="M6.2779 51.8968H9.84188V57.5154H9.08627V52.5211H7.03352V55.424C7.04579 55.8584 7.01839 56.293 6.95166 56.7225C6.90767 56.9638 6.78354 57.1835 6.59904 57.3468C6.40993 57.5062 6.16696 57.5887 5.91899 57.5778C5.7058 57.5748 5.49399 57.5433 5.28931 57.4841L5.42153 56.8224C5.52057 56.8674 5.62751 56.8929 5.73637 56.8973C5.81134 56.9023 5.88631 56.8876 5.95373 56.8547C6.02115 56.8218 6.07866 56.7719 6.12048 56.71C6.23469 56.4247 6.27789 56.1164 6.24642 55.811L6.2779 51.8968Z" fill="#231F20"/>
<path d="M10.8683 51.8968H11.6176V54.3065H12.9777C13.448 54.2782 13.9188 54.3528 14.3567 54.525C14.6316 54.6568 14.8535 54.8768 14.9864 55.1493C15.1101 55.3889 15.1749 55.6542 15.1753 55.9234C15.1792 56.35 15.0168 56.7615 14.7219 57.0721C14.4908 57.2622 14.2233 57.404 13.9354 57.4887C13.6475 57.5735 13.3453 57.5995 13.047 57.5653H10.8872L10.8683 51.8968ZM11.6176 56.8911H12.9966C13.1897 56.9167 13.3861 56.904 13.5742 56.8536C13.7623 56.8033 13.9384 56.7162 14.0922 56.5977C14.2583 56.3973 14.3475 56.1452 14.3441 55.886C14.3492 55.6798 14.2849 55.4777 14.1615 55.3116C14.039 55.1557 13.8652 55.0475 13.6704 55.0057C13.3269 54.9508 12.9791 54.9278 12.6314 54.9371H11.6176V56.8911Z" fill="#231F20"/>
<path d="M19.2115 57.5403V55.0432H18.3425C18.2012 55.0398 18.0599 55.0503 17.9206 55.0744C17.7989 55.103 17.6836 55.1538 17.5806 55.2242C17.4324 55.327 17.3026 55.4536 17.1965 55.5988C17.0517 55.7798 16.8754 56.0358 16.655 56.3791L15.8994 57.5528H14.9548L15.9434 56.0171C16.12 55.7416 16.3317 55.4898 16.5731 55.2679C16.7111 55.1548 16.8635 55.0604 17.0265 54.987C16.5753 54.9526 16.1492 54.7678 15.8175 54.4626C15.5586 54.1893 15.4184 53.8261 15.4271 53.4512C15.4228 53.1521 15.5035 52.8579 15.6601 52.6022C15.8027 52.3578 16.0247 52.1685 16.2898 52.0653C16.6618 51.9473 17.0517 51.8945 17.4421 51.9092H19.9608V57.5278L19.2115 57.5403ZM19.2115 52.546H17.4106C17.0821 52.519 16.755 52.6123 16.4913 52.8082C16.3956 52.8885 16.3193 52.9891 16.2681 53.1026C16.2169 53.2161 16.192 53.3395 16.1953 53.4637C16.1947 53.6433 16.2472 53.8191 16.3464 53.9694C16.4514 54.1273 16.6065 54.2459 16.7872 54.3065C17.0483 54.3849 17.3205 54.4208 17.5932 54.4126H19.2115V52.546Z" fill="#231F20"/>
<path d="M20.9872 57.5403V51.9218H21.7428V54.2378H24.696V51.9218H25.4516V57.5403H24.696V54.8809H21.7428V57.5403H20.9872Z" fill="#231F20"/>
<path d="M30.5206 55.5613L31.2762 55.7486C31.1585 56.2991 30.8568 56.7941 30.4198 57.1533C29.991 57.4798 29.4617 57.6495 28.9212 57.634C28.3964 57.6562 27.8761 57.5284 27.4225 57.2656C27.0281 57.0009 26.7231 56.6245 26.5473 56.1856C26.344 55.7076 26.2411 55.1936 26.2451 54.6749C26.2325 54.1433 26.3491 53.6166 26.5851 53.1391C26.7965 52.7165 27.1355 52.3695 27.5548 52.1465C27.9765 51.9151 28.4518 51.7967 28.9338 51.8031C29.4452 51.7859 29.9479 51.9374 30.3631 52.2339C30.7629 52.5362 31.0489 52.9626 31.1754 53.445L30.4387 53.6198C30.3448 53.2676 30.1423 52.9533 29.8594 52.7208C29.5849 52.5256 29.2525 52.4267 28.9149 52.4399C28.526 52.4296 28.1433 52.5386 27.8192 52.7521C27.5225 52.9549 27.3013 53.2488 27.1896 53.5886C27.0688 53.9383 27.0071 54.3053 27.007 54.6749C27.0016 55.1005 27.0742 55.5235 27.2211 55.9234C27.3341 56.2526 27.556 56.5342 27.8507 56.7225C28.1435 56.8973 28.4787 56.9901 28.8204 56.991C29.2092 56.9996 29.5885 56.8713 29.8909 56.6289C30.2166 56.354 30.4386 55.9776 30.5206 55.5613Z" fill="#231F20"/>
<path d="M33.9774 51.8968H37.661V52.5648H34.7267V54.3003H36.0868C36.4906 54.289 36.8938 54.3374 37.2832 54.4439C37.5751 54.5373 37.8261 54.7267 37.9948 54.9808C38.1741 55.2533 38.2662 55.5731 38.2592 55.8985C38.2611 56.1759 38.1964 56.4498 38.0703 56.6975C37.9411 56.954 37.7427 57.1701 37.4973 57.3218C37.0928 57.5104 36.646 57.5921 36.2002 57.5591H33.9774V51.8968ZM34.7267 56.8911H36.2317C36.5562 56.9168 36.8794 56.8284 37.1447 56.6414C37.2491 56.5501 37.3307 56.4361 37.3831 56.3082C37.4356 56.1804 37.4574 56.0423 37.4469 55.9047C37.4543 55.6981 37.3947 55.4947 37.2769 55.3241C37.1582 55.1659 36.9862 55.0551 36.7921 55.012C36.4438 54.9444 36.0888 54.9172 35.7342 54.9308H34.7267V56.8911Z" fill="#231F20"/>
<path d="M38.1648 51.8968H38.9267L40.778 55.3553L42.4025 51.8968H43.1519L41.0172 56.2668C40.861 56.6531 40.6489 57.0148 40.3876 57.3406C40.2883 57.43 40.172 57.4987 40.0454 57.5427C39.9188 57.5866 39.7847 57.6049 39.6508 57.5965C39.4079 57.5878 39.1678 57.5415 38.9393 57.4592V56.8349C39.1307 56.9455 39.3475 57.0057 39.569 57.0097C39.7428 57.0111 39.9109 56.9488 40.0412 56.8349C40.2419 56.6013 40.392 56.3293 40.482 56.0358L38.1648 51.8968Z" fill="#231F20"/>
<path d="M43.7123 51.8968H47.1755V56.8911H47.6856V58.8701H47.0181V57.5591H43.24V58.8701H42.5663V56.8911H43.0071C43.4667 56.2044 43.6934 54.8247 43.6934 52.7396L43.7123 51.8968ZM46.4199 52.5648H44.4427V52.8519C44.4427 53.3306 44.3987 53.9861 44.3105 54.8184C44.2548 55.5261 44.0825 56.2199 43.8005 56.8723H46.4199V52.5648Z" fill="#231F20"/>
<path d="M48.4664 57.5403V51.9218H49.222V57.5403H48.4664Z" fill="#231F20"/>
<path d="M50.2861 57.5403V51.9218H52.4207C52.7774 51.9102 53.1329 51.9696 53.466 52.0966C53.7255 52.2028 53.9454 52.3859 54.0957 52.621C54.237 52.8436 54.3133 53.1008 54.3161 53.3639C54.3186 53.6046 54.2508 53.8409 54.1209 54.0443C53.9678 54.2755 53.7485 54.4559 53.4912 54.5625C53.8058 54.6406 54.0851 54.8208 54.2846 55.0744C54.4702 55.3211 54.5676 55.622 54.5617 55.9297C54.5631 56.1849 54.5049 56.4371 54.3916 56.6663C54.295 56.8701 54.1529 57.0494 53.9761 57.1907C53.7876 57.3245 53.5732 57.418 53.3464 57.4654C53.0457 57.5389 52.7366 57.5725 52.427 57.5653L50.2861 57.5403ZM51.0355 54.2691H52.2948C52.5361 54.278 52.7775 54.2549 53.0126 54.2004C53.1832 54.1573 53.3341 54.0583 53.4408 53.9195C53.5456 53.7789 53.5989 53.6072 53.5919 53.4325C53.5934 53.2565 53.5454 53.0836 53.4534 52.9331C53.3634 52.793 53.2244 52.6907 53.063 52.6459C52.7809 52.5779 52.4904 52.5506 52.2004 52.5648H51.048L51.0355 54.2691ZM51.0355 56.8723H52.4522C52.6241 56.8857 52.7967 56.8857 52.9686 56.8723C53.1221 56.8482 53.2696 56.7952 53.4031 56.7163C53.5235 56.6387 53.6212 56.531 53.6864 56.4041C53.7636 56.2579 53.8026 56.0947 53.7997 55.9297C53.8036 55.7342 53.7464 55.5423 53.636 55.3803C53.5269 55.2238 53.3668 55.1092 53.1827 55.0557C52.9124 54.9804 52.6321 54.9468 52.3515 54.9558H51.048L51.0355 56.8723Z" fill="#231F20"/>
<path d="M55.3992 57.5403V51.9218H59.511V52.5897H56.1548V54.319H59.3032V54.9807H56.1548V56.8973H59.6432V57.5653L55.3992 57.5403Z" fill="#231F20"/>
<path d="M60.8711 51.8968H64.4288V57.5154H63.6794V52.5211H61.6204V55.424C61.6327 55.8584 61.6053 56.293 61.5385 56.7225C61.4969 56.9646 61.3724 57.1851 61.1859 57.3468C60.9968 57.5062 60.7538 57.5887 60.5058 57.5778C60.3053 57.5725 60.1062 57.541 59.9139 57.4841L60.0399 56.8224C60.1392 56.8667 60.246 56.8921 60.3547 56.8973C60.4297 56.9023 60.5047 56.8876 60.5721 56.8547C60.6395 56.8218 60.697 56.7719 60.7388 56.71C60.8567 56.4257 60.9021 56.1169 60.8711 55.811V51.8968Z" fill="#231F20"/>
<path d="M65.4551 51.8968H66.2107V54.3065H67.5645C68.0348 54.2782 68.5056 54.3528 68.9435 54.525C69.2199 54.6547 69.4424 54.8753 69.5732 55.1493C69.6969 55.3889 69.7617 55.6542 69.7621 55.9234C69.766 56.35 69.6035 56.7615 69.3087 57.0721C69.0776 57.2622 68.81 57.404 68.5222 57.4887C68.2343 57.5735 67.9321 57.5995 67.6338 57.5653H65.474L65.4551 51.8968ZM66.2107 56.8911H67.5834C67.7765 56.9167 67.9729 56.904 68.161 56.8536C68.3491 56.8033 68.5252 56.7162 68.679 56.5977C68.8475 56.3987 68.9371 56.1457 68.9309 55.886C68.936 55.6798 68.8717 55.4777 68.7483 55.3116C68.6258 55.1557 68.452 55.0475 68.2571 55.0057C67.9137 54.9508 67.5659 54.9278 67.2182 54.9371H66.2107V56.8911Z" fill="#231F20"/>
<path d="M70.4296 57.5403V51.9218H71.1978V54.2378H74.1573V51.9218H74.9066V57.5403H74.1573V54.8809H71.1978V57.5403H70.4296Z" fill="#231F20"/>
<path d="M75.9141 51.8968H76.6004V56.3667L79.6229 51.8968H80.3785V57.5154H79.6984V53.058L76.6697 57.5154H75.9141V51.8968Z" fill="#231F20"/>
<path d="M81.3923 51.8968H82.148V54.3939C82.406 54.4187 82.664 54.3475 82.8721 54.1942C83.1028 53.9098 83.2838 53.589 83.4073 53.2452C83.517 52.9735 83.6475 52.7106 83.7977 52.4586C83.9084 52.298 84.0578 52.1671 84.2322 52.0778C84.4247 51.9722 84.6418 51.9184 84.8619 51.9218H85.3215V52.5461H85.0193C84.8247 52.5331 84.6327 52.5958 84.4841 52.7208C84.3066 52.9417 84.1682 53.1908 84.0748 53.4575C83.9701 53.786 83.8058 54.0928 83.5899 54.3627C83.4526 54.4908 83.2925 54.5924 83.1176 54.6624C83.5935 54.8526 83.9815 55.2106 84.207 55.6675L85.3782 57.5403H84.4211L83.4703 56.0046C83.2991 55.6895 83.0875 55.3978 82.8406 55.1368C82.6524 54.9752 82.4094 54.8904 82.1605 54.8996V57.5403H81.4049L81.3923 51.8968Z" fill="#231F20"/>
<path d="M85.9008 57.5403V51.9218H86.6501V57.5403H85.9008Z" fill="#231F20"/>
<path d="M87.7142 57.5403V51.9217H89.8488C90.2056 51.9097 90.5611 51.9691 90.8941 52.0965C91.1556 52.1994 91.3765 52.3834 91.5238 52.6209C91.6698 52.8418 91.7485 53.0998 91.7505 53.3638C91.7511 53.6052 91.6811 53.8416 91.549 54.0443C91.406 54.2722 91.1977 54.4526 90.9508 54.5625C91.2654 54.6406 91.5447 54.8208 91.7442 55.0744C91.9324 55.3197 92.0302 55.6215 92.0212 55.9296C92.0216 56.1841 91.9657 56.4356 91.8575 56.6663C91.7609 56.8701 91.6187 57.0494 91.4419 57.1907C91.2524 57.3227 91.0384 57.416 90.8122 57.4654C90.5138 57.5389 90.2067 57.5725 89.8992 57.5653L87.7142 57.5403ZM88.4698 54.2691H89.6977C89.939 54.278 90.1804 54.2549 90.4155 54.2004C90.5878 54.1572 90.7407 54.0584 90.85 53.9194C90.95 53.7769 91.0008 53.6061 90.9949 53.4325C90.9991 53.2562 90.9509 53.0825 90.8563 52.9331C90.7687 52.7934 90.6318 52.691 90.4722 52.6459C90.1899 52.5788 89.8995 52.5514 89.6096 52.5648H88.4698V54.2691ZM88.4698 56.8723H89.8866C90.0564 56.8858 90.2269 56.8858 90.3967 56.8723C90.5507 56.8503 90.6986 56.7971 90.8311 56.7163C90.9551 56.641 91.0554 56.5329 91.1208 56.4041C91.198 56.2579 91.237 56.0947 91.2341 55.9296C91.238 55.7342 91.1808 55.5423 91.0704 55.3803C90.9598 55.2252 90.8003 55.1109 90.617 55.0557C90.3466 54.9813 90.0664 54.9476 89.7859 54.9558H88.4698V56.8723Z" fill="#231F20"/>
<path d="M94.2189 51.8968H94.9808L96.832 55.3553L98.4566 51.8968H99.2059L97.0713 56.2668C96.9151 56.6531 96.703 57.0148 96.4416 57.3406C96.3424 57.43 96.226 57.4987 96.0995 57.5427C95.9729 57.5866 95.8388 57.6049 95.7049 57.5965C95.462 57.5878 95.2219 57.5415 94.9934 57.4592V56.8349C95.1848 56.9455 95.4016 57.0057 95.6231 57.0097C95.7968 57.0111 95.965 56.9488 96.0953 56.8349C96.296 56.6013 96.446 56.3293 96.5361 56.0358L94.2189 51.8968Z" fill="#231F20"/>
<path d="M99.6152 51.8968H100.365V54.3939C100.623 54.4193 100.881 54.348 101.089 54.1942C101.322 53.9106 101.505 53.5897 101.63 53.2452C101.738 52.974 101.867 52.711 102.014 52.4586C102.129 52.2992 102.28 52.1687 102.455 52.0778C102.648 51.9722 102.865 51.9184 103.085 51.9218H103.544V52.5461H103.242C103.146 52.5386 103.049 52.5502 102.957 52.5802C102.865 52.6102 102.78 52.658 102.707 52.7208C102.527 52.9401 102.389 53.1896 102.298 53.4575C102.19 53.7849 102.026 54.0912 101.813 54.3627C101.676 54.4908 101.515 54.5924 101.341 54.6624C101.813 54.8549 102.199 55.2124 102.424 55.6675L103.595 57.5403H102.682L101.731 56.0046C101.558 55.6909 101.346 55.3994 101.101 55.1368C100.911 54.9742 100.666 54.8894 100.415 54.8996V57.5403H99.6656L99.6152 51.8968Z" fill="#231F20"/>
<path d="M103.998 57.5403V51.9218H106.145C106.434 51.9153 106.722 51.9341 107.008 51.978C107.259 52.0132 107.5 52.1027 107.713 52.2402C107.909 52.3794 108.065 52.5665 108.166 52.7833C108.285 53.0244 108.347 53.289 108.349 53.5574C108.366 54.0182 108.198 54.467 107.883 54.806C107.653 54.9953 107.386 55.1366 107.099 55.2213C106.813 55.306 106.512 55.3325 106.214 55.2992H104.76V57.5965L103.998 57.5403ZM104.753 54.5812H106.221C106.588 54.6126 106.955 54.5178 107.26 54.3128C107.363 54.2154 107.444 54.0968 107.496 53.9652C107.548 53.8336 107.571 53.6923 107.562 53.5512C107.572 53.3297 107.51 53.1107 107.385 52.9269C107.27 52.7644 107.101 52.6474 106.907 52.596C106.676 52.555 106.442 52.5383 106.208 52.5461H104.753V54.5812Z" fill="#231F20"/>
<path d="M107.908 57.5403L110.093 51.9218H110.905L113.235 57.5403H112.379L111.711 55.8298H109.337L108.708 57.5403H107.908ZM109.552 55.2242H111.497L110.905 53.6635C110.723 53.1891 110.591 52.7958 110.502 52.4899C110.427 52.857 110.324 53.2179 110.194 53.5699L109.552 55.2242Z" fill="#231F20"/>
<path d="M113.008 51.5534V50.7668H113.733V51.5534H113.008ZM113.733 57.5403V51.9218H114.482V57.5403H113.733ZM114.45 51.5534V50.7668H115.181V51.5534H114.45Z" fill="#231F20"/>
<path d="M115.603 57.5403V51.9218H116.358V54.2378H119.312V51.9218H120.067V57.5403H119.312V54.8809H116.358V57.5403H115.603Z" fill="#231F20"/>
<path d="M121.094 51.8968H121.774V56.3667L124.802 51.8968H125.558V57.5154H124.872V53.058L121.843 57.5154H121.094V51.8968Z" fill="#231F20"/>
</g>
<defs>
<clipPath id="clip0">
<rect width="180" height="60" fill="white"/>
</clipPath>
</defs>
</svg>
