<!-- Generated by IcoMoon.io -->
<svg version="1.1" xmlns="http://www.w3.org/2000/svg" width="1024" height="1024" viewBox="0 0 1024 1024">
<title></title>
<g id="icomoon-ignore">
</g>
<path fill="#000" d="M512.020 319.393c-2.605 0-5.207-0.47-7.681-1.413l-277.332-106.999c-8.236-3.167-13.655-11.128-13.655-19.987s5.419-16.82 13.655-19.987l277.332-107c4.949-1.883 10.368-1.883 15.317 0l277.335 107c8.277 3.167 13.696 11.128 13.696 19.987s-5.419 16.82-13.655 19.987l-277.332 106.999c-2.474 0.942-5.077 1.413-7.679 1.413zM294.122 190.993l217.898 84.059 217.898-84.059-217.898-84.059-217.898 84.059z"></path>
<path fill="#000" d="M512.020 661.792c-2.605 0-5.207-0.47-7.681-1.413l-277.332-107c-8.236-3.166-13.655-11.128-13.655-19.987v-342.4c0-11.813 9.557-21.4 21.334-21.4s21.334 9.587 21.334 21.4v327.72l256 98.782 255.999-98.782v-327.72c0-11.813 9.557-21.4 21.334-21.4s21.334 9.587 21.334 21.4v342.4c0 8.859-5.419 16.821-13.655 19.987l-277.332 107c-2.474 0.942-5.077 1.413-7.679 1.413z"></path>
<path fill="#000" d="M512.016 661.792c-11.774 0-21.332-9.587-21.332-21.4v-342.4c0-11.813 9.557-21.4 21.332-21.4s21.334 9.587 21.334 21.4v342.4c0 11.813-9.557 21.4-21.334 21.4z"></path>
<path fill="#000" d="M448.026 961.404c-6.485 0-12.886-2.951-17.067-8.56-7.083-9.457-5.161-22.854 4.266-29.96l62.549-47.080-62.549-47.080c-9.427-7.103-11.35-20.501-4.266-29.96 7.083-9.457 20.437-11.34 29.866-4.28l85.333 64.2c5.378 4.024 8.535 10.402 8.535 17.12 0 6.72-3.157 13.098-8.535 17.12l-85.333 64.2c-3.84 2.869-8.321 4.28-12.799 4.28z"></path>
<path fill="#000" d="M512 897.197c-64.513 0-125.57-3.082-181.504-9.117-77.398-7.832-330.496-41.132-330.496-140.683 0-40.618 41.771-74.559 124.074-100.837 13.526-4.196 28.032 6.378 28.032 20.416 0 10.356-7.168 19.003-16.895 20.971-68.267 22.041-92.544 45.797-92.544 59.449 0 28.504 90.666 77.725 292.267 98.098 54.529 5.905 114.046 8.902 177.066 8.902 11.776 0 21.334 9.587 21.334 21.4s-9.557 21.4-21.334 21.4z"></path>
<path fill="#000" d="M660.909 890.781c-11.010 0-20.352-8.473-21.25-19.645-0.938-11.769 7.809-22.128 19.542-23.068 219.734-18.020 322.132-70.706 322.132-100.665 0-13.782-24.703-37.792-94.377-60.048-11.222-3.596-17.41-15.622-13.867-26.879 3.584-11.258 15.531-17.462 26.794-13.91 82.348 26.278 124.117 60.219 124.117 100.837 0 105.503-276.565 136.36-361.343 143.338-0.598 0.041-1.194 0.041-1.748 0.041z"></path>
</svg>
