<svg width="537" height="227" viewBox="0 0 537 227" fill="none" xmlns="http://www.w3.org/2000/svg">
<path d="M96.9344 218.5V219.5H97.9344H134.534H135.534V218.5V183.8H154.784H155.784V182.8V149.05V148.05H154.784H135.534V92.8V91.8H134.534H97.9344H96.9344V92.8V148.05H45.062L113.539 2.92673L114.212 1.5H112.634H71.3844H70.7505L70.48 2.07327L1.33 148.623L1.23438 148.826V149.05V182.8V183.8H2.23438H96.9344V218.5ZM476.915 218.5V219.5H477.915H514.515H515.515V218.5V183.8H534.765H535.765V182.8V149.05V148.05H534.765H515.515V92.8V91.8H514.515H477.915H476.915V92.8V148.05H425.042L493.519 2.92673L494.192 1.5H492.615H451.365H450.731L450.46 2.07327L381.31 148.623L381.215 148.826V149.05V182.8V183.8H382.215H476.915V218.5Z" stroke="#231F20" stroke-width="2"/>
<path fill-rule="evenodd" clip-rule="evenodd" d="M201.617 159.325C200.681 181.893 206.299 194.582 235.048 213.78C237.249 230.331 203.982 226.609 197.45 219.141C187.079 207.295 183.895 198.96 182.724 188.706C178.604 152.559 180.617 120.298 202.741 96.4657C200.779 86.9349 200.612 77.1215 202.249 67.5295C200.437 66.7973 198.728 65.8291 197.169 64.6499C195.794 63.6044 194.593 62.3481 193.611 60.9275C187.524 52.1249 195.085 40.0915 204.661 38.0782C205.187 32.9077 206.497 27.8475 208.547 23.0715C213.229 13.3325 223.436 7.31578 233.48 4.34255C247.691 0.105111 270.634 1.43952 283.697 9.79734C289.698 13.7746 293.991 19.8552 295.73 26.8407C296.825 30.9616 297.307 35.2215 297.159 39.4828C297.245 42.0205 297.183 44.5611 296.971 47.0914C296.854 48.3322 296.737 49.5965 296.643 50.8841C300.951 58.8674 302.028 69.1917 301.326 78.1816C318.791 84.924 331.994 98.6196 332.463 114.282C348.663 134.532 357.138 148.977 357.162 167.168C357.162 181.215 352.83 199.944 342.272 223.074C322.302 227.756 302.59 227.428 284.61 226.258C286.951 217.151 284.61 213.92 280.256 208.816C275.011 202.706 276.042 196.853 279.741 189.502C282.807 183.415 288.262 178.616 294.443 174.027C303.716 167.657 312.383 160.447 320.336 152.489C326.071 146.402 327.219 139.636 328.342 130.365C321.319 149.399 312.212 156.703 294.724 168.034C283.486 176.111 276.767 182.081 272.366 193.482C270.797 199.967 271.406 205.398 275.339 208.84C280.841 213.709 285.102 223.8 276.252 225.626C250.875 230.893 235.259 220.943 233.972 193.599C233.562 182.141 234.624 170.677 237.132 159.489C226.386 166.091 228.61 190.954 229.968 204.532C208.898 188.987 206.838 177.118 201.617 159.442" fill="#231F20"/>
<path fill-rule="evenodd" clip-rule="evenodd" d="M206.465 39.0144C206.946 33.4435 208.281 27.9795 210.421 22.8138C218.194 6.68345 242.518 0.17513 258.461 3.21859C239.17 7.47944 225.217 13.1918 218.849 29.4626C217.936 31.8037 214.987 43.2752 215.525 47.9809C220.699 30.8673 224.211 23.282 233.599 16.0948C239.323 11.9627 245.871 9.11215 252.796 7.73695C257.777 6.35282 262.938 5.72157 268.107 5.86407C273.315 6.02905 278.393 7.52838 282.856 10.2185C293.484 17.2419 298.495 32.2953 293.367 52.3588C289.388 63.1982 273.21 62.4724 260.475 63.7132C251.438 66.8738 231.047 71.158 212.06 67.1313C203.726 65.3754 195.836 62.6831 193.495 54.0444C191.856 48.0511 200.753 38.8271 206.465 39.0144ZM235.214 37.797L235.776 34.4961L241.324 32.787L243.806 35.1281L246.92 34.1448L238.632 25.8807C238.379 25.5881 238.057 25.3629 237.696 25.2251C237.142 24.9746 236.516 24.9338 235.935 25.1104C235.353 25.287 234.856 25.6689 234.535 26.185C234.243 26.5401 234.056 26.97 233.996 27.4258L232.03 38.71L235.214 37.797ZM236.314 31.1014L238.96 30.3288L236.923 28.4559L236.314 31.1014ZM249.869 28.7603L250.291 30.0947L260.826 26.8171C260.86 26.3386 260.719 25.8641 260.428 25.4827L249.869 28.7603ZM248.629 24.7101L261.224 20.8238L260.287 17.8272L248.231 21.5964C247.482 22.0001 246.865 22.6087 246.45 23.3509C246.035 24.0931 245.841 24.9383 245.889 25.7871L248.441 33.7937L260.685 29.9776C261.295 29.8388 261.85 29.5209 262.277 29.0646C262.804 28.6001 263.176 27.9855 263.344 27.3034C263.511 26.6212 263.466 25.9042 263.214 25.2486C263.043 24.7906 262.782 24.3715 262.447 24.0161C262.111 23.6608 261.707 23.3765 261.26 23.18C260.812 22.9835 260.33 22.8789 259.841 22.8723C259.352 22.8657 258.867 22.9573 258.414 23.1416L249.05 26.0446L248.629 24.7101ZM265.016 16.3757L262.324 17.1717L263.541 21.1516C263.763 21.7682 264.165 22.3036 264.695 22.6878C265.226 23.0721 265.86 23.2874 266.515 23.3054C266.954 23.3191 267.391 23.2475 267.802 23.0947L277.729 20.0278L278.15 21.4091L265.602 25.2954L266.515 28.1984L279.087 24.2887C279.837 23.8346 280.418 23.1465 280.74 22.3301C281.061 21.5137 281.105 20.6144 280.866 19.7704C280.023 17.1483 279.321 14.8306 278.525 12.2085L275.528 13.1449L276.862 17.4292L266.351 20.6131L265.016 16.3757Z" fill="#F48120"/>
<path fill-rule="evenodd" clip-rule="evenodd" d="M223.952 78.4389C221.611 74.5058 216.671 73.0777 212.247 78.4389C207.096 84.5492 208.079 98.877 212.855 104.8C213.446 105.649 214.203 106.369 215.08 106.916C215.957 107.463 216.937 107.827 217.959 107.984C222.945 108.405 225.825 105.409 225.521 101.195C225.249 99.5422 224.424 98.0312 223.18 96.9103C222.22 95.3665 221.605 93.6336 221.377 91.8301C221.417 89.5826 222.144 87.4012 223.46 85.5793C225.31 82.6061 225.802 80.8971 224.093 78.5559" fill="white"/>
<path d="M223.952 78.4389C221.611 74.5058 216.671 73.0777 212.247 78.4389C207.096 84.5492 208.079 98.877 212.855 104.8C213.446 105.649 214.203 106.369 215.08 106.916C215.957 107.463 216.937 107.827 217.959 107.984C222.945 108.405 225.825 105.409 225.521 101.195C225.249 99.5422 224.424 98.0312 223.18 96.9103C222.22 95.3665 221.605 93.6336 221.377 91.8301C221.417 89.5826 222.144 87.4012 223.46 85.5793C225.169 82.5359 225.568 80.9907 223.952 78.4389Z" stroke="#231F20" stroke-width="0.65" stroke-miterlimit="22.93"/>
<path fill-rule="evenodd" clip-rule="evenodd" d="M210.282 77.1047C211.924 74.8449 214.272 73.1972 216.955 72.4224C218.219 72.0478 218.055 70.7836 216.229 70.6431C213.295 70.836 210.361 70.2717 207.707 69.0044C200.497 76.2151 210.282 77.8304 210.282 77.011" fill="white"/>
<path d="M210.282 77.1047C211.924 74.8449 214.272 73.1972 216.955 72.4224C218.219 72.0478 218.055 70.7836 216.229 70.6431C213.295 70.836 210.361 70.2717 207.707 69.0044C200.497 76.3087 210.282 77.9241 210.282 77.1047Z" stroke="#231F20" stroke-width="0.65" stroke-miterlimit="22.93"/>
<path fill-rule="evenodd" clip-rule="evenodd" d="M247.318 78.2048C244.064 74.3419 237.954 72.7032 232.265 78.2048C225.663 84.479 226.904 99.275 233.038 105.315C234.754 107.148 237.072 108.303 239.569 108.569C245.961 108.991 251.275 105.432 249.262 101.546C246.92 96.8636 242.238 90.0743 248.957 82.6061C249.823 81.6463 248.746 79.8904 247.318 78.2048Z" fill="white"/>
<path d="M247.318 78.2048C244.064 74.3419 237.954 72.7032 232.265 78.2048C225.663 84.479 226.904 99.275 233.038 105.315C234.754 107.148 237.072 108.303 239.569 108.569C245.961 108.991 251.275 105.432 249.262 101.546C246.92 96.8636 242.238 90.0743 248.957 82.6061C249.823 81.6463 248.746 79.8904 247.318 78.2048Z" stroke="#231F20" stroke-width="0.65" stroke-miterlimit="22.93"/>
<path fill-rule="evenodd" clip-rule="evenodd" d="M245.28 71.1814C250.259 75.2517 253.578 81.0015 254.613 87.3485C255.648 93.6955 254.327 100.202 250.899 105.643C248.3 109.787 245.608 112.666 240.41 112.666C238.048 112.602 235.697 112.32 233.387 111.823C230.671 108.827 228.073 108.171 226.036 112.362C213.581 115.476 210.093 106.626 205.317 105.783C204.755 105.783 204.264 106.251 203.374 107.375C196.819 115.71 196.35 129.827 202.695 139.542C211.076 152.231 229.29 152.325 241.839 146.425C255.347 140.057 261.129 122.663 263.869 109.154C266.842 94.3352 267.193 76.847 259.397 66.429C255.13 69.1442 250.254 70.7534 245.21 71.1112L245.28 71.1814ZM234.675 116.061C235.4 119.245 233.106 121.024 230.367 121.726C226.364 122.756 224.046 119.924 226.738 118.168C230.905 115.476 230.671 112.034 234.675 116.061ZM212.294 116.693C215.875 113.088 215.665 116.154 219.317 118.566C221.658 120.134 219.668 122.686 216.086 121.75C213.628 121.118 211.568 119.549 212.223 116.693" fill="white"/>
<path d="M245.28 71.1814C250.259 75.2517 253.578 81.0015 254.613 87.3485C255.648 93.6955 254.327 100.202 250.899 105.643C248.3 109.787 245.608 112.666 240.41 112.666C238.048 112.602 235.697 112.32 233.387 111.823C230.671 108.827 228.073 108.171 226.036 112.362C213.581 115.476 210.093 106.626 205.317 105.783C204.755 105.783 204.264 106.251 203.374 107.375C196.819 115.71 196.35 129.827 202.695 139.542C211.076 152.231 229.29 152.325 241.839 146.425C255.347 140.057 261.129 122.663 263.869 109.154C266.842 94.3352 267.193 76.847 259.397 66.429C255.158 69.158 250.307 70.791 245.28 71.1814V71.1814ZM234.745 116.131C235.471 119.315 233.176 121.094 230.437 121.797C226.434 122.827 224.116 119.994 226.808 118.238C230.882 115.546 230.648 112.104 234.651 116.108L234.745 116.131ZM212.364 116.763C215.946 113.158 215.735 116.225 219.387 118.636C221.728 120.205 219.738 122.756 216.156 121.82C213.675 121.188 211.615 119.619 212.27 116.763H212.364Z" stroke="#231F20" stroke-width="0.65" stroke-miterlimit="22.93"/>
</svg>
