<!-- Generated by IcoMoon.io -->
<svg version="1.1" xmlns="http://www.w3.org/2000/svg" width="1024" height="1024" viewBox="0 0 1024 1024">
<title></title>
<g id="icomoon-ignore">
</g>
<path d="M909.505 617.806l108.902-93.612c1.754-1.51 3.163-3.382 4.127-5.488 0.966-2.106 1.466-4.396 1.466-6.715s-0.5-4.609-1.466-6.715c-0.964-2.106-2.373-3.977-4.127-5.488l-108.902-93.611c-10.395-8.934-26.451-1.527-26.451 12.202v187.251c0 13.728 16.056 21.135 26.451 12.176v0z"></path>
<path d="M26.451 617.806l108.903-93.612c1.754-1.51 3.162-3.382 4.127-5.488s1.466-4.396 1.466-6.715c0-2.319-0.5-4.609-1.466-6.715s-2.373-3.977-4.127-5.488l-108.903-93.611c-10.395-8.934-26.451-1.527-26.451 12.202v187.251c0 13.728 16.057 21.135 26.451 12.176v0z"></path>
<path d="M467.984 617.806l108.904-93.612c1.754-1.51 3.162-3.382 4.127-5.488s1.466-4.396 1.466-6.715c0-2.319-0.5-4.609-1.466-6.715s-2.373-3.977-4.127-5.488l-108.904-93.611c-10.394-8.934-26.451-1.527-26.451 12.202v187.251c0 13.728 16.057 21.135 26.451 12.176v0z"></path>
</svg>
