<!-- Generated by IcoMoon.io -->
<svg version="1.1" xmlns="http://www.w3.org/2000/svg" width="1024" height="1024" viewBox="0 0 1024 1024">
<title></title>
<g id="icomoon-ignore">
</g>
<path fill="#000" d="M1023.978 272.932c-0.048-1.971-0.441-3.916-1.163-5.748-0.189-0.514-0.398-0.985-0.636-1.476-0.721-1.511-1.662-2.908-2.792-4.142-0.199-0.214-0.334-0.469-0.545-0.674-1.177-1.169-2.523-2.16-3.99-2.939l-358.401-187.735c-4.915-2.58-10.779-2.604-15.716-0.066l-631.468 324.266c-1.498 0.784-2.868 1.789-4.068 2.981-0.238 0.232-0.396 0.514-0.62 0.757-1.106 1.215-2.030 2.585-2.74 4.065-0.236 0.483-0.452 0.947-0.642 1.457-0.744 1.864-1.15 3.849-1.196 5.856l0.006 0.041-0.006 0.025v341.335c0 6.349 3.524 12.176 9.15 15.117l358.401 187.735c0.723 0.332 1.465 0.614 2.226 0.84 0.46 0.164 0.898 0.392 1.368 0.516 1.405 0.381 2.85 0.58 4.305 0.591h0.015l0.019-0.006c2.471-0.048 4.9-0.636 7.12-1.718 0.211-0.095 0.452-0.054 0.661-0.16l631.468-324.267c5.69-2.923 9.268-8.785 9.266-15.184v-341.333l-0.023-0.133zM358.402 910.466l-324.267-169.856v-302.807l324.267 169.856v302.807zM375.543 578.11l-321.408-168.36 594.327-305.193 321.408 168.359-594.326 305.194zM989.871 603.975l-597.334 306.743v-302.958l597.336-306.741v302.956h-0.002z"></path>
<path fill="#000" d="M341.336 375.463c-58.376 0-102.4 25.685-102.4 59.734 0 34.051 44.026 59.734 102.4 59.734s102.4-25.683 102.4-59.734c0-34.049-44.026-59.734-102.4-59.734zM341.336 460.798c-42.349 0-68.266-16.573-68.266-25.6 0-9.025 25.917-25.6 68.266-25.6s68.266 16.575 68.266 25.6c0 9.027-25.917 25.6-68.266 25.6z"></path>
<path fill="#000" d="M520.535 281.601c-58.376 0-102.4 25.683-102.4 59.734 0 34.049 44.026 59.734 102.4 59.734s102.4-25.685 102.4-59.734c0-34.051-44.026-59.734-102.4-59.734zM520.535 366.933c-42.349 0-68.266-16.575-68.266-25.6s25.917-25.6 68.266-25.6c42.349 0 68.266 16.575 68.266 25.6s-25.917 25.6-68.266 25.6z"></path>
<path fill="#000" d="M699.734 187.735c-58.376 0-102.4 25.683-102.4 59.734 0 34.049 44.026 59.734 102.4 59.734s102.4-25.685 102.4-59.734c0-34.051-44.026-59.734-102.4-59.734zM699.734 273.069c-42.349 0-68.266-16.573-68.266-25.6s25.917-25.6 68.266-25.6c42.349 0 68.266 16.573 68.266 25.6s-25.917 25.6-68.266 25.6z"></path>
</svg>
