<!-- Generated by IcoMoon.io -->
<svg version="1.1" xmlns="http://www.w3.org/2000/svg" width="1024" height="1024" viewBox="0 0 1024 1024">
<title></title>
<g id="icomoon-ignore">
</g>
<path fill="#000" d="M0 512.001c0-282.677 229.323-512.001 512.001-512.001 282.675 0 511.999 229.323 511.999 512.001 0 282.675-229.325 511.999-511.999 511.999-282.677 0-512.001-229.325-512.001-511.999zM512.001 93.091c-231.264 0-418.91 187.645-418.91 418.91s187.645 418.909 418.91 418.909c231.264 0 418.909-187.645 418.909-418.909s-187.645-418.91-418.909-418.91z"></path>
<path fill="#000" d="M427.37 331.145c18.178-18.177 47.647-18.177 65.825 0l155.151 155.153c18.173 18.178 18.173 47.647 0 65.825l-155.151 155.151c-18.178 18.173-47.647 18.173-65.825 0-18.178-18.178-18.178-47.647 0-65.825l122.239-122.239-122.239-122.24c-18.178-18.177-18.178-47.648 0-65.825z"></path>
</svg>
