<!-- Generated by IcoMoon.io -->
<svg version="1.1" xmlns="http://www.w3.org/2000/svg" width="1024" height="1024" viewBox="0 0 1024 1024">
<title></title>
<g id="icomoon-ignore">
</g>
<path fill="#000" d="M820.457 1023.991c-44.617 0-107.296-16.141-201.145-68.575-114.129-64.001-202.403-123.086-315.914-236.298-109.442-109.374-162.699-180.187-237.237-315.82-84.207-153.147-69.852-233.422-53.807-267.73 19.109-41.006 47.315-65.533 83.772-89.875 20.707-13.568 42.622-25.198 65.464-34.743 2.286-0.983 4.412-1.92 6.308-2.766 11.314-5.098 28.457-12.8 50.172-4.571 14.492 5.439 27.429 16.572 47.681 36.572 41.531 40.96 98.287 132.185 119.224 176.985 14.057 30.194 23.36 50.127 23.384 72.481 0 26.172-13.166 46.355-29.143 68.138-2.994 4.092-5.966 8-8.847 11.794-17.394 22.857-21.212 29.465-18.697 41.255 5.098 23.704 43.109 94.268 105.577 156.601 62.47 62.328 130.995 97.939 154.791 103.015 12.298 2.629 19.042-1.345 42.628-19.359 3.385-2.585 6.856-5.256 10.494-7.933 24.367-18.125 43.609-30.949 69.165-30.949h0.137c22.241 0 41.283 9.645 72.827 25.556 41.141 20.754 135.106 76.777 176.32 118.356 20.047 20.207 31.223 33.096 36.684 47.567 8.231 21.782 0.483 38.854-4.569 50.284-0.849 1.896-1.785 3.979-2.764 6.286-9.62 22.801-21.324 44.671-34.948 65.327-24.298 36.342-48.918 64.478-90.015 83.613-21.104 9.982-44.198 15.038-67.541 14.789z"></path>
</svg>
