<!-- Generated by IcoMoon.io -->
<svg version="1.1" xmlns="http://www.w3.org/2000/svg" width="1024" height="1024" viewBox="0 0 1024 1024">
<title></title>
<g id="icomoon-ignore">
</g>
<path fill="#000" d="M853.329 512.001c9.425 0 17.067-7.641 17.067-17.067v-238.933h136.533c9.425 0 17.067-7.641 17.067-17.067v-68.267c-0.086-0.634-0.214-1.259-0.375-1.877-0.109-1.235-0.355-2.456-0.733-3.635-0.316-0.868-0.705-1.707-1.163-2.509-1.536-2.91-3.916-5.289-6.824-6.827-0.856-0.478-1.752-0.877-2.681-1.195-0.494-0.171-0.887-0.495-1.399-0.614l-648.532-153.6c-1.277-0.286-2.58-0.422-3.891-0.41h-68.267c-2.018 0.045-4.012 0.448-5.887 1.195-0.462 0.171-0.89 0.324-1.333 0.529s-0.783 0.256-1.158 0.461l-273.067 153.6c-0.843 0.563-1.63 1.203-2.355 1.911-0.561 0.399-1.097 0.832-1.604 1.297-1.429 1.455-2.583 3.155-3.413 5.018v0.205c-0.745 1.875-1.15 3.87-1.195 5.888 0 0.207-0.119 0.375-0.119 0.58v68.266c0 9.425 7.642 17.067 17.067 17.067h238.933v317.184l-63.266 63.265c-3.2 3.199-5.001 7.539-5.001 12.067v273.066h-34.133v102.4h341.332v-102.4h-34.133v-273.066c0-4.528-1.8-8.868-4.999-12.067l-63.267-63.265v-317.2h341.332v238.933c0 9.425 7.641 17.067 17.067 17.067h34.133v51.2c0 9.425 7.641 17.067 17.067 17.067 18.853 0 34.133 15.28 34.133 34.133 0 18.851-15.28 34.133-34.133 34.133s-34.133-15.283-34.133-34.133v-17.067h-34.133v17.067c0.086 24.915 13.783 47.789 35.703 59.631l-128.102 128.102h-44.134c-9.425 0-17.067 7.641-17.067 17.067v153.6c0 9.425 7.641 17.067 17.067 17.067h409.599c9.425 0 17.067-7.641 17.067-17.067v-153.6c0-9.425-7.641-17.067-17.067-17.067h-44.134l-128.102-128.102c33.057-17.818 45.409-59.057 27.593-92.114-9.027-16.744-24.653-28.943-43.090-33.633v-36.284h34.133zM870.396 187.735h119.467v34.133h-119.467v-34.133zM989.863 836.267v119.467h-375.466v-119.467h375.466zM914.53 802.134h-224.802l112.401-112.399 112.401 112.399zM836.263 409.601h-68.267v-153.6h68.267v153.6zM836.263 221.868h-68.267v-34.133h68.267v34.133zM307.197 34.135h34.133v119.467h-34.133v-119.467zM290.13 187.735h68.267v27.068l-7.066 7.066h-61.201v-34.133zM358.397 263.068v122.402l-61.201-61.201 61.201-61.201zM290.13 256.002h27.068l-27.068 27.068v-27.068zM290.13 365.469l61.201 61.199-61.201 61.201v-122.4zM358.397 467.869v122.4l-61.201-61.201 61.201-61.199zM290.13 580.268v-10.001l61.201 61.201-61.201 61.201v-112.401zM358.397 672.669v122.402l-61.201-61.203 61.201-61.199zM290.13 775.068l61.201 61.199-61.201 61.201v-122.4zM358.397 877.468v44.132h-44.134l44.134-44.132zM273.064 46.252v107.349h-190.857l190.857-107.349zM34.131 221.868v-34.133h221.867v34.133h-221.867zM221.865 655.602l34.133-34.133v300.131h-34.133v-265.998zM460.797 955.734v34.133h-273.066v-34.133h273.066zM426.664 655.602v265.998h-34.133v-300.131l34.133 34.133zM733.864 221.868h-341.332v-34.133h341.332v34.133zM375.464 153.601v-114.961l485.359 114.961h-485.359zM767.996 477.868v-34.133h68.267v34.133h-68.267z"></path>
</svg>
