<!-- Generated by IcoMoon.io -->
<svg version="1.1" xmlns="http://www.w3.org/2000/svg" width="1024" height="1024" viewBox="0 0 1024 1024">
<title></title>
<g id="icomoon-ignore">
</g>
<path d="M53.895 458.105c29.765 0 53.895 24.13 53.895 53.895v323.368h808.421v-323.368c0-29.765 24.129-53.895 53.895-53.895s53.895 24.13 53.895 53.895v377.263c0 29.766-24.129 53.895-53.895 53.895h-916.211c-29.765 0-53.895-24.129-53.895-53.895v-377.263c0-29.765 24.13-53.895 53.895-53.895z"></path>
<path d="M512 80.842c29.766 0 53.895 24.13 53.895 53.895v327.992l96.628-96.628c21.046-21.047 55.172-21.047 76.218 0s21.046 55.171 0 76.219l-188.632 188.631c-21.047 21.046-55.171 21.046-76.218 0l-188.632-188.631c-21.047-21.048-21.047-55.171 0-76.219s55.171-21.047 76.219 0l96.627 96.628v-327.992c0-29.765 24.13-53.895 53.895-53.895z"></path>
</svg>
