<!-- Generated by IcoMoon.io -->
<svg version="1.1" xmlns="http://www.w3.org/2000/svg" width="1024" height="1024" viewBox="0 0 1024 1024">
<title></title>
<g id="icomoon-ignore">
</g>
<path fill="none" stroke-linejoin="round" stroke-linecap="round" stroke-miterlimit="4" stroke-width="85.3333" stroke="#000" d="M512.028 672.009c88.367 0 160-71.633 160-160s-71.633-160-160-160c-88.364 0-159.998 71.634-159.998 160s71.635 160 159.998 160z"></path>
<path fill="none" stroke-linejoin="round" stroke-linecap="round" stroke-miterlimit="4" stroke-width="85.3333" stroke="#000" d="M724.358 831.975c-71.292 47.313-156.339 69.466-241.651 62.938-85.314-6.524-166.004-41.357-229.268-98.961-63.264-57.609-105.478-134.694-119.943-219.025s-0.355-171.075 40.093-246.473c40.448-75.398 104.917-135.128 183.178-169.714s165.829-42.046 248.812-21.196c82.982 20.849 156.629 68.814 209.246 136.283 52.621 67.469 81.199 150.579 81.207 236.14 0 88.367-32 160-112 160s-112-71.633-112-160v-159.999"></path>
</svg>
