<!-- Generated by IcoMoon.io -->
<svg version="1.1" xmlns="http://www.w3.org/2000/svg" width="1024" height="1024" viewBox="0 0 1024 1024">
<title></title>
<g id="icomoon-ignore">
</g>
<path fill="#000" d="M913.849 594.741l-139.626-31.937c25.915-25.883 41.97-61.641 41.97-101.071v-67.078h18.047c11.047 0 19.999-8.954 19.999-20.001v-76.538c0-8.774-5.663-16.22-13.537-18.907v-5.116c0-85.798-64.877-156.688-148.142-166.29-2.288-8.523-10.045-14.805-19.296-14.805-9.243 0-17 6.281-19.296 14.805-68.166 7.859-123.961 56.797-141.969 121.367-18.016-64.57-73.812-113.508-141.976-121.367-2.29-8.523-10.047-14.805-19.298-14.805-9.243 0-17 6.281-19.288 14.805-83.266 9.602-148.149 80.492-148.149 166.29v5.116c-7.867 2.687-13.531 10.134-13.531 18.907v76.538c0 11.047 8.953 20.001 20 20.001h18.047v67.078c0 39.43 16.054 75.188 41.97 101.071l-139.633 31.937c-64.844 14.836-110.141 71.657-110.141 138.189v178.070c0 11.047 8.953 20.001 20 20.001h983.999c11.047 0 20.001-8.954 20.001-20.001v-178.070c0-66.531-45.298-123.353-110.148-138.189zM185.376 826.998c-11.047 0-8.827 0-23.379 0v64h-40.047v-257.921l153.171-35.039v45.156c0 34.765 23.595 64.109 55.609 72.907v174.897h-128.734v-64c-14.414 0-5.574 0-16.621 0zM209.755 354.656v-36.54h281.952v36.54h-281.952zM814.239 354.656h-281.952v-36.54h281.952v36.54zM493.653 394.655h18.047c0.102 0 0.195-0.016 0.297-0.016 0.094 0.008 0.195 0.016 0.289 0.016h18.047v67.078c0 39.43 16.054 75.188 41.97 101.071l-60.314 13.795-60.303-13.795c25.913-25.883 41.968-61.641 41.968-101.071v-67.078zM689.247 675.031c-10.969-24.711-28.86-45.758-51.593-60.625v-14.242c11.389 2.937 23.319 4.491 35.609 4.491 12.288 0 24.226-1.563 35.609-4.491v43.031c0 13.664-7.858 25.905-19.624 31.836zM350.731 678.803c-19.632 0-35.609-15.976-35.609-35.609v-43.031c11.383 2.929 23.319 4.491 35.609 4.491s24.22-1.563 35.609-4.491v43.031c0 19.632-15.976 35.609-35.609 35.609zM370.732 716.101c32.006-8.798 55.609-38.142 55.609-72.907v-45.156l153.172 35.039v257.921h-208.781v-174.897zM619.513 650.5c25.805 18.625 41.945 48.787 41.945 82.43v158.069h-41.945v-240.499zM700.192 713.842c28.805-11 48.681-39.014 48.681-70.648v-45.156l153.172 35.039v257.921h-200.587v-158.069c0-6.47-0.436-12.837-1.266-19.087zM776.193 461.733c0 56.75-46.172 102.922-102.922 102.922-56.758 0-102.93-46.172-102.93-102.922v-67.078h205.853v67.078zM545.826 274.1c0-63.468 46.639-116.234 107.444-125.859v75.758c0 11.047 8.954 19.999 20.001 19.999 11.039 0 19.999-8.952 19.999-19.999v-75.758c60.797 9.625 107.438 62.391 107.438 125.859v4.024h-254.882v-4.024zM223.286 274.1c0-63.468 46.641-116.234 107.444-125.859v75.758c0 11.047 8.954 19.999 20.001 19.999s20.001-8.952 20.001-19.999v-75.758c60.797 9.625 107.436 62.391 107.436 125.859v4.024h-254.882v-4.024zM247.801 461.733v-67.078h205.853v67.078c0 56.75-46.172 102.922-102.922 102.922-56.758 0-102.93-46.172-102.93-102.922zM39.997 732.93c0-33.642 16.148-63.805 41.953-82.43v240.499h-41.953v-158.069zM983.998 890.998h-41.953v-240.499c25.805 18.625 41.953 48.787 41.953 82.43v158.069z"></path>
<path fill="#000" d="M849.606 765.632h-79.024v-39.999h79.024v39.999z"></path>
<path fill="#000" d="M196.138 738.859c-3.719-3.719-8.883-5.859-14.141-5.859s-10.422 2.14-14.141 5.859c-3.719 3.719-5.859 8.882-5.859 14.139 0 5.259 2.141 10.422 5.859 14.141s8.883 5.859 14.141 5.859c5.258 0 10.422-2.14 14.141-5.859s5.859-8.882 5.859-14.141c0-5.257-2.141-10.42-5.859-14.139z"></path>
<path fill="#000" d="M448.044 725.633h79.022v39.999h-79.022c-0.047-7.666 0-8.952 0-19.999v-20.001z"></path>
</svg>
