<!-- Generated by IcoMoon.io -->
<svg version="1.1" xmlns="http://www.w3.org/2000/svg" width="1024" height="1024" viewBox="0 0 1024 1024">
<title></title>
<g id="icomoon-ignore">
</g>
<path fill="#000" d="M247.467 786.448c-32.99 0-59.733 26.742-59.733 59.734s26.742 59.734 59.733 59.734c32.992 0 59.734-26.742 59.734-59.734s-26.742-59.734-59.734-59.734zM247.467 871.782c-14.141 0-25.6-11.459-25.6-25.6s11.459-25.6 25.6-25.6c14.143 0 25.6 11.459 25.6 25.6s-11.457 25.6-25.6 25.6z"></path>
<path fill="#000" d="M708.267 905.916c32.992 0 59.734-26.742 59.734-59.734s-26.742-59.734-59.734-59.734c-32.992 0-59.732 26.742-59.732 59.734s26.74 59.734 59.732 59.734zM708.267 820.582c14.143 0 25.6 11.459 25.6 25.6s-11.457 25.6-25.6 25.6c-14.141 0-25.6-11.459-25.6-25.6s11.459-25.6 25.6-25.6z"></path>
<path fill="#000" d="M836.267 846.182c0-36.226-15.348-70.758-42.241-95.025-26.893-24.275-62.808-36.018-98.851-32.308l-13.032-39.25-7.309-36.508 23.892-155.308 111.208-103.001c1.258-0.267 2.541-0.441 3.826-0.8l14.674-4.2 9.384 21.133c2.749 6.109 8.816 10.051 15.516 10.068h153.6c6.899 0 13.125-4.16 15.766-10.534 2.641-6.376 1.175-13.718-3.7-18.6l-64.634-64.649-51.882-253.726c-1.217-5.958-5.501-10.817-11.258-12.758-5.76-1.95-12.118-0.683-16.693 3.317l-83.866 73.392c-2.968 2.591-4.95 6.125-5.601 10.017l-16.807 100.042c-0.558 3.308-0.133 6.7 1.225 9.767l10.242 23.225-17.85 14.608c-5.692 4.724-10.4 10.524-13.859 17.066l-193.351 140.541c-4.666 3.393-7.307 8.917-7.015 14.684l9.591 188.6-9.092 72.209h-53.215c-9.427 0-17.068 7.641-17.068 17.066h-34.132v-51.2h68.266c9.425 0 17.066-7.641 17.066-17.066v-34.134c0-1.733-0.267-3.466-0.782-5.116l-85.334-273.068c-2.241-7.116-8.833-11.95-16.284-11.95v-34.132h-34.132v34.132h-102.4v-34.132h-34.134v34.132c-9.425 0-17.066 7.643-17.066 17.068v204.8h-68.267v-102.4c0-37.701-30.567-68.268-68.267-68.268h-17.067v34.134h17.067c18.85 0 34.133 15.283 34.133 34.134v102.4h-68.267v-17.068h17.067c9.425 0 17.067-7.641 17.067-17.066v-51.2c0-9.425-7.642-17.066-17.067-17.066h-68.267c-9.425 0-17.067 7.641-17.067 17.066v51.2c0 9.425 7.642 17.066 17.067 17.066h17.067v17.068h-17.067c-9.425 0-17.067 7.641-17.067 17.066v290.134c0 9.425 7.642 17.066 17.067 17.066h109.875c6.967 19.551 18.567 37.117 33.808 51.2h-160.75v34.134h1024v-34.134h-228.984c26.276-24.141 41.242-58.183 41.25-93.866v0zM34.134 496.314h34.133v17.068h-34.133v-17.068zM802.135 846.182c0 51.841-42.027 93.866-93.868 93.866s-93.866-42.025-93.866-93.866c0-51.841 42.025-93.868 93.866-93.868 51.818 0.068 93.8 42.052 93.868 93.868zM817.702 149.090l57.207-50.033 47.050 230.007c0.659 3.277 2.276 6.293 4.643 8.652l39.132 39.132h-101.308l-10.883-24.508-50.775-114.242 14.935-89.008zM783.568 311.482l10.599-8.667 20.167 45.4-10.033 2.867c-10.783 3.174-22.267-2.050-26.951-12.274-4.407-9.459-1.841-20.71 6.235-27.325h-0.017zM744.177 347.115c0.632 2.075 1.374 4.108 2.233 6.1 4.591 9.908 11.94 18.283 21.166 24.126l-96.517 89.399c-2.825 2.616-4.683 6.117-5.249 9.933l-17.684 115.384c-17.582-12.599-40.875-13.884-59.732-3.292l-6.3-123.898 162.084-117.75zM563.201 752.314c8.607 0 15.866-6.407 16.933-14.948l11.225-89.909v-0.292l1.401-11.193c1.374-11.223 10.692-19.79 21.991-20.215 11.301-0.425 21.234 7.415 23.442 18.507l10.65 53.092c0.118 0.701 0.301 1.383 0.543 2.050l12.516 37.55c-49.167 19.143-81.566 66.467-81.634 119.226 0 2.883 0.242 5.7 0.425 8.532h-68.691v-102.4h51.2zM477.867 769.382v51.2h-34.132v-51.2h34.132zM478.126 581.648h-136.791v-136.534h94.125l42.666 136.534zM256.001 598.714c9.425 0 17.066-7.641 17.066-17.066v-204.8h141.059l10.667 34.134h-100.526c-9.425 0-17.066 7.641-17.066 17.066v170.666c0 9.427 7.641 17.068 17.066 17.068h164.526l6.142 19.657v14.475h-307.201c-4.158 0-8.167 1.517-11.283 4.268l-114.617 100.982h-27.7v-156.45h221.867zM34.134 854.714v-65.416h34.133c4.158 0 8.167-1.517 11.283-4.266l114.651-100.984h215.399v170.666h-34.542c0.184-2.832 0.425-5.649 0.425-8.532 0-70.693-57.309-128-128-128s-128 57.307-128 128c0 2.883 0.242 5.7 0.425 8.532h-85.775zM153.601 846.182c0-51.841 42.025-93.868 93.866-93.868s93.868 42.027 93.868 93.868c0 51.841-42.027 93.866-93.868 93.866-51.816-0.066-93.799-42.050-93.866-93.866zM334.217 940.048c15.25-14.075 26.842-31.649 33.792-51.2h58.658c9.427 0 17.068-7.641 17.068-17.066v-17.068h34.132v17.068c0 9.425 7.641 17.066 17.068 17.066h92.792c6.957 19.551 18.565 37.117 33.807 51.2h-287.317z"></path>
<path fill="#000" d="M68.268 632.848h34.133v34.134h-34.133v-34.134z"></path>
</svg>
