<!-- Generated by IcoMoon.io -->
<svg version="1.1" xmlns="http://www.w3.org/2000/svg" width="1024" height="1024" viewBox="0 0 1024 1024">
<title></title>
<g id="icomoon-ignore">
</g>
<path fill="#000" d="M341.374 921.475c0 18.851-15.274 34.131-34.131 34.131-18.851 0-34.131-15.28-34.131-34.131 0-18.848 15.28-34.131 34.131-34.131 18.858 0 34.131 15.283 34.131 34.131z"></path>
<path fill="#000" d="M921.605 819.084h-119.46v-34.131h102.393c9.432 0 17.067-7.641 17.067-17.067v-136.524c0-4.526-1.793-8.868-4.999-12.067l-46.198-46.196v-27.065c0-28.274-22.915-51.198-51.195-51.198h-107.054l-17.265-64.353c-20.1-75.071-73.346-136.868-144.616-167.84l-373.478-163.523c-6.283-2.708-12.932-4.433-19.732-5.116l-1.058-36.831c-1.658-27.44-21.524-50.347-48.455-55.872-26.932-5.516-54.214 7.725-66.529 32.306l-26.39 52.614c-9.591 19.199-14.582 40.372-14.574 61.846-0.008 15.874 1.267 31.731 3.808 47.405l60.655 379.061-6.45 4.799c-38.673 28.997-60.371 75.346-57.88 123.626 2.5 48.271 28.857 92.135 70.321 116.993l23.207 13.824c2.641 1.566 5.666 2.383 8.733 2.373h85.328c6.3 0 12.083-3.466 15.057-9.016 2.967-5.55 2.642-12.283-0.858-17.524l-31.265-46.838v-182.607c-0.025-2.426-0.242-4.849-0.658-7.232l-9.116-334.213 271.466 147.049c23.575 12.807 42.132 33.198 52.665 57.872h-92.504c-5.7 0-11.025 2.849-14.19 7.591l-68.262 102.393c-1.868 2.808-2.867 6.108-2.876 9.475v204.786c0 9.425 7.641 17.067 17.067 17.067h102.393v34.131h-119.46c-56.545 0-102.393 45.846-102.393 102.393s45.848 102.393 102.393 102.393h614.364c56.554 0 102.393-45.846 102.393-102.393s-45.839-102.393-102.393-102.393v0zM443.767 853.215h401.724c-35.039 38.764-35.039 97.76 0 136.524h-462.129c35.039-38.764 35.039-97.76 0-136.524h60.405zM836.276 546.033v17.067h-153.591v-17.067c0-9.425 7.641-17.067 17.067-17.067h119.46c9.432 0 17.064 7.641 17.064 17.067zM125.602 564.324c0.708 0.332 1.4 0.708 2.058 1.133 1.075 0.558 2.083 1.24 3.008 2.025 0.658 0.608 1.267 1.265 1.825 1.966 1.267 1.534 2.275 3.265 2.983 5.115 0.275 0.926 0.458 1.875 0.567 2.833l0.133 4.733c-0.917 8.524-8.074 15.016-16.657 15.101-9.424 0-17.066-7.641-17.066-17.067 0-9.423 7.641-17.064 17.066-17.064 2.092 0.025 4.15 0.441 6.083 1.224zM107.154 802.017l-19.099-11.382c-30.84-18.507-50.78-50.822-53.488-86.678-2.717-35.856 12.133-70.804 39.839-93.735 1.95 1.566 4.233 2.683 6.666 3.275 13.524 16.166 35.764 22.064 55.513 14.723v139.667c0.008 3.366 1.008 6.667 2.875 9.475l16.432 24.656h-48.739zM134.885 531.476c-0.633-0.209-1.267-0.341-1.9-0.51-1.275-0.341-2.525-0.792-3.833-1.024-3.175-0.642-6.4-0.967-9.633-0.976-3.283 0.018-6.558 0.35-9.774 0.992-1.075 0.2-2.066 0.576-3.108 0.851-2.050 0.507-4.075 1.14-6.058 1.875-1.158 0.482-2.233 1.058-3.408 1.607-1.433 0.717-2.908 1.368-4.266 2.2l-55.297-346.462c-2.266-13.874-3.408-27.907-3.417-41.964 0-16.191 3.766-32.165 11.008-46.647l26.248-52.488c3.95-7.375 11.058-12.533 19.291-13.991 8.233-1.467 16.682 0.925 22.932 6.483 4.8 4.5 7.749 10.633 8.258 17.199l1.183 41.247c-22.357 10.383-36.939 32.473-37.698 57.105s12.441 47.581 34.106 59.321l6.833 3.633 8.533 311.548zM448.733 355.703l-312.931-169.432c-14.491-8.033-20.149-26.007-12.866-40.889 7.274-14.891 24.932-21.465 40.173-14.966l373.395 163.508c61.77 26.84 107.925 80.395 125.349 145.449l16.209 60.414c-17.959 8.399-29.457 26.415-29.507 46.246v17.067h-34.131v-102.395c0-9.423-7.632-17.064-17.067-17.064h-75.853c-12.056-37.581-38.154-69.063-72.854-87.871l0.084-0.066zM341.372 568.215l60.33-90.444h178.59v51.195h-34.131c-4.526 0-8.859 1.8-12.058 5.002l-102.393 102.393c-3.209 3.199-4.999 7.541-5.008 12.065v34.131h-85.329v-114.342zM580.292 563.1v119.458h-119.46v-27.063l92.394-92.394h27.065zM341.372 716.688h255.984c9.434 0 17.067-7.641 17.067-17.064v-102.393h231.861l41.19 41.197v112.394h-546.101v-34.133zM460.832 784.953h307.182v34.131h-307.182v-34.131zM238.979 921.477c0-37.697 30.565-68.262 68.262-68.262 37.706 0 68.262 30.565 68.262 68.262s-30.556 68.262-68.262 68.262c-37.697 0-68.262-30.565-68.262-68.262zM921.605 989.739c-37.699 0-68.262-30.565-68.262-68.262s30.563-68.262 68.262-68.262c37.706 0 68.262 30.565 68.262 68.262s-30.556 68.262-68.262 68.262z"></path>
<path fill="#000" d="M955.729 921.475c0 18.851-15.274 34.131-34.131 34.131-18.848 0-34.131-15.28-34.131-34.131 0-18.848 15.283-34.131 34.131-34.131 18.858 0 34.131 15.283 34.131 34.131z"></path>
<path fill="#000" d="M648.556 904.399h34.133v34.133h-34.133v-34.133z"></path>
<path fill="#000" d="M546.156 904.399h34.133v34.133h-34.133v-34.133z"></path>
<path fill="#000" d="M750.956 904.399h34.133v34.133h-34.133v-34.133z"></path>
<path fill="#000" d="M443.756 904.399h34.133v34.133h-34.133v-34.133z"></path>
<path fill="#000" d="M802.133 631.369h34.131v51.198h-34.131v-51.198z"></path>
<path fill="#000" d="M733.867 631.369h34.131v51.198h-34.131v-51.198z"></path>
</svg>
