<!-- Generated by IcoMoon.io -->
<svg version="1.1" xmlns="http://www.w3.org/2000/svg" width="1024" height="1024" viewBox="0 0 1024 1024">
<title></title>
<g id="icomoon-ignore">
</g>
<path fill="#000" d="M1009 993.995h-49.127v-206.177c9.817-8.631 16.031-21.27 16.031-35.339 0-25.953-21.115-47.063-47.063-47.063h-98.136l-15.153-242.454c-0.494-7.905-7.050-14.063-14.971-14.063h-64.13c-7.919 0-14.475 6.158-14.969 14.063l-15.155 242.454h-35.947l-15.153-242.454c-0.494-7.905-7.050-14.063-14.971-14.063h-64.127c-7.919 0-14.475 6.158-14.969 14.063l-15.155 242.454h-35.947l-15.153-242.454c-0.494-7.905-7.050-14.063-14.971-14.063h-64.127c-7.919 0-14.475 6.158-14.969 14.063l-15.155 242.454h-41.779l-9.293-418.204c-0.18-8.153-6.84-14.666-14.996-14.666h-96.193c-8.154 0-14.816 6.513-14.996 14.666l-10.718 482.334h-118.58c-25.952 0-47.064 21.115-47.064 47.063 0 14.070 6.214 26.708 16.032 35.342v142.045h-33.096c-8.284 0-15 6.717-15 15s6.716 15 15 15h994c8.285 0 15-6.717 15-15s-6.715-15-15-15zM196.278 833.675h-53.014c-8.284 0-15 6.715-15 15 0 8.283 6.716 15 15 15h52.348l-2.896 130.319h-114.62v-130.348c0.344 0.009 0.686 0.027 1.032 0.027 8.284 0 15-6.717 15-15s-6.716-15-15-15c-9.41 0-17.064-7.655-17.064-17.064s7.656-17.064 17.064-17.064h117.908l-0.758 34.131zM750.542 478.897h35.947l14.156 226.518h-64.259l14.156-226.518zM590.22 478.897h35.947l14.156 226.518h-64.259l14.156-226.518zM429.898 478.897h35.947l14.156 226.518h-64.262l14.159-226.518zM256.519 993.995h-33.793l15.363-691.453h66.854l8.954 402.873h-26.346c-25.953 0-47.068 21.113-47.068 47.063 0 14.070 6.215 26.708 16.036 35.339v206.177zM928.841 769.543h-32.065c-8.283 0-15 6.715-15 15 0 8.283 6.717 15 15 15h32.065c0.346 0 0.687-0.020 1.031-0.027v194.478h-643.356v-194.478c0.346 0.009 0.687 0.027 1.033 0.027h545.109c8.285 0 15-6.717 15-15 0-8.285-6.715-15-15-15h-545.109c-9.409 0-17.067-7.655-17.067-17.064 0-9.407 7.657-17.064 17.067-17.064h641.29c9.409 0 17.064 7.655 17.064 17.064s-7.655 17.064-17.062 17.064z"></path>
<path fill="#000" d="M832.63 0c-45.188 0-88.269 15.77-122.707 44.668-24.724-18.552-54.686-28.636-85.713-28.636-37.663 0-73.619 14.87-100.345 41.16-13.854-5.974-28.84-9.096-43.943-9.096-44.596 0-84.35 26.702-101.799 66.664-6.019-1.686-12.183-2.536-18.443-2.536-30.986 0-57.633 20.15-67.149 48.376-1.659-0.184-3.327-0.278-4.997-0.278-25.953 0-47.065 21.114-47.065 47.064 0.002 8.286 6.717 15.002 15 15.002 8.285 0 15-6.716 15-15 0-9.41 7.657-17.064 17.067-17.064 2.976 0 5.894 0.842 8.67 2.504 4.496 2.69 10.067 2.838 14.702 0.396 4.631-2.444 7.655-7.128 7.971-12.358 1.315-21.666 19.238-38.638 40.798-38.638 6.818 0 13.549 1.842 20 5.476 4.041 2.278 8.916 2.554 13.194 0.748s7.477-5.49 8.665-9.978c9.419-35.548 41.652-60.376 78.384-60.376 13.92 0 27.709 3.64 39.877 10.524 6.221 3.52 14.067 2.162 18.739-3.25 21.59-25 52.82-39.338 85.672-39.338 28.092 0 55.098 10.486 76.047 29.524 5.846 5.312 14.809 5.182 20.498-0.3 30.279-29.186 70.012-45.258 111.878-45.258 88.972 0 161.353 72.384 161.353 161.354s-72.381 161.355-161.353 161.355c-59.071 0-113.373-32.254-141.715-84.171-3.78-6.925-12.277-9.737-19.442-6.435-15.044 6.929-30.945 10.443-47.263 10.443-32.854 0-64.082-14.338-85.672-39.338-4.674-5.409-12.518-6.77-18.739-3.249-12.167 6.884-25.957 10.524-39.877 10.524-25.35 0-48.806-11.608-64.35-31.843-2.824-3.674-7.186-5.838-11.822-5.862-0.025 0-0.050 0-0.073 0-4.606 0-8.961 2.118-11.803 5.744-7.937 10.122-19.67 15.926-32.195 15.926-8.285 0-15 6.717-15 15 0 8.285 6.715 15 15 15 15.897 0 31.018-5.311 43.338-14.948 20.582 19.856 47.825 30.979 76.905 30.979 15.103 0 30.090-3.122 43.943-9.093 26.726 26.289 62.685 41.16 100.345 41.16 16.166 0 31.994-2.715 47.216-8.080 35.046 54.75 95.646 88.241 161.205 88.241 105.513 0 191.354-85.841 191.354-191.354s-85.841-191.354-191.354-191.354z"></path>
<path fill="#000" d="M383.734 833.677c-8.285 0-15 6.717-15 15v32.065c0 8.283 6.715 15 15 15 8.283 0 15-6.717 15-15v-32.065c0-8.283-6.717-15-15-15z"></path>
<path fill="#000" d="M447.888 833.677c-8.283 0-15 6.717-15 15v32.065c0 8.283 6.717 15 15 15 8.285 0 15-6.717 15-15v-32.065c0-8.283-6.715-15-15-15z"></path>
<path fill="#000" d="M512 833.677c-8.283 0-15 6.717-15 15v32.065c0 8.283 6.717 15 15 15s15-6.717 15-15v-32.065c0-8.283-6.717-15-15-15z"></path>
<path fill="#000" d="M576.112 833.677c-8.285 0-15 6.717-15 15v32.065c0 8.283 6.715 15 15 15 8.283 0 15-6.717 15-15v-32.065c0-8.283-6.715-15-15-15z"></path>
<path fill="#000" d="M640.266 833.677c-8.283 0-15 6.717-15 15v32.065c0 8.283 6.717 15 15 15 8.285 0 15-6.717 15-15v-32.065c0-8.283-6.715-15-15-15z"></path>
<path fill="#000" d="M704.378 833.677c-8.283 0-15 6.717-15 15v32.065c0 8.283 6.717 15 15 15s15-6.717 15-15v-32.065c0-8.283-6.717-15-15-15z"></path>
<path fill="#000" d="M768.512 833.677c-8.285 0-15 6.717-15 15v32.065c0 8.283 6.715 15 15 15 8.283 0 14.998-6.717 14.998-15v-32.065c0-8.283-6.715-15-14.998-15z"></path>
<path fill="#000" d="M832.644 833.677c-8.283 0-15 6.717-15 15v32.065c0 8.283 6.717 15 15 15 8.285 0 15-6.717 15-15v-32.065c0-8.283-6.715-15-15-15z"></path>
</svg>
