<!-- Generated by IcoMoon.io -->
<svg version="1.1" xmlns="http://www.w3.org/2000/svg" width="1024" height="1024" viewBox="0 0 1024 1024">
<title></title>
<g id="icomoon-ignore">
</g>
<path fill="#000" d="M187.733 776.533c-37.7 0-68.267 30.568-68.267 68.267s30.567 68.267 68.267 68.267c37.7 0 68.267-30.568 68.267-68.267s-30.567-68.267-68.267-68.267zM187.733 878.933c-18.85 0-34.133-15.283-34.133-34.133s15.283-34.133 34.133-34.133c18.85 0 34.133 15.283 34.133 34.133s-15.283 34.133-34.133 34.133z"></path>
<path fill="#000" d="M580.267 708.267c-56.55 0-102.4 45.85-102.4 102.4s45.85 102.4 102.4 102.4c56.55 0 102.4-45.85 102.4-102.4-0.059-56.534-45.866-102.341-102.4-102.4zM580.267 878.933c-37.699 0-68.267-30.568-68.267-68.267s30.568-68.267 68.267-68.267c37.699 0 68.267 30.568 68.267 68.267s-30.568 68.267-68.267 68.267z"></path>
<path fill="#000" d="M68.267 537.6h85.333v34.133h-85.333v-34.133z"></path>
<path fill="#000" d="M68.267 605.867h85.333v34.133h-85.333v-34.133z"></path>
<path fill="#000" d="M802.133 793.6h102.4c9.425 0 17.067-7.641 17.067-17.067v-221.867c0-9.425-7.641-17.067-17.067-17.067h-102.4c-9.425 0-17.067 7.641-17.067 17.067v221.867c0 9.425 7.641 17.067 17.067 17.067zM828.807 759.467l58.659-127.092v127.092h-58.659zM877.859 571.733l-58.659 127.092v-127.092h58.659z"></path>
<path fill="#000" d="M1024 981.333v-34.133h-341.775c28.699-21.383 49.983-51.225 60.842-85.333h280.933v-34.133h-34.133v-341.333c0-9.425-7.641-17.067-17.067-17.067h-221.867v-409.6c0-9.425-7.641-17.067-17.067-17.067h-68.267c-9.425 0-17.067 7.642-17.067 17.067v593.133l-206.725-396.215c-2.942-5.643-8.775-9.184-15.142-9.184h-290.133c-9.425 0-17.067 7.641-17.067 17.067v204.8h-51.2c-37.7 0-68.267 30.568-68.267 68.267v307.2c0 9.425 7.642 17.067 17.067 17.067h35.308c4.192 33.025 20.325 63.374 45.35 85.333h-97.725v34.133h1024zM277.741 947.2c25.027-21.959 41.16-52.308 45.352-85.333h94.374c10.859 34.108 32.142 63.95 60.842 85.333h-200.567zM221.867 674.133h187.733c2.317 0.009 4.599-0.466 6.724-1.384l95.676-41.008v22.608c-67.959 29.55-109.008 99.658-101.533 173.384h-87.375c-7.093-55.401-47.168-100.925-101.226-114.975v-38.625zM505.699 597.333l-80.35 34.425-11.467-218.057 91.816 183.633zM376.334 349.867l15.367 290.133h-169.834v-290.133h154.467zM580.267 947.2c-75.407 0-136.533-61.126-136.533-136.533s61.126-136.533 136.533-136.533c75.407 0 136.533 61.126 136.533 136.533-0.084 75.366-61.167 136.449-136.533 136.533zM955.733 503.467v324.267h-204.8v-324.267h204.8zM682.667 76.8h34.133v631.908c-9.817-13.107-21.468-24.758-34.575-34.575h0.441v-597.333zM34.133 537.6c0-18.851 15.283-34.133 34.133-34.133h68.267c9.425 0 17.067-7.641 17.067-17.067v-204.8h262.724l187.977 360.291c-19.326-2.983-39.026-2.467-58.168 1.525v-37.549h-0.166c0.057-2.633-0.501-5.25-1.625-7.625l-136.533-273.067c-0.842-1.609-1.925-3.074-3.227-4.342-0.407-0.375-0.833-0.742-1.283-1.074-0.915-0.767-1.907-1.434-2.965-1.991-0.551-0.3-1.126-0.56-1.709-0.785-1.049-0.398-2.141-0.692-3.259-0.858-0.651-0.132-1.299-0.225-1.966-0.275-0.266 0-0.526-0.116-0.801-0.116h-187.799c-9.425 0-17.067 7.641-17.067 17.067v375.467c-68.742 0.116-126.7 51.266-135.358 119.467h-18.242v-290.133zM85.333 844.8c0-56.55 45.85-102.4 102.4-102.4s102.4 45.85 102.4 102.4c0 56.55-45.85 102.4-102.4 102.4-56.533-0.059-102.342-45.866-102.4-102.4z"></path>
</svg>
