<!-- Generated by IcoMoon.io -->
<svg version="1.1" xmlns="http://www.w3.org/2000/svg" width="1024" height="1024" viewBox="0 0 1024 1024">
<title></title>
<g id="icomoon-ignore">
</g>
<path fill="#000" d="M962.281 1023.999c11.357 0 20.569-9.209 20.569-20.566v-883.61c0-26.409-41.135-26.446-41.135 0v369.611l-101.308-0.043v-27.034c12.918-6.943 21.725-20.582 21.725-36.25v-79.931c0-13.94-18.216-30.652-26.151-40.341-14.944-18.241-22.439-27.395-25.941-51.334l-0.105-0.699c-1.484-10.094-10.144-17.576-20.348-17.576h-247.603c-10.238 0-18.914 7.528-20.359 17.663-3.498 24.519-11.223 33.958-26.61 52.759-7.83 9.564-25.57 24.949-25.57 39.529v79.931c0 15.667 8.806 29.307 21.725 36.25v27.034l0.002 0.043h-101.31v-448.301h551.855v90.229c0 26.409 41.135 26.446 41.135 0v-110.796c0-11.357-9.211-20.567-20.569-20.567h-900.567c-11.357 0-20.567 9.21-20.567 20.567v982.867c0 11.357 9.21 20.566 20.567 20.566h900.567zM82.282 41.134h266.443v448.301h-40.148v-247.753c0-11.357-9.209-20.567-20.566-20.567h-145.018c-11.357 0-20.567 9.21-20.567 20.567v247.753h-40.143v-448.301zM267.444 489.435h-103.885v-227.185h103.885v227.185zM348.725 530.57v452.294h-40.148v-247.778c0-11.357-9.209-20.566-20.566-20.566h-145.018c-11.357 0-20.567 9.209-20.567 20.566v247.778h-40.143v-452.294h266.443zM163.56 982.839v-227.187h103.885v227.187h-103.885zM782.223 960.691h17.060l0.016 22.148h-17.076v-22.148zM511.737 919.556l-1.158-59.365h310.427l0.020 59.362-0.027 0.002h-309.262zM532.61 819.053c11.31-14.099 20.585-27.416 26.18-48.246h213.97c5.609 20.981 14.919 34.154 26.269 48.246h-266.42zM549.374 982.836l-0.027 0.002h-17.046v-22.15h17.060l0.014 22.148zM590.484 982.839v-22.15h150.605v22.15l0.002 0.025-150.608-0.025zM549.374 489.387l-0.027 0.002h-17.046v-22.15h17.060l0.014 22.148zM511.737 426.106l-1.158-59.365h310.427l0.020 59.362-0.027 0.002h-309.262zM782.223 467.241h17.060l0.016 22.148-0.027 0.002h-17.048v-22.15zM558.79 277.357h213.97c5.609 20.981 14.919 34.154 26.269 48.246h-266.42c11.31-14.097 20.585-27.416 26.18-48.246zM590.484 489.389v-22.15h150.605v22.15l0.002 0.046-150.608-0.046zM941.714 530.57v452.294l-101.308-0.025v-27.034c12.918-6.943 21.725-20.582 21.725-36.25v-79.933c0-14.964-17.975-30.354-26.151-40.339-14.944-18.243-22.439-27.398-25.941-51.334l-0.105-0.699c-1.484-10.094-10.144-17.576-20.348-17.576h-247.603c-10.238 0-18.914 7.528-20.359 17.663-3.498 24.519-11.223 33.958-26.61 52.759-7.83 9.564-25.57 24.949-25.57 39.526v79.933c0 15.667 8.806 29.307 21.725 36.25v27.034l0.002 0.025h-101.31v-452.294h551.855z"></path>
<path fill="#000" d="M180.871 621.997c3.348 0 6.693-0.821 9.72-2.444v54.074c0 26.408 41.134 26.444 41.134 0v-54.074c20.089 10.779 40.63-16.295 24.262-32.668l-30.285-30.288c-7.91-7.91-21.178-7.91-29.088 0l-30.287 30.288c-12.507 12.506-3.367 35.112 14.545 35.112z"></path>
<path fill="#000" d="M196.615 197.138c7.91 7.888 21.18 7.908 29.089 0l30.285-30.285c16.407-16.407-4.153-43.455-24.262-32.667v-54.072c0-26.408-41.135-26.445-41.135 0v54.074c-20.109-10.79-40.67 16.259-24.263 32.665l30.286 30.285z"></path>
</svg>
