<!-- Generated by IcoMoon.io -->
<svg version="1.1" xmlns="http://www.w3.org/2000/svg" width="1024" height="1024" viewBox="0 0 1024 1024">
<title></title>
<g id="icomoon-ignore">
</g>
<path fill="#000" d="M395.146 118.246c5.657-2.274 9.672-7.394 10.532-13.431s-1.567-12.074-6.364-15.836c-4.797-3.762-11.241-4.68-16.898-2.406-78.533 31.745-136.385 100.143-154.665 182.856-0.962 4.424-0.128 9.050 2.32 12.86 2.448 3.808 6.312 6.488 10.735 7.448 1.196 0.249 2.415 0.375 3.636 0.375 8.024 0 14.964-5.589 16.674-13.43 15.851-71.665 65.984-130.925 134.030-158.437z"></path>
<path fill="#000" d="M784.094 136.181c-7.421-9.143-15.352-17.86-23.755-26.11-8.41-8.476-17.25-16.512-26.485-24.080-13.793-10.642-32.963-10.878-47.017-0.579l-29.984 21.435c-26.86-16.247-56.024-28.33-86.503-35.837l-5.939-36.23c-2.747-17.349-16.689-30.76-34.13-32.834-11.739-1.25-23.537-1.899-35.343-1.946h-17.066c-126.336-0.061-241.195 73.301-294.263 187.952s-34.677 249.692 47.124 345.973c45.023 52.077 71.67 117.518 75.838 186.235-18.281 6.664-31.168 23.164-33.203 42.515-2.034 19.35 7.135 38.17 23.627 48.495-13.747 23.62-6.179 53.889 17.068 68.26-4.419 7.609-6.778 16.237-6.843 25.036 0 28.274 22.92 51.194 51.194 51.194h6.911c21.848 41.994 65.25 68.339 112.588 68.339s90.742-26.344 112.588-68.339h6.828c28.274 0 51.196-22.92 51.196-51.194-0.050-8.82-2.404-17.474-6.826-25.105 23.245-14.371 30.813-44.641 17.066-68.26 19.298-12.128 28.23-35.57 21.894-57.464-6.335-21.896-26.406-36.945-49.198-36.891h-67.188c0-0.187 0.104-0.359 0.137-0.562l5.939-36.23c30.478-7.512 59.641-19.595 86.503-35.838l29.899 21.4c14.288 10.441 33.796 10.027 47.63-1.007 10.016-8.432 18.277-15.922 25.973-23.62 8.806-8.839 16.809-17.628 24.045-26.485 10.65-13.809 10.914-32.986 0.647-47.083l-21.467-29.966c16.282-26.846 28.392-56.007 35.923-86.485l36.213-5.939c17.329-2.786 30.722-16.709 32.834-34.13 1.217-11.749 1.824-23.55 1.826-35.359-0.015-11.863-0.655-23.718-1.911-35.513-2.139-17.36-15.509-31.209-32.782-33.96l-36.23-5.922c-7.525-30.486-19.64-59.655-35.923-86.503l21.518-29.916c10.329-14.251 9.939-33.622-0.951-47.445zM494.938 255.981c42.678 0 82.115 22.77 103.455 59.73 21.338 36.961 21.338 82.496 0 119.456-21.34 36.961-60.775 59.728-103.455 59.728v-238.915zM494.938 529.027c54.873 0 105.576-29.273 133.012-76.794s27.437-106.069 0-153.59c-27.435-47.519-78.139-76.794-133.012-76.794v-51.197c73.164 0 140.767 39.032 177.349 102.393s36.582 141.424 0 204.785c-36.582 63.36-104.185 102.392-177.349 102.392v-51.194zM187.762 324.243c-0.014-153.604 119.707-280.598 273.046-289.634v682.138h-120.26c-4.906-75.612-34.337-147.562-83.825-204.937-44.542-52.344-68.99-118.838-68.961-187.566zM631.462 836.204c0 9.425-7.641 17.064-17.066 17.064h-273.047c-9.425 0-17.066-7.639-17.066-17.064s7.639-17.066 17.066-17.066h273.047c9.425 0 17.066 7.639 17.066 17.066zM477.872 989.793c-27.747-0.284-53.965-12.767-71.674-34.132h143.35c-17.711 21.365-43.926 33.848-71.676 34.132zM597.33 921.53h-238.915c-9.425 0-17.064-7.641-17.064-17.066 0-9.427 7.639-17.064 17.064-17.064h238.915c9.425 0 17.066 7.639 17.066 17.064s-7.641 17.066-17.066 17.066zM648.526 767.942c0 9.425-7.641 17.066-17.066 17.066h-307.175c-9.425 0-17.066-7.641-17.066-17.066 0-9.423 7.639-17.066 17.066-17.066h307.177c9.423 0 17.064 7.641 17.064 17.066zM768.634 318.474c1.434 6.921 6.984 12.24 13.959 13.382l47.595 7.798c2.127 0.276 3.858 1.849 4.336 3.941 2.276 21.1 2.276 42.384 0 63.484-0.452 2.168-2.199 3.826-4.386 4.166l-47.595 7.798c-6.969 1.146-12.512 6.465-13.944 13.38-7.083 34.294-20.611 66.933-39.865 96.181-3.87 5.897-3.715 13.567 0.392 19.301l28.311 39.505c1.237 1.671 1.337 3.924 0.257 5.7-6.244 7.63-13.465 15.565-21.469 23.585-6.979 6.963-14.539 13.839-23.225 21.179-1.884 1.412-4.49 1.356-6.314-0.137l-39.25-28.106c-5.732-4.1-13.391-4.256-19.284-0.392-29.255 19.261-61.898 32.805-96.196 39.915-6.915 1.434-12.236 6.975-13.382 13.944l-7.798 47.595c-0.267 2.129-1.834 3.868-3.926 4.351-10.601 1.113-21.253 1.683-31.912 1.708v-102.392c85.357 0 164.228-45.537 206.908-119.458 42.678-73.921 42.678-164.995 0-238.917-42.678-73.92-121.551-119.456-206.908-119.456v-102.396c10.576 0.030 21.141 0.6 31.657 1.707 2.181 0.411 3.849 2.183 4.129 4.385l7.798 47.595c1.148 6.973 6.474 12.517 13.397 13.943 34.292 7.094 66.929 20.628 96.181 39.882 5.893 3.863 13.554 3.706 19.284-0.393l39.25-28.175c1.691-1.365 4.057-1.515 5.904-0.376 8.269 6.801 16.185 14.017 23.722 21.622 7.491 7.344 14.56 15.103 21.177 23.242 1.233 1.885 1.115 4.348-0.29 6.109l-28.121 39.25c-4.1 5.732-4.256 13.393-0.394 19.284 19.311 29.267 32.886 61.935 40.002 96.268z"></path>
</svg>
