<!-- Generated by IcoMoon.io -->
<svg version="1.1" xmlns="http://www.w3.org/2000/svg" width="1024" height="1024" viewBox="0 0 1024 1024">
<title></title>
<g id="icomoon-ignore">
</g>
<path fill="#000" d="M512.112 249.517c-145.288 0-262.479 117.192-262.479 262.483 0 145.294 117.191 262.487 262.479 262.487 145.294 0 262.487-117.193 262.487-262.487 0-145.29-117.193-262.483-262.487-262.483zM512.112 682.651c-93.888 0-170.646-76.528-170.646-170.651 0-94.118 76.528-170.648 170.646-170.648 94.122 0 170.651 76.529 170.651 170.648 0 94.122-76.757 170.651-170.651 170.651v0zM846.556 238.781c0 34.038-27.414 61.224-61.22 61.224-34.041 0-61.226-27.414-61.226-61.224s27.414-61.224 61.226-61.224c33.808 0 61.22 27.414 61.22 61.224zM1020.403 300.918c-3.885-82.013-22.618-154.657-82.698-214.51-59.851-59.852-132.496-78.585-214.507-82.697-84.525-4.798-337.87-4.798-422.394 0-81.782 3.883-154.428 22.616-214.509 82.469s-78.585 132.498-82.696 214.51c-4.798 84.524-4.798 337.871 0 422.397 3.883 82.012 22.616 154.655 82.696 214.507 60.081 59.856 132.498 78.586 214.509 82.698 84.524 4.795 337.868 4.795 422.394 0 82.012-3.885 154.655-22.618 214.507-82.698 59.851-59.851 78.586-132.496 82.698-214.507 4.795-84.525 4.795-337.643 0-422.168v0zM911.208 813.777c-17.823 44.778-52.317 79.272-97.319 97.319-67.391 26.727-227.3 20.562-301.777 20.562-74.471 0-234.609 5.936-301.773-20.562-44.775-17.817-79.27-52.317-97.317-97.319-26.728-67.391-20.561-227.305-20.561-301.777s-5.939-234.612 20.561-301.775c17.819-44.776 52.313-79.27 97.317-97.318 67.392-26.728 227.302-20.56 301.773-20.56 74.477 0 234.615-5.94 301.777 20.56 44.773 17.819 79.267 52.314 97.319 97.318 26.727 67.392 20.557 227.303 20.557 301.775s6.17 234.615-20.557 301.777z"></path>
</svg>
