<!-- Generated by IcoMoon.io -->
<svg version="1.1" xmlns="http://www.w3.org/2000/svg" width="1024" height="1024" viewBox="0 0 1024 1024">
<title></title>
<g id="icomoon-ignore">
</g>
<path d="M1022.963 999.177l-122.052-320.647c-2.069-4.137-4.137-6.206-6.206-8.274s-6.206-2.069-10.343-2.069h-227.556l2.069-4.137c88.953-146.877 134.465-277.204 132.396-384.776 0-74.473-28.962-144.808-82.748-198.594-24.824-24.824-55.855-45.512-88.953-59.992s-70.336-20.687-107.572-20.687c-74.473 0-144.808 28.962-198.594 82.748s-82.748 124.122-82.748 198.594c0 107.572 43.443 235.831 132.396 384.776 0 2.069 2.069 2.069 2.069 4.137h-227.556c-4.137 0-6.206 0-10.343 2.069 0 0-2.069 4.137-2.069 6.206l-122.052 320.647c-2.069 2.069-2.069 6.206-2.069 8.274s2.069 6.206 2.069 8.274c2.069 2.069 4.137 4.137 6.206 6.206s6.206 2.069 8.274 2.069h988.833c2.069 0 6.206 0 8.274-2.069s4.137-4.137 6.206-6.206c2.069-2.069 2.069-4.137 2.069-8.274 0-2.069 0-6.206 0-8.274zM265.823 281.342c0-35.167 6.206-66.198 18.619-95.159 12.412-31.030 31.030-57.923 53.786-80.679s49.649-41.374 80.679-53.786c31.030-12.412 62.060-18.619 93.091-18.619s64.129 6.206 93.091 18.619c31.030 14.481 57.923 31.030 80.679 53.786s41.374 49.649 53.786 80.679c12.412 28.962 18.619 62.060 18.619 93.091 2.069 206.869-186.182 459.249-246.174 535.791-59.992-74.473-246.174-324.784-246.174-533.721zM389.945 701.285c33.099 51.717 70.336 103.435 109.641 151.015 2.069 2.069 4.137 4.137 6.206 4.137 4.137 2.069 10.343 2.069 14.481 0 2.069 0 4.137-2.069 6.206-4.137 39.305-47.58 76.542-99.297 109.641-151.015h237.9l18.619 47.58-465.455 165.495-163.426-213.075h126.19zM42.404 988.833l109.641-285.479h66.198l171.701 225.487-173.77 62.060h-173.77v-2.069zM319.609 988.833l382.708-136.534 105.503 136.534h-488.211zM851.263 988.833l-113.778-148.945 165.495-59.992 78.61 206.869h-130.328v2.069z"></path>
<path d="M619.569 208.937c-14.481-20.687-33.099-37.236-57.923-47.579-22.756-10.343-49.649-12.412-74.473-8.274s-47.58 16.549-66.198 35.167c-18.619 18.619-31.030 41.374-35.167 66.198s-2.069 51.717 8.274 74.473c10.343 22.756 26.893 43.443 47.58 57.923s45.512 20.687 72.405 20.687c35.167 0 66.198-12.412 91.022-37.236s37.236-55.855 37.236-91.022c-2.069-24.824-8.274-49.649-22.756-70.336zM511.997 374.432c-24.824 0-49.649-10.343-66.198-26.893-18.619-18.619-26.893-41.374-26.893-66.198 0-18.619 6.206-37.236 16.55-51.717 10.343-16.55 24.824-26.893 41.374-35.167 16.55-6.206 37.236-8.274 53.786-6.206 18.619 4.137 35.167 12.412 47.58 26.893 12.412 12.412 22.756 31.030 26.893 47.58 4.137 18.619 2.069 37.236-6.206 53.786-6.206 16.55-18.619 31.030-35.167 41.374s-33.099 16.55-51.717 16.55z"></path>
</svg>
