<!-- Generated by IcoMoon.io -->
<svg version="1.1" xmlns="http://www.w3.org/2000/svg" width="1024" height="1024" viewBox="0 0 1024 1024">
<title></title>
<g id="icomoon-ignore">
</g>
<path fill="#000" d="M512 0c-201.897 0-365.714 147.451-365.714 329.143 0 292.571 365.714 694.857 365.714 694.857s365.714-402.286 365.714-694.857c0-181.691-163.816-329.143-365.714-329.143zM512 512c-28.93 0-57.217-8.577-81.272-24.654-24.057-16.072-42.807-38.922-53.879-65.648-11.072-26.733-13.969-56.146-8.325-84.522s19.577-54.442 40.035-74.901c20.457-20.458 46.525-34.391 74.899-40.035 28.379-5.645 57.793-2.747 84.519 8.325 26.731 11.072 49.581 29.822 65.653 53.879 16.077 24.057 24.654 52.339 24.654 81.272-0.043 38.784-15.467 75.966-42.891 103.394-27.429 27.424-64.609 42.847-103.394 42.891z"></path>
</svg>
