<!-- Generated by IcoMoon.io -->
<svg version="1.1" xmlns="http://www.w3.org/2000/svg" width="1024" height="1024" viewBox="0 0 1024 1024">
<title></title>
<g id="icomoon-ignore">
</g>
<path fill="#000" d="M732.582 300.949c-0.071-0.18-0.116-0.357-0.196-0.53-19.169-45.379-51.83-83.764-93.555-109.95-0.3-0.146-0.535-0.384-0.842-0.512-77.021-48.396-174.952-48.394-251.972 0-0.307 0.128-0.535 0.362-0.833 0.506-41.729 26.188-74.395 64.574-93.569 109.958-0.073 0.171-0.121 0.346-0.191 0.521-12.12 29.029-18.352 60.177-18.336 91.634v187.717c-0.007 9.421 7.625 17.062 17.044 17.064 0.007 0 0.014 0 0.020 0h443.697c9.419 0.007 17.060-7.625 17.064-17.044 0-0.007 0-0.014 0-0.020v-187.717c0.020-31.457-6.215-62.601-18.332-91.628zM375.484 563.227h-68.26v-102.391h68.26v102.391zM375.484 426.705h-68.26v-34.131c0.048-23.27 4.089-46.358 11.944-68.26h56.315v102.391zM375.484 290.183h-40.555c10.829-18.625 24.515-35.435 40.555-49.814v49.814zM494.939 563.227h-85.327v-102.391h85.327v102.391zM494.939 426.705h-85.327v-102.391h85.327v102.391zM494.939 290.183h-85.327v-74.686c26.094-15.177 55.244-24.346 85.327-26.84v101.526zM614.394 563.227h-85.327v-102.391h85.327v102.391zM614.394 426.705h-85.327v-102.391h85.327v102.391zM614.394 290.183h-85.327v-101.526c30.083 2.494 59.233 11.663 85.327 26.84v74.686zM648.526 240.369c16.040 14.382 29.728 31.189 40.555 49.814h-40.555v-49.814zM716.788 563.227h-68.262v-102.391h68.262v102.391zM716.788 426.705h-68.262v-102.391h56.315c7.857 21.902 11.897 44.992 11.947 68.26v34.131z"></path>
<path fill="#000" d="M989.832 512.043h-51.195v-54.343c26.606-9.355 40.594-38.509 31.239-65.115-7.207-20.494-26.583-34.186-48.303-34.131h-85.329v-72.506c10.049-4.005 18.557-11.105 24.298-20.268 9.318-14.934 10.158-33.653 2.216-49.363-97.407-193.72-333.412-271.793-527.132-174.385-75.344 37.885-136.486 99.026-174.375 174.367-7.941 15.716-7.102 34.437 2.216 49.381 5.741 9.164 14.251 16.263 24.298 20.271v72.504h-85.327c-28.204-0.068-51.126 22.74-51.196 50.943-0.054 21.722 13.639 41.101 34.129 48.303v54.343h-51.196c-18.84 0.023-34.105 15.289-34.131 34.131v460.761c-0.006 9.419 7.625 17.060 17.045 17.064 0.006 0 0.014 0 0.020 0h989.783c9.419 0.007 17.060-7.625 17.064-17.044 0-0.007 0-0.016 0-0.020v-460.761c-0.020-18.842-15.287-34.108-34.124-34.131zM85.372 989.869h-51.196v-443.697h51.196v443.697zM191.748 231.649c88.928-176.87 304.402-248.16 481.272-159.232 68.811 34.597 124.648 90.436 159.241 159.247 2.594 5.134 2.303 11.253-0.767 16.115-5.678 8.117-16.86 10.094-24.979 4.417-1.866-1.308-3.468-2.958-4.72-4.867-80.141-160.046-274.851-224.824-434.9-144.683-62.587 31.339-113.345 82.099-144.685 144.685-2.922 5.457-8.643 8.827-14.833 8.734h-0.134c-6.021 0.005-11.607-3.138-14.733-8.283-3.070-4.872-3.36-10.995-0.764-16.134zM187.764 989.869h-68.26v-529.021h68.26v529.021zM204.828 426.717h-102.391c-9.425 0-17.065-7.641-17.065-17.064s7.639-17.067 17.065-17.067h102.391c9.425 0 17.065 7.641 17.065 17.067s-7.639 17.064-17.065 17.064zM392.546 989.869h-102.391v-255.98h102.391v255.98zM597.33 989.869h-170.653v-204.784h170.653v204.784zM733.852 989.869h-102.391v-255.98h102.391v255.98zM802.112 989.869h-34.131v-255.98c-0.023-18.839-15.289-34.104-34.131-34.131h-102.391c-18.842 0.025-34.106 15.292-34.131 34.131v17.064h-170.653v-17.064c-0.023-18.839-15.289-34.104-34.131-34.131h-102.391c-18.839 0.025-34.104 15.292-34.131 34.131v255.98h-34.131v-324.239h580.219v324.239h0.002zM802.112 631.499h-580.217v-173.798c26.538-9.255 40.548-38.273 31.291-64.81-5.111-14.657-16.634-26.18-31.291-31.291v-73.475c13.376-3.809 24.549-13.043 30.814-25.461 71.669-143.205 245.858-201.196 389.063-129.526 56.038 28.046 101.481 73.49 129.527 129.526 6.267 12.415 17.44 21.641 30.813 25.441v73.496c-26.538 9.255-40.548 38.268-31.293 64.806 5.113 14.659 16.634 26.183 31.293 31.293v173.8zM904.505 989.869h-68.262v-529.023h68.262v529.023zM921.569 426.717h-102.393c-9.425 0-17.064-7.641-17.064-17.064s7.639-17.067 17.064-17.067h102.393c9.421 0.007 17.058 7.644 17.064 17.067-0.005 9.421-7.641 17.058-17.064 17.064zM989.832 989.869h-51.195v-443.697h51.195v443.697z"></path>
</svg>
