<!-- Generated by IcoMoon.io -->
<svg version="1.1" xmlns="http://www.w3.org/2000/svg" width="1024" height="1024" viewBox="0 0 1024 1024">
<title></title>
<g id="icomoon-ignore">
</g>
<path fill="#000" d="M729.352 910.261c-3.879 0-7.6-1.364-10.343-3.792s-4.284-5.722-4.284-9.156v-687.794l-185.402-68.842-155.693 54.211v702.425c0 3.434-1.542 6.728-4.286 9.156-2.742 2.428-6.464 3.792-10.343 3.792s-7.602-1.364-10.343-3.792c-2.744-2.428-4.286-5.722-4.286-9.156v-711.255c0-2.601 0.884-5.143 2.538-7.293s4.002-3.809 6.738-4.761l170.496-59.364c3.547-1.237 7.5-1.2 11.015 0.104l199.855 74.228c2.658 0.987 4.925 2.646 6.521 4.77 1.594 2.123 2.446 4.617 2.446 7.168v696.404c0 3.434-1.542 6.728-4.284 9.156-2.744 2.428-6.465 3.792-10.345 3.792z"></path>
<path fill="#000" d="M529.499 910.261c-3.879 0-7.602-1.364-10.343-3.792-2.744-2.428-4.286-5.722-4.286-9.156v-770.628c0-3.434 1.542-6.727 4.286-9.156 2.742-2.428 6.464-3.792 10.343-3.792s7.6 1.364 10.343 3.792c2.744 2.428 4.286 5.722 4.286 9.156v770.628c0 3.434-1.542 6.728-4.286 9.156s-6.464 3.792-10.343 3.792z"></path>
<path fill="#000" d="M965.528 910.251c-3.879 0-7.6-1.364-10.343-3.792s-4.284-5.722-4.284-9.157v-406.985l-143.039-73.667h-78.511c-3.879 0-7.602-1.364-10.345-3.792s-4.284-5.722-4.284-9.156c0-3.436 1.54-6.729 4.284-9.157s6.465-3.792 10.345-3.792h82.46c2.57 0.008 5.093 0.614 7.314 1.76l153.733 79.171c2.22 1.134 4.064 2.764 5.347 4.728s1.962 4.192 1.966 6.46v414.366c0.010 1.708-0.362 3.4-1.092 4.978-0.732 1.58-1.81 3.015-3.172 4.226-1.36 1.208-2.978 2.168-4.76 2.822-1.78 0.654-3.69 0.99-5.62 0.988z"></path>
<path fill="#000" d="M811.805 910.251c-3.879 0-7.6-1.364-10.343-3.792s-4.286-5.722-4.286-9.157v-493.599c0-3.436 1.542-6.729 4.286-9.157s6.464-3.792 10.343-3.792c3.879 0 7.602 1.364 10.343 3.792 2.744 2.428 4.286 5.722 4.286 9.157v493.599c0 3.436-1.542 6.729-4.286 9.157-2.742 2.428-6.464 3.792-10.343 3.792z"></path>
<path fill="#000" d="M58.532 910.251c-3.879 0-7.6-1.364-10.344-3.792-2.744-2.43-4.285-5.724-4.285-9.157v-403.313c0-3.434 1.541-6.728 4.285-9.156 2.744-2.43 6.464-3.794 10.344-3.794h300.484c3.879 0 7.602 1.364 10.345 3.794 2.742 2.428 4.284 5.722 4.284 9.156 0 3.436-1.542 6.729-4.284 9.157-2.744 2.428-6.465 3.792-10.345 3.792h-285.855v390.364c0 3.434-1.541 6.728-4.285 9.157-2.744 2.428-6.464 3.792-10.344 3.792z"></path>
<path fill="#000" d="M139.048 556.583h-31.086c-3.879 0-7.601-1.36-10.344-3.779s-4.285-5.7-4.285-9.121c0-3.42 1.541-6.702 4.285-9.121s6.464-3.778 10.344-3.778h31.086c3.879 0 7.6 1.36 10.344 3.778 2.744 2.42 4.285 5.702 4.285 9.121 0 3.422-1.541 6.703-4.285 9.121-2.744 2.42-6.464 3.779-10.344 3.779z"></path>
<path fill="#000" d="M224.312 556.583h-31.101c-3.879 0-7.6-1.36-10.344-3.779s-4.285-5.7-4.285-9.121c0-3.42 1.541-6.702 4.285-9.121s6.464-3.778 10.344-3.778h31.101c3.879 0 7.6 1.36 10.343 3.778 2.744 2.42 4.286 5.702 4.286 9.121 0 3.422-1.542 6.703-4.286 9.121-2.744 2.42-6.464 3.779-10.343 3.779z"></path>
<path fill="#000" d="M309.545 556.583h-31.086c-3.879 0-7.6-1.36-10.343-3.779-2.744-2.418-4.284-5.7-4.284-9.121s1.54-6.702 4.284-9.121c2.744-2.418 6.464-3.778 10.343-3.778h31.086c3.879 0 7.6 1.36 10.343 3.778 2.744 2.42 4.286 5.702 4.286 9.121 0 3.422-1.542 6.703-4.286 9.121-2.744 2.42-6.464 3.779-10.343 3.779z"></path>
<path fill="#000" d="M139.048 617.369h-31.086c-3.879 0-7.601-1.356-10.344-3.768-2.744-2.414-4.285-5.686-4.285-9.097s1.541-6.686 4.285-9.097c2.744-2.412 6.464-3.768 10.344-3.768h31.086c3.879 0 7.6 1.356 10.344 3.768s4.285 5.686 4.285 9.097c0 3.412-1.541 6.684-4.285 9.097s-6.464 3.768-10.344 3.768z"></path>
<path fill="#000" d="M224.312 617.369h-31.101c-3.879 0-7.6-1.356-10.344-3.768-2.744-2.414-4.285-5.686-4.285-9.097s1.541-6.686 4.285-9.097c2.744-2.412 6.464-3.768 10.344-3.768h31.101c3.879 0 7.6 1.356 10.343 3.768s4.286 5.686 4.286 9.097c0 3.412-1.542 6.684-4.286 9.097s-6.464 3.768-10.343 3.768z"></path>
<path fill="#000" d="M309.545 617.369h-31.086c-3.879 0-7.6-1.356-10.343-3.768-2.744-2.414-4.284-5.686-4.284-9.097s1.54-6.686 4.284-9.097c2.744-2.412 6.464-3.768 10.343-3.768h31.086c3.879 0 7.6 1.356 10.343 3.768s4.286 5.686 4.286 9.097c0 3.412-1.542 6.684-4.286 9.097s-6.464 3.768-10.343 3.768z"></path>
<path fill="#000" d="M139.048 678.069h-31.086c-3.879 0-7.601-1.356-10.344-3.765-2.744-2.412-4.285-5.682-4.285-9.092 0-3.408 1.541-6.679 4.285-9.089 2.744-2.412 6.464-3.765 10.344-3.765h31.086c3.879 0 7.6 1.354 10.344 3.765s4.285 5.682 4.285 9.089c0 3.41-1.541 6.679-4.285 9.092-2.744 2.41-6.464 3.765-10.344 3.765z"></path>
<path fill="#000" d="M224.312 678.069h-31.101c-3.879 0-7.6-1.356-10.344-3.765-2.744-2.412-4.285-5.682-4.285-9.092 0-3.408 1.541-6.679 4.285-9.089 2.744-2.412 6.464-3.765 10.344-3.765h31.101c3.879 0 7.6 1.354 10.343 3.765 2.744 2.41 4.286 5.682 4.286 9.089 0 3.41-1.542 6.679-4.286 9.092-2.744 2.41-6.464 3.765-10.343 3.765z"></path>
<path fill="#000" d="M309.545 678.069h-31.086c-3.879 0-7.6-1.356-10.343-3.765-2.744-2.412-4.284-5.682-4.284-9.092 0-3.408 1.54-6.679 4.284-9.089 2.744-2.412 6.464-3.765 10.343-3.765h31.086c3.879 0 7.6 1.354 10.343 3.765 2.744 2.41 4.286 5.682 4.286 9.089 0 3.41-1.542 6.679-4.286 9.092-2.744 2.41-6.464 3.765-10.343 3.765z"></path>
<path fill="#000" d="M139.048 738.954h-31.086c-3.879 0-7.601-1.362-10.344-3.788-2.744-2.424-4.285-5.711-4.285-9.142 0-3.428 1.541-6.718 4.285-9.142 2.744-2.426 6.464-3.788 10.344-3.788h31.086c3.879 0 7.6 1.362 10.344 3.788 2.744 2.424 4.285 5.714 4.285 9.142s-1.541 6.718-4.285 9.142c-2.744 2.426-6.464 3.788-10.344 3.788z"></path>
<path fill="#000" d="M224.312 738.954h-31.101c-3.879 0-7.6-1.362-10.344-3.788-2.744-2.424-4.285-5.711-4.285-9.142 0-3.428 1.541-6.718 4.285-9.142 2.744-2.426 6.464-3.788 10.344-3.788h31.101c3.879 0 7.6 1.362 10.343 3.788 2.744 2.424 4.286 5.714 4.286 9.142s-1.542 6.718-4.286 9.142c-2.744 2.426-6.464 3.788-10.343 3.788z"></path>
<path fill="#000" d="M309.545 738.954h-31.086c-3.879 0-7.6-1.362-10.343-3.788-2.744-2.424-4.284-5.711-4.284-9.142 0-3.428 1.54-6.718 4.284-9.142 2.744-2.426 6.464-3.788 10.343-3.788h31.086c3.879 0 7.6 1.362 10.343 3.788 2.744 2.424 4.286 5.714 4.286 9.142s-1.542 6.718-4.286 9.142c-2.744 2.426-6.464 3.788-10.343 3.788z"></path>
<path fill="#000" d="M139.048 799.624h-31.086c-3.879 0-7.601-1.36-10.344-3.778-2.744-2.42-4.285-5.702-4.285-9.121 0-3.422 1.541-6.703 4.285-9.121 2.744-2.42 6.464-3.779 10.344-3.779h31.086c3.879 0 7.6 1.36 10.344 3.779s4.285 5.7 4.285 9.121c0 3.42-1.541 6.702-4.285 9.121s-6.464 3.778-10.344 3.778z"></path>
<path fill="#000" d="M224.312 799.624h-31.101c-3.879 0-7.6-1.36-10.344-3.778-2.744-2.42-4.285-5.702-4.285-9.121 0-3.422 1.541-6.703 4.285-9.121 2.744-2.42 6.464-3.779 10.344-3.779h31.101c3.879 0 7.6 1.36 10.343 3.779 2.744 2.418 4.286 5.7 4.286 9.121s-1.542 6.702-4.286 9.121c-2.744 2.418-6.464 3.778-10.343 3.778z"></path>
<path fill="#000" d="M309.545 799.624h-31.086c-3.879 0-7.6-1.36-10.343-3.778-2.744-2.42-4.284-5.702-4.284-9.121 0-3.422 1.54-6.703 4.284-9.121 2.744-2.42 6.464-3.779 10.343-3.779h31.086c3.879 0 7.6 1.36 10.343 3.779 2.744 2.418 4.286 5.7 4.286 9.121s-1.542 6.702-4.286 9.121c-2.744 2.418-6.464 3.778-10.343 3.778z"></path>
<path fill="#000" d="M139.048 860.382h-31.086c-3.879 0-7.601-1.358-10.344-3.774-2.744-2.414-4.285-5.692-4.285-9.107s1.541-6.692 4.285-9.107c2.744-2.415 6.464-3.772 10.344-3.772h31.086c3.879 0 7.6 1.356 10.344 3.772s4.285 5.692 4.285 9.107c0 3.415-1.541 6.693-4.285 9.107s-6.464 3.774-10.344 3.774z"></path>
<path fill="#000" d="M224.312 860.382h-31.101c-3.879 0-7.6-1.358-10.344-3.774-2.744-2.414-4.285-5.692-4.285-9.107s1.541-6.692 4.285-9.107c2.744-2.415 6.464-3.772 10.344-3.772h31.101c3.879 0 7.6 1.356 10.343 3.772s4.286 5.692 4.286 9.107c0 3.415-1.542 6.693-4.286 9.107s-6.464 3.774-10.343 3.774z"></path>
<path fill="#000" d="M309.545 860.382h-31.086c-3.879 0-7.6-1.358-10.343-3.774-2.744-2.414-4.284-5.692-4.284-9.107s1.54-6.692 4.284-9.107c2.744-2.415 6.464-3.772 10.343-3.772h31.086c3.879 0 7.6 1.356 10.343 3.772s4.286 5.692 4.286 9.107c0 3.415-1.542 6.693-4.286 9.107s-6.464 3.774-10.343 3.774z"></path>
<path fill="#000" d="M477.92 253.467c-3.879 0-7.602-1.367-10.343-3.801-2.744-2.433-4.286-5.734-4.286-9.175v-24.485c0-3.441 1.542-6.742 4.286-9.175 2.742-2.433 6.464-3.801 10.343-3.801s7.6 1.367 10.343 3.801c2.744 2.433 4.286 5.734 4.286 9.175v24.485c0 3.441-1.542 6.742-4.286 9.175s-6.464 3.801-10.343 3.801z"></path>
<path fill="#000" d="M411.245 268.543c-3.879 0-7.6-1.366-10.343-3.796s-4.286-5.727-4.286-9.164v-24.456c0-3.437 1.542-6.734 4.286-9.164s6.464-3.796 10.343-3.796c3.879 0 7.602 1.366 10.343 3.796 2.744 2.43 4.286 5.727 4.286 9.164v24.456c0 3.437-1.542 6.734-4.286 9.164-2.742 2.43-6.464 3.796-10.343 3.796z"></path>
<path fill="#000" d="M477.92 350.862c-3.879 0-7.602-1.366-10.343-3.797-2.744-2.434-4.286-5.732-4.286-9.171v-24.477c0-3.44 1.542-6.739 4.286-9.171 2.742-2.433 6.464-3.799 10.343-3.799s7.6 1.366 10.343 3.799c2.744 2.433 4.286 5.732 4.286 9.171v24.477c0 3.44-1.542 6.738-4.286 9.171s-6.464 3.797-10.343 3.797z"></path>
<path fill="#000" d="M411.245 365.939c-3.879 0-7.6-1.366-10.343-3.8s-4.286-5.734-4.286-9.175v-24.484c0-3.442 1.542-6.742 4.286-9.175s6.464-3.8 10.343-3.8c3.879 0 7.602 1.366 10.343 3.8 2.744 2.434 4.286 5.734 4.286 9.175v24.484c0 3.442-1.542 6.742-4.286 9.175-2.742 2.434-6.464 3.8-10.343 3.8z"></path>
<path fill="#000" d="M477.92 448.318c-3.879 0-7.602-1.368-10.343-3.802-2.744-2.434-4.286-5.734-4.286-9.175v-24.541c0-3.442 1.542-6.743 4.286-9.178 2.742-2.434 6.464-3.8 10.343-3.8s7.6 1.366 10.343 3.8c2.744 2.434 4.286 5.736 4.286 9.178v24.541c0 3.442-1.542 6.742-4.286 9.175s-6.464 3.802-10.343 3.802z"></path>
<path fill="#000" d="M411.245 463.345c-3.879 0-7.6-1.366-10.343-3.797s-4.286-5.729-4.286-9.17v-24.47c0-3.44 1.542-6.738 4.286-9.17s6.464-3.8 10.343-3.8c3.879 0 7.602 1.368 10.343 3.8 2.744 2.432 4.286 5.729 4.286 9.17v24.47c0 3.44-1.542 6.738-4.286 9.17-2.742 2.432-6.464 3.797-10.343 3.797z"></path>
<path fill="#000" d="M477.92 545.626c-3.879 0-7.602-1.366-10.343-3.797-2.744-2.432-4.286-5.732-4.286-9.17v-24.473c0-3.438 1.542-6.738 4.286-9.17 2.742-2.432 6.464-3.797 10.343-3.797s7.6 1.366 10.343 3.797c2.744 2.432 4.286 5.732 4.286 9.17v24.473c0 3.438-1.542 6.738-4.286 9.17s-6.464 3.797-10.343 3.797z"></path>
<path fill="#000" d="M411.245 560.655c-3.879 0-7.6-1.37-10.343-3.806s-4.286-5.739-4.286-9.185v-24.514c0-3.444 1.542-6.75 4.286-9.185s6.464-3.804 10.343-3.804c3.879 0 7.602 1.368 10.343 3.804 2.744 2.436 4.286 5.742 4.286 9.185v24.514c0 3.446-1.542 6.75-4.286 9.185-2.742 2.436-6.464 3.806-10.343 3.806z"></path>
<path fill="#000" d="M477.92 643.071c-3.879 0-7.602-1.368-10.343-3.8-2.744-2.432-4.286-5.732-4.286-9.171v-24.477c0-3.44 1.542-6.738 4.286-9.171 2.742-2.432 6.464-3.797 10.343-3.797s7.6 1.366 10.343 3.797c2.744 2.434 4.286 5.732 4.286 9.171v24.477c0 3.44-1.542 6.739-4.286 9.171s-6.464 3.8-10.343 3.8z"></path>
<path fill="#000" d="M411.245 658.020c-3.879 0-7.6-1.366-10.343-3.796s-4.286-5.725-4.286-9.163v-24.428c0-3.438 1.542-6.734 4.286-9.165s6.464-3.796 10.343-3.796 7.602 1.366 10.343 3.796c2.744 2.432 4.286 5.728 4.286 9.165v24.428c0 3.438-1.542 6.734-4.286 9.163-2.742 2.43-6.464 3.796-10.343 3.796z"></path>
<path fill="#000" d="M477.92 740.428c-3.879 0-7.602-1.366-10.343-3.796-2.744-2.43-4.286-5.728-4.286-9.163v-24.456c0-3.438 1.542-6.736 4.286-9.165 2.742-2.43 6.464-3.796 10.343-3.796s7.6 1.366 10.343 3.796c2.744 2.43 4.286 5.728 4.286 9.165v24.456c0 3.436-1.542 6.734-4.286 9.163s-6.464 3.796-10.343 3.796z"></path>
<path fill="#000" d="M411.245 755.417c-3.879 0-7.6-1.366-10.343-3.796-2.744-2.432-4.286-5.728-4.286-9.167v-24.46c0-3.438 1.542-6.736 4.286-9.165 2.744-2.432 6.464-3.797 10.343-3.797s7.602 1.366 10.343 3.797c2.744 2.43 4.286 5.728 4.286 9.165v24.46c0 3.44-1.542 6.736-4.286 9.167-2.742 2.43-6.464 3.796-10.343 3.796z"></path>
<path fill="#000" d="M477.92 837.815c-3.879 0-7.602-1.366-10.343-3.797-2.744-2.43-4.286-5.728-4.286-9.165v-24.395c0-3.438 1.542-6.736 4.286-9.165 2.742-2.432 6.464-3.797 10.343-3.797s7.6 1.366 10.343 3.797c2.744 2.43 4.286 5.728 4.286 9.165v24.459c-0.020 3.428-1.57 6.707-4.311 9.125-2.74 2.415-6.45 3.774-10.317 3.774z"></path>
<path fill="#000" d="M411.245 852.921c-3.879 0-7.6-1.364-10.343-3.796-2.744-2.43-4.286-5.725-4.286-9.163v-24.469c0-3.436 1.542-6.734 4.286-9.163s6.464-3.796 10.343-3.796c3.879 0 7.602 1.366 10.343 3.796 2.744 2.43 4.286 5.728 4.286 9.163v24.456c0.002 1.702-0.376 3.388-1.11 4.961s-1.812 3.004-3.17 4.21c-1.358 1.204-2.972 2.16-4.747 2.812s-3.679 0.988-5.602 0.988z"></path>
<path fill="#000" d="M578.89 241.124c-3.879 0-7.6-1.367-10.343-3.801s-4.286-5.735-4.286-9.177v-24.462c0-3.442 1.542-6.743 4.286-9.177s6.464-3.801 10.343-3.801c3.879 0 7.602 1.367 10.345 3.801 2.742 2.434 4.284 5.735 4.284 9.177v24.462c0 3.442-1.542 6.743-4.284 9.177-2.744 2.433-6.465 3.801-10.345 3.801z"></path>
<path fill="#000" d="M628.263 257.645c-3.879 0-7.602-1.366-10.345-3.798s-4.284-5.731-4.284-9.171v-24.459c0-3.44 1.542-6.739 4.284-9.171 2.744-2.432 6.465-3.798 10.345-3.798s7.6 1.366 10.343 3.798c2.744 2.432 4.284 5.731 4.284 9.171v24.472c-0.002 3.437-1.546 6.732-4.29 9.162-2.742 2.43-6.461 3.794-10.338 3.794z"></path>
<path fill="#000" d="M677.654 274.168c-3.879 0-7.602-1.366-10.343-3.798-2.744-2.432-4.286-5.731-4.286-9.171v-24.459c0-3.44 1.542-6.738 4.286-9.171 2.742-2.432 6.464-3.798 10.343-3.798s7.6 1.366 10.343 3.798c2.744 2.432 4.286 5.731 4.286 9.171v24.472c-0.004 3.437-1.548 6.732-4.29 9.162-2.744 2.43-6.461 3.794-10.339 3.794z"></path>
<path fill="#000" d="M578.89 338.304c-3.879 0-7.6-1.366-10.343-3.8-2.744-2.432-4.286-5.732-4.286-9.171v-24.514c0-3.44 1.542-6.739 4.286-9.171s6.464-3.799 10.343-3.799c3.879 0 7.602 1.367 10.345 3.799 2.742 2.433 4.284 5.732 4.284 9.171v24.514c0 3.44-1.542 6.739-4.284 9.171-2.744 2.434-6.465 3.8-10.345 3.8z"></path>
<path fill="#000" d="M628.263 354.699c-3.879 0-7.602-1.366-10.345-3.8s-4.284-5.734-4.284-9.175v-24.474c0-3.442 1.542-6.742 4.284-9.176 2.744-2.433 6.465-3.801 10.345-3.801s7.6 1.367 10.343 3.801c2.744 2.433 4.284 5.734 4.284 9.176v24.474c0 3.442-1.54 6.742-4.284 9.175s-6.464 3.8-10.343 3.8z"></path>
<path fill="#000" d="M677.654 371.212c-3.879 0-7.602-1.366-10.343-3.797-2.744-2.43-4.286-5.728-4.286-9.165v-24.451c0-3.438 1.542-6.736 4.286-9.167 2.742-2.43 6.464-3.796 10.343-3.796s7.6 1.366 10.343 3.796c2.744 2.432 4.286 5.729 4.286 9.167v24.463c-0.004 3.436-1.548 6.729-4.29 9.16-2.744 2.428-6.461 3.792-10.339 3.792z"></path>
<path fill="#000" d="M578.89 435.243c-3.879 0-7.6-1.366-10.343-3.796s-4.286-5.725-4.286-9.161v-24.513c0-3.438 1.542-6.734 4.286-9.163s6.464-3.794 10.343-3.794c3.879 0 7.602 1.364 10.343 3.794 2.744 2.43 4.286 5.725 4.286 9.163v24.448c0.010 1.706-0.362 3.397-1.092 4.978-0.732 1.58-1.808 3.015-3.168 4.226-1.358 1.21-2.974 2.17-4.754 2.824-1.78 0.656-3.688 0.994-5.615 0.994z"></path>
<path fill="#000" d="M628.263 451.736c-3.879 0-7.602-1.366-10.345-3.797s-4.284-5.729-4.284-9.167v-24.466c0-3.44 1.542-6.738 4.284-9.17 2.744-2.43 6.465-3.796 10.345-3.796s7.6 1.366 10.343 3.796c2.744 2.432 4.284 5.729 4.284 9.17v24.466c0 3.438-1.54 6.736-4.284 9.167s-6.464 3.797-10.343 3.797z"></path>
<path fill="#000" d="M677.654 468.188c-3.879 0-7.602-1.364-10.343-3.794-2.744-2.43-4.286-5.725-4.286-9.161v-24.437c0-3.436 1.542-6.732 4.286-9.161 2.742-2.43 6.464-3.794 10.343-3.794s7.6 1.364 10.343 3.794c2.744 2.43 4.286 5.725 4.286 9.161v24.448c-0.004 3.434-1.548 6.728-4.29 9.153-2.744 2.428-6.461 3.79-10.339 3.79z"></path>
<path fill="#000" d="M578.89 532.277c-3.879 0-7.6-1.366-10.343-3.796s-4.286-5.728-4.286-9.163v-24.459c0-3.436 1.542-6.734 4.286-9.163s6.464-3.796 10.343-3.796c3.879 0 7.602 1.366 10.345 3.796 2.742 2.43 4.284 5.728 4.284 9.163v24.459c0 3.436-1.542 6.734-4.284 9.163-2.744 2.43-6.465 3.796-10.345 3.796z"></path>
<path fill="#000" d="M628.263 548.769c-3.879 0-7.602-1.366-10.345-3.796-2.742-2.432-4.284-5.729-4.284-9.167v-24.46c0-3.438 1.542-6.736 4.284-9.165 2.744-2.432 6.465-3.797 10.345-3.797s7.6 1.366 10.343 3.797c2.744 2.43 4.284 5.728 4.284 9.165v24.46c0 3.438-1.54 6.736-4.284 9.167-2.744 2.43-6.464 3.796-10.343 3.796z"></path>
<path fill="#000" d="M677.654 565.303c-3.879 0-7.602-1.366-10.343-3.8-2.744-2.432-4.286-5.732-4.286-9.171v-24.474c0-3.44 1.542-6.739 4.286-9.171 2.742-2.434 6.464-3.8 10.343-3.8s7.6 1.366 10.343 3.8c2.744 2.432 4.286 5.732 4.286 9.171v24.474c0 3.44-1.542 6.739-4.286 9.171-2.744 2.434-6.464 3.8-10.343 3.8z"></path>
<path fill="#000" d="M578.89 629.381c-3.879 0-7.6-1.366-10.343-3.797s-4.286-5.729-4.286-9.17v-24.405c0-3.44 1.542-6.738 4.286-9.17s6.464-3.797 10.343-3.797c3.879 0 7.602 1.366 10.345 3.797 2.742 2.432 4.284 5.729 4.284 9.17v24.469c-0.020 3.428-1.57 6.71-4.31 9.128-2.742 2.418-6.452 3.776-10.32 3.776z"></path>
<path fill="#000" d="M628.263 645.844c-3.879 0-7.602-1.364-10.345-3.794s-4.284-5.725-4.284-9.161v-24.446c0-3.436 1.542-6.732 4.284-9.161 2.744-2.43 6.465-3.794 10.345-3.794s7.6 1.364 10.343 3.794c2.744 2.43 4.284 5.725 4.284 9.161v24.446c0 3.436-1.54 6.732-4.284 9.161s-6.464 3.794-10.343 3.794z"></path>
<path fill="#000" d="M677.654 662.308c-3.879 0-7.602-1.368-10.343-3.8-2.744-2.432-4.286-5.732-4.286-9.171v-24.474c0-3.442 1.542-6.739 4.286-9.174 2.742-2.432 6.464-3.797 10.343-3.797s7.6 1.366 10.343 3.797c2.744 2.434 4.286 5.732 4.286 9.174v24.474c0 3.44-1.542 6.739-4.286 9.171s-6.464 3.8-10.343 3.8z"></path>
<path fill="#000" d="M578.89 726.397c-3.879 0-7.6-1.366-10.343-3.797-2.744-2.43-4.286-5.728-4.286-9.165v-24.463c0-3.438 1.542-6.736 4.286-9.165 2.744-2.432 6.464-3.797 10.343-3.797s7.602 1.366 10.345 3.797c2.742 2.43 4.284 5.728 4.284 9.165v24.463c0 3.438-1.542 6.736-4.284 9.165-2.744 2.432-6.465 3.797-10.345 3.797z"></path>
<path fill="#000" d="M628.263 742.87c-3.879 0-7.602-1.366-10.345-3.8-2.742-2.432-4.284-5.732-4.284-9.171v-24.474c0-3.44 1.542-6.739 4.284-9.171 2.744-2.434 6.465-3.8 10.345-3.8s7.6 1.366 10.343 3.8c2.744 2.432 4.284 5.732 4.284 9.171v24.474c0 3.44-1.54 6.739-4.284 9.171-2.744 2.434-6.464 3.8-10.343 3.8z"></path>
<path fill="#000" d="M677.654 759.383c-3.879 0-7.602-1.366-10.343-3.797-2.744-2.434-4.286-5.732-4.286-9.171v-24.47c0-3.44 1.542-6.738 4.286-9.17 2.742-2.432 6.464-3.797 10.343-3.797s7.6 1.366 10.343 3.797c2.744 2.432 4.286 5.729 4.286 9.17v24.47c0 3.44-1.542 6.738-4.286 9.171s-6.464 3.797-10.343 3.797z"></path>
<path fill="#000" d="M578.89 823.402c-3.879 0-7.6-1.368-10.343-3.8s-4.286-5.729-4.286-9.17v-24.47c0-3.44 1.542-6.738 4.286-9.17s6.464-3.8 10.343-3.8c3.879 0 7.602 1.368 10.345 3.8 2.742 2.432 4.284 5.729 4.284 9.17v24.47c0 3.44-1.542 6.738-4.284 9.17-2.744 2.432-6.465 3.8-10.345 3.8z"></path>
<path fill="#000" d="M628.263 839.991c-3.879 0-7.602-1.366-10.345-3.802-2.742-2.434-4.284-5.736-4.284-9.178v-24.495c0-3.444 1.542-6.746 4.284-9.179 2.744-2.434 6.465-3.802 10.345-3.802s7.6 1.368 10.343 3.802c2.744 2.434 4.284 5.736 4.284 9.179v24.495c0 3.442-1.54 6.743-4.284 9.178-2.744 2.436-6.464 3.802-10.343 3.802z"></path>
<path fill="#000" d="M677.654 856.446c-3.879 0-7.602-1.366-10.343-3.797-2.744-2.432-4.286-5.729-4.286-9.167v-24.466c0-3.438 1.542-6.738 4.286-9.167 2.742-2.432 6.464-3.797 10.343-3.797s7.6 1.366 10.343 3.797c2.744 2.43 4.286 5.729 4.286 9.167v24.466c0 3.438-1.542 6.736-4.286 9.167s-6.464 3.797-10.343 3.797z"></path>
<path fill="#000" d="M862.702 516.321c-3.882 0-7.602-1.368-10.345-3.8s-4.286-5.729-4.286-9.17v-13.113c0-3.44 1.542-6.738 4.286-9.17s6.464-3.8 10.345-3.8c3.879 0 7.6 1.368 10.343 3.8s4.286 5.729 4.286 9.17v13.113c0 3.44-1.542 6.738-4.286 9.17s-6.464 3.8-10.343 3.8z"></path>
<path fill="#000" d="M911.955 543.664c-3.879 0-7.6-1.368-10.343-3.8s-4.286-5.729-4.286-9.17v-13.113c0-3.44 1.542-6.738 4.286-9.17 2.744-2.434 6.464-3.8 10.343-3.8s7.602 1.366 10.343 3.8c2.744 2.432 4.286 5.729 4.286 9.17v13.113c0 3.44-1.542 6.738-4.286 9.17-2.742 2.432-6.464 3.8-10.343 3.8z"></path>
<path fill="#000" d="M862.702 580.271c-3.882 0-7.602-1.366-10.345-3.797-2.744-2.434-4.286-5.732-4.286-9.171v-13.102c0-3.44 1.542-6.738 4.286-9.171s6.464-3.797 10.345-3.797c3.879 0 7.6 1.366 10.343 3.797 2.744 2.434 4.286 5.732 4.286 9.171v13.113c-0.004 3.438-1.548 6.734-4.29 9.163-2.744 2.43-6.464 3.794-10.339 3.794z"></path>
<path fill="#000" d="M911.955 607.654c-3.879 0-7.6-1.368-10.343-3.804-2.744-2.434-4.286-5.736-4.286-9.178v-13.059c0-3.444 1.542-6.746 4.286-9.179s6.464-3.802 10.343-3.802c3.879 0 7.602 1.368 10.343 3.802 2.744 2.434 4.286 5.736 4.286 9.179v13.123c-0.020 3.432-1.57 6.718-4.31 9.138-2.742 2.42-6.452 3.779-10.32 3.779z"></path>
<path fill="#000" d="M862.702 644.095c-3.882 0-7.602-1.366-10.345-3.797-2.744-2.43-4.286-5.729-4.286-9.167v-13.109c0-3.438 1.542-6.736 4.286-9.167s6.464-3.797 10.345-3.797c3.879 0 7.6 1.366 10.343 3.797s4.286 5.729 4.286 9.167v13.109c0 3.438-1.542 6.738-4.286 9.167-2.744 2.432-6.464 3.797-10.343 3.797z"></path>
<path fill="#000" d="M911.955 671.566c-3.879 0-7.6-1.368-10.343-3.804-2.744-2.434-4.286-5.736-4.286-9.179v-13.125c0-3.442 1.542-6.746 4.286-9.179s6.464-3.802 10.343-3.802c3.879 0 7.602 1.368 10.343 3.802 2.744 2.434 4.286 5.738 4.286 9.179v13.125c0 3.444-1.542 6.746-4.286 9.179-2.742 2.436-6.464 3.804-10.343 3.804z"></path>
<path fill="#000" d="M862.702 708.155c-3.882 0-7.602-1.368-10.345-3.802s-4.286-5.736-4.286-9.178v-13.123c0-3.442 1.542-6.743 4.286-9.178s6.464-3.8 10.345-3.8c3.879 0 7.6 1.366 10.343 3.8s4.286 5.736 4.286 9.178v13.123c0 3.442-1.542 6.743-4.286 9.178s-6.464 3.802-10.343 3.802z"></path>
<path fill="#000" d="M911.955 735.496c-3.879 0-7.6-1.366-10.343-3.797-2.744-2.434-4.286-5.734-4.286-9.174v-13.115c0-3.442 1.542-6.739 4.286-9.174 2.744-2.432 6.464-3.8 10.343-3.8s7.602 1.368 10.343 3.8c2.744 2.434 4.286 5.732 4.286 9.174v13.115c0 3.44-1.542 6.739-4.286 9.174-2.742 2.432-6.464 3.797-10.343 3.797z"></path>
<path fill="#000" d="M862.702 771.998c-3.882 0-7.602-1.366-10.345-3.8s-4.286-5.734-4.286-9.175v-13.069c0-3.44 1.542-6.742 4.286-9.175s6.464-3.8 10.345-3.8c3.879 0 7.6 1.366 10.343 3.8s4.286 5.736 4.286 9.175v13.069c0 3.442-1.542 6.742-4.286 9.175s-6.464 3.8-10.343 3.8z"></path>
<path fill="#000" d="M911.955 799.39c-3.879 0-7.6-1.366-10.343-3.796s-4.286-5.725-4.286-9.161v-13.099c0-3.436 1.542-6.732 4.286-9.161s6.464-3.794 10.343-3.794c3.879 0 7.602 1.364 10.343 3.794 2.744 2.43 4.286 5.725 4.286 9.161v13.099c0 3.436-1.542 6.732-4.286 9.161-2.742 2.43-6.464 3.796-10.343 3.796z"></path>
<path fill="#000" d="M862.702 835.997c-3.882 0-7.602-1.368-10.345-3.802-2.744-2.436-4.286-5.739-4.286-9.184v-13.127c0-3.444 1.542-6.747 4.286-9.184 2.744-2.434 6.464-3.802 10.345-3.802 3.879 0 7.6 1.368 10.343 3.802 2.744 2.436 4.286 5.739 4.286 9.184v13.127c0 3.444-1.542 6.747-4.286 9.184-2.744 2.434-6.464 3.802-10.343 3.802z"></path>
<path fill="#000" d="M911.955 863.36c-3.879 0-7.6-1.366-10.343-3.8-2.744-2.432-4.286-5.732-4.286-9.174v-13.115c0-3.44 1.542-6.739 4.286-9.171 2.744-2.434 6.464-3.8 10.343-3.8s7.602 1.366 10.343 3.8c2.744 2.432 4.286 5.732 4.286 9.171v13.115c0 3.442-1.542 6.742-4.286 9.174-2.742 2.434-6.464 3.8-10.343 3.8z"></path>
<path fill="#000" d="M1009.371 909.861h-994.742c-3.879 0-7.6-1.356-10.344-3.768-2.744-2.414-4.285-5.686-4.285-9.097s1.541-6.686 4.285-9.097c2.744-2.414 6.464-3.768 10.344-3.768h994.742c3.879 0 7.602 1.354 10.343 3.768 2.744 2.412 4.286 5.686 4.286 9.097s-1.542 6.684-4.286 9.097c-2.742 2.412-6.464 3.768-10.343 3.768z"></path>
</svg>
