<!-- Generated by IcoMoon.io -->
<svg version="1.1" xmlns="http://www.w3.org/2000/svg" width="1024" height="1024" viewBox="0 0 1024 1024">
<title></title>
<g id="icomoon-ignore">
</g>
<path fill="#000" d="M1022.697 522.556v-0.116l-118.185-286.92v-75.092l113.099-117.996c6.679-7.508 8.272-18.265 4.062-27.39-4.078-9.203-13.226-15.101-23.297-15.031h-972.765c-10.070-0.070-19.218 5.828-23.296 15.031-4.266 9.39-2.484 20.421 4.523 27.992l112.637 117.395v75.092l-118.113 286.881v0.141c-0.727 1.859-1.117 3.834-1.148 5.835 0 0.234-0.133 0.421-0.133 0.664v68.263c0 18.851 15.281 34.131 34.132 34.131h955.632c18.851 0 34.133-15.28 34.133-34.131v-68.247c0-0.234-0.118-0.446-0.134-0.664-0.039-2-0.421-3.978-1.147-5.837zM324.266 546.126v51.195h-136.526v-51.195h136.526zM358.398 546.126h136.526v51.195h-136.526v-51.195zM290.135 221.872v-51.202h119.466v51.202h-119.466zM153.608 221.872v-51.202h102.396v51.202h-102.396zM379.217 34.143l25.602 102.395h-123.216l-76.802-102.395h174.415zM819.187 34.143l-76.801 102.395h-123.2l25.602-102.395h174.399zM870.381 221.872h-102.394v-51.202h102.394v51.202zM614.389 221.872v-51.202h119.466v51.202h-119.466zM584.015 136.538h-144.042l-25.602-102.395h195.245l-25.602 102.395zM443.732 170.67h136.528v51.202h-136.528v-51.202zM465.066 409.592h93.857l6.030 34.133h-105.862l5.976-34.133zM474.105 358.399h75.78l3.015 17.062h-81.864l3.070-17.062zM483.136 307.197h57.716l3.008 17.069h-63.733l3.008-17.069zM531.806 256.002l3.024 17.062h-45.67l3.022-17.062h39.624zM453.014 477.862h117.964l6.007 34.133h-129.979l6.007-34.133zM529.064 546.126h136.528v51.195h-136.528v-51.195zM699.722 546.126h136.528v51.195h-136.528v-51.195zM611.641 511.995l-45.172-255.993h309.545l105.419 255.993h-369.793zM880.163 136.538h-95.106l76.794-102.395h116.496l-98.185 102.395zM162.139 34.143l76.794 102.395h-95.106l-98.2-102.395h116.512zM147.975 256.002h309.546l-45.172 255.993h-369.793l105.418-255.993zM34.143 546.126h119.465v51.195h-119.465v-51.195zM870.381 597.321v-51.195h119.466v51.195h-119.466z"></path>
<path fill="#000" d="M1022.889 745.6c-0.385-1.11-0.892-2.173-1.516-3.172-0.243-0.578-0.517-1.149-0.821-1.704l-40.96-54.616c-9.678-12.882-24.842-20.475-40.96-20.514h-853.3c-16.109 0.023-31.281 7.609-40.96 20.485l-40.96 54.607c-0.305 0.555-0.578 1.126-0.82 1.711-0.625 0.992-1.133 2.062-1.516 3.172-0.359 1.108-0.586 2.257-0.687 3.413-0.172 0.642-0.305 1.29-0.391 1.946v255.991c0 9.43 7.64 17.071 17.070 17.071h989.827c9.43 0 17.071-7.641 17.071-17.071v-255.991c-0.086-0.649-0.221-1.297-0.391-1.93-0.102-1.149-0.328-2.289-0.687-3.397zM34.131 767.996h273.061v68.263h-273.061v-68.263zM368.932 699.724h286.1l17.062 34.14h-320.225l17.062-34.14zM341.326 767.996h341.317v68.263h-341.317v-68.263zM716.773 767.996h273.062v68.263h-273.062v-68.263zM938.633 699.724c5.368 0.025 10.422 2.546 13.656 6.829l20.478 27.311h-262.508l-17.069-34.14h245.444zM71.677 706.553c3.234-4.283 8.289-6.804 13.656-6.829h245.446l-17.071 34.14h-262.507l20.476-27.311zM34.131 870.392h273.061v119.463h-273.061v-119.463zM341.326 870.392h341.317v119.463h-341.317v-119.463zM716.773 989.856v-119.463h273.062v119.463h-273.062z"></path>
<path fill="#000" d="M204.798 307.193c0 9.43-7.641 17.071-17.063 17.071-9.43 0-17.070-7.641-17.070-17.071 0-9.421 7.641-17.062 17.070-17.062 9.422 0 17.063 7.641 17.063 17.062z"></path>
<path fill="#000" d="M273.070 307.193c0 9.43-7.648 17.071-17.069 17.071-9.423 0-17.071-7.641-17.071-17.071 0-9.421 7.648-17.062 17.071-17.062 9.421 0 17.069 7.641 17.069 17.062z"></path>
<path fill="#000" d="M341.33 307.193c0 9.43-7.641 17.071-17.071 17.071-9.421 0-17.062-7.641-17.062-17.071 0-9.421 7.641-17.062 17.062-17.062 9.43 0 17.071 7.641 17.071 17.062z"></path>
<path fill="#000" d="M409.573 307.193c0 9.43-7.641 17.071-17.071 17.071-9.421 0-17.062-7.641-17.062-17.071 0-9.421 7.641-17.062 17.062-17.062 9.43 0 17.071 7.641 17.071 17.062z"></path>
<path fill="#000" d="M170.664 358.405c0 9.421-7.641 17.062-17.063 17.062-9.43 0-17.070-7.641-17.070-17.062 0-9.43 7.641-17.071 17.070-17.071 9.422 0 17.063 7.641 17.063 17.071z"></path>
<path fill="#000" d="M238.908 358.405c0 9.421-7.641 17.062-17.063 17.062-9.43 0-17.070-7.641-17.070-17.062 0-9.43 7.641-17.071 17.070-17.071 9.421 0 17.063 7.641 17.063 17.071z"></path>
<path fill="#000" d="M307.197 358.405c0 9.421-7.641 17.062-17.071 17.062-9.421 0-17.062-7.641-17.062-17.062 0-9.43 7.641-17.071 17.062-17.071 9.43 0 17.071 7.641 17.071 17.071z"></path>
<path fill="#000" d="M375.463 358.405c0 9.421-7.641 17.062-17.071 17.062-9.421 0-17.062-7.641-17.062-17.062 0-9.43 7.641-17.071 17.062-17.071 9.43 0 17.071 7.641 17.071 17.071z"></path>
<path fill="#000" d="M204.798 409.603c0 9.43-7.641 17.071-17.063 17.071-9.43 0-17.070-7.641-17.070-17.071 0-9.423 7.641-17.062 17.070-17.062 9.422 0 17.063 7.639 17.063 17.062z"></path>
<path fill="#000" d="M136.531 409.603c0 9.43-7.641 17.071-17.063 17.071-9.43 0-17.070-7.641-17.070-17.071 0-9.423 7.641-17.062 17.070-17.062 9.422 0 17.063 7.639 17.063 17.062z"></path>
<path fill="#000" d="M102.399 460.798c0 9.423-7.641 17.071-17.063 17.071-9.43 0-17.070-7.648-17.070-17.071 0-9.421 7.641-17.069 17.070-17.069 9.422 0 17.063 7.648 17.063 17.069z"></path>
<path fill="#000" d="M273.070 409.603c0 9.43-7.648 17.071-17.069 17.071-9.423 0-17.071-7.641-17.071-17.071 0-9.423 7.648-17.062 17.071-17.062 9.421 0 17.069 7.639 17.069 17.062z"></path>
<path fill="#000" d="M341.33 409.603c0 9.43-7.641 17.071-17.071 17.071-9.421 0-17.062-7.641-17.062-17.071 0-9.423 7.641-17.062 17.062-17.062 9.43 0 17.071 7.639 17.071 17.062z"></path>
<path fill="#000" d="M409.573 409.603c0 9.43-7.641 17.071-17.071 17.071-9.421 0-17.062-7.641-17.062-17.071 0-9.423 7.641-17.062 17.062-17.062 9.43 0 17.071 7.639 17.071 17.062z"></path>
<path fill="#000" d="M170.664 460.793c0 9.423-7.641 17.071-17.063 17.071-9.43 0-17.070-7.648-17.070-17.071 0-9.421 7.641-17.071 17.070-17.071 9.422 0 17.063 7.65 17.063 17.071z"></path>
<path fill="#000" d="M238.908 460.793c0 9.423-7.641 17.071-17.063 17.071-9.43 0-17.070-7.648-17.070-17.071 0-9.421 7.641-17.071 17.070-17.071 9.421 0 17.063 7.65 17.063 17.071z"></path>
<path fill="#000" d="M307.197 460.793c0 9.423-7.641 17.071-17.071 17.071-9.421 0-17.062-7.648-17.062-17.071 0-9.421 7.641-17.071 17.062-17.071 9.43 0 17.071 7.65 17.071 17.071z"></path>
<path fill="#000" d="M375.463 460.793c0 9.423-7.641 17.071-17.071 17.071-9.421 0-17.062-7.648-17.062-17.071 0-9.421 7.641-17.071 17.062-17.071 9.43 0 17.071 7.65 17.071 17.071z"></path>
<path fill="#000" d="M853.303 307.193c0 9.43-7.641 17.071-17.071 17.071-9.421 0-17.062-7.641-17.062-17.071 0-9.421 7.641-17.062 17.062-17.062 9.43 0 17.071 7.641 17.071 17.062z"></path>
<path fill="#000" d="M785.044 307.193c0 9.43-7.648 17.071-17.069 17.071-9.423 0-17.071-7.641-17.071-17.071 0-9.421 7.648-17.062 17.071-17.062 9.421 0 17.069 7.641 17.069 17.062z"></path>
<path fill="#000" d="M716.77 307.193c0 9.43-7.641 17.071-17.062 17.071-9.43 0-17.071-7.641-17.071-17.071 0-9.421 7.641-17.062 17.071-17.062 9.421 0 17.062 7.641 17.062 17.062z"></path>
<path fill="#000" d="M648.505 307.193c0 9.43-7.641 17.071-17.062 17.071-9.43 0-17.071-7.641-17.071-17.071 0-9.421 7.641-17.062 17.071-17.062 9.421 0 17.062 7.641 17.062 17.062z"></path>
<path fill="#000" d="M887.436 358.405c0 9.421-7.641 17.062-17.071 17.062-9.421 0-17.062-7.641-17.062-17.062 0-9.43 7.641-17.071 17.062-17.071 9.43 0 17.071 7.641 17.071 17.071z"></path>
<path fill="#000" d="M819.169 358.405c0 9.421-7.641 17.062-17.071 17.062-9.421 0-17.062-7.641-17.062-17.062 0-9.43 7.641-17.071 17.062-17.071 9.43 0 17.071 7.641 17.071 17.071z"></path>
<path fill="#000" d="M750.926 358.405c0 9.421-7.641 17.062-17.062 17.062-9.43 0-17.071-7.641-17.071-17.062 0-9.43 7.641-17.071 17.071-17.071 9.421 0 17.062 7.641 17.062 17.071z"></path>
<path fill="#000" d="M682.637 358.405c0 9.421-7.641 17.062-17.062 17.062-9.43 0-17.071-7.641-17.071-17.062 0-9.43 7.641-17.071 17.071-17.071 9.421 0 17.062 7.641 17.062 17.071z"></path>
<path fill="#000" d="M853.303 409.603c0 9.43-7.641 17.071-17.071 17.071-9.421 0-17.062-7.641-17.062-17.071 0-9.423 7.641-17.062 17.062-17.062 9.43 0 17.071 7.639 17.071 17.062z"></path>
<path fill="#000" d="M921.591 409.603c0 9.43-7.641 17.071-17.071 17.071-9.421 0-17.062-7.641-17.062-17.071 0-9.423 7.641-17.062 17.062-17.062 9.43 0 17.071 7.639 17.071 17.062z"></path>
<path fill="#000" d="M955.702 460.793c0 9.423-7.641 17.071-17.071 17.071-9.421 0-17.062-7.648-17.062-17.071 0-9.421 7.641-17.071 17.062-17.071 9.43 0 17.071 7.65 17.071 17.071z"></path>
<path fill="#000" d="M785.044 409.603c0 9.43-7.648 17.071-17.069 17.071-9.423 0-17.071-7.641-17.071-17.071 0-9.423 7.648-17.062 17.071-17.062 9.421 0 17.069 7.639 17.069 17.062z"></path>
<path fill="#000" d="M716.77 409.603c0 9.43-7.641 17.071-17.062 17.071-9.43 0-17.071-7.641-17.071-17.071 0-9.423 7.641-17.062 17.071-17.062 9.421 0 17.062 7.639 17.062 17.062z"></path>
<path fill="#000" d="M648.505 409.603c0 9.43-7.641 17.071-17.062 17.071-9.43 0-17.071-7.641-17.071-17.071 0-9.423 7.641-17.062 17.071-17.062 9.421 0 17.062 7.639 17.062 17.062z"></path>
<path fill="#000" d="M887.436 460.793c0 9.423-7.641 17.071-17.071 17.071-9.421 0-17.062-7.648-17.062-17.071 0-9.421 7.641-17.071 17.062-17.071 9.43 0 17.071 7.65 17.071 17.071z"></path>
<path fill="#000" d="M819.169 460.793c0 9.423-7.641 17.071-17.071 17.071-9.421 0-17.062-7.648-17.062-17.071 0-9.421 7.641-17.071 17.062-17.071 9.43 0 17.071 7.65 17.071 17.071z"></path>
<path fill="#000" d="M750.926 460.793c0 9.423-7.641 17.071-17.062 17.071-9.43 0-17.071-7.648-17.071-17.071 0-9.421 7.641-17.071 17.071-17.071 9.421 0 17.062 7.65 17.062 17.071z"></path>
<path fill="#000" d="M682.637 460.793c0 9.423-7.641 17.071-17.062 17.071-9.43 0-17.071-7.648-17.071-17.071 0-9.421 7.641-17.071 17.071-17.071 9.421 0 17.062 7.65 17.062 17.071z"></path>
</svg>
