<!-- Generated by IcoMoon.io -->
<svg version="1.1" xmlns="http://www.w3.org/2000/svg" width="1024" height="1024" viewBox="0 0 1024 1024">
<title></title>
<g id="icomoon-ignore">
</g>
<path fill="#000" d="M1015.571 292.485l-494.934-290.135c-5.207-3.038-11.606-3.14-16.879-0.222l-494.934 273.069c-5.444 2.985-8.824 8.719-8.824 14.931v716.8c0 9.438 7.646 17.066 17.066 17.066h85.334c9.42 0 17.066-7.628 17.066-17.066v-597.332h785.066v597.334c0 9.438 7.628 17.066 17.066 17.066h85.334c9.438 0 17.066-7.628 17.066-17.066v-699.734c0.002-6.059-3.205-11.658-8.427-14.711zM989.866 989.862h-51.2v-597.334c0-9.419-7.628-17.066-17.066-17.066h-819.2c-9.42 0-17.066 7.647-17.066 17.066v597.334h-51.2v-689.664l477.609-263.509 478.123 280.286v672.888z"></path>
<path fill="#000" d="M853.336 785.062h-204.8c-9.438 0-17.066 7.63-17.066 17.066v204.8c0 9.438 7.628 17.068 17.066 17.068h204.8c9.438 0 17.066-7.63 17.066-17.068v-204.8c0-9.436-7.628-17.066-17.066-17.066zM836.268 989.862h-170.666v-170.666h170.666v170.666z"></path>
<path fill="#000" d="M768 802.128v51.2h-34.134v-51.2h-34.134v68.266c0 9.438 7.63 17.066 17.066 17.066h68.266c9.438 0 17.066-7.628 17.066-17.066v-68.266h-34.13z"></path>
<path fill="#000" d="M648.534 785.062h-204.8c-9.419 0-17.066 7.63-17.066 17.066v204.8c0 9.438 7.647 17.068 17.066 17.068h204.8c9.438 0 17.066-7.63 17.066-17.068v-204.8c0-9.436-7.628-17.066-17.066-17.066zM631.466 989.862h-170.666v-170.666h170.666v170.666z"></path>
<path fill="#000" d="M563.198 802.128v51.2h-34.134v-51.2h-34.132v68.266c0 9.438 7.645 17.066 17.066 17.066h68.266c9.436 0 17.066-7.628 17.066-17.066v-68.266h-34.132z"></path>
<path fill="#000" d="M853.336 580.262h-204.8c-9.438 0-17.066 7.628-17.066 17.066v204.8c0 9.438 7.628 17.066 17.066 17.066h204.8c9.438 0 17.066-7.628 17.066-17.066v-204.8c0-9.438-7.628-17.066-17.066-17.066zM836.268 785.062h-170.666v-170.666h170.666v170.666z"></path>
<path fill="#000" d="M768 597.328v51.2h-34.134v-51.2h-34.134v68.266c0 9.438 7.63 17.066 17.066 17.066h68.266c9.438 0 17.066-7.628 17.066-17.066v-68.266h-34.13z"></path>
<path fill="#000" d="M921.602 511.996h-819.201v34.132h819.201v-34.132z"></path>
<path fill="#000" d="M921.602 443.728h-819.201v34.134h819.201v-34.134z"></path>
<path fill="#000" d="M597.334 238.928h-170.666c-9.421 0-17.066 7.647-17.066 17.066v68.266c0 9.421 7.645 17.066 17.066 17.066h170.666c9.438 0 17.066-7.645 17.066-17.066v-68.266c0-9.419-7.628-17.066-17.066-17.066zM580.266 307.196h-136.534v-34.134h136.534v34.134z"></path>
</svg>
