<!-- Generated by IcoMoon.io -->
<svg version="1.1" xmlns="http://www.w3.org/2000/svg" width="4195" height="1024" viewBox="0 0 4195 1024">
<title></title>
<g id="icomoon-ignore">
</g>
<path d="M3350.479 0h-238.58l-1017.757 1014.647h238.58l1017.757-1014.647z"></path>
<path d="M2078.066 0h-238.58l-1017.754 1014.647h238.581l1017.752-1014.647z"></path>
<path d="M2714.291 0h-238.629l-1017.757 1014.647h238.641l1017.745-1014.647z"></path>
<path d="M1441.891 0h-238.586l-1017.749 1014.647h238.581l1017.754-1014.647z"></path>
<path d="M805.708 0h-238.58l-567.128 565.4v237.853l805.708-803.253z"></path>
<path d="M4002.73 1014.648h191.969v-191.437l-191.969 191.437z"></path>
<path d="M169.474 0h-169.474v168.959l169.474-168.959z"></path>
<path d="M4194.699 426.823v-237.853l-828.194 825.676h238.58l589.614-587.823z"></path>
<path d="M3986.654 0h-238.58l-1017.757 1014.647h238.58l1017.757-1014.647z"></path>
</svg>
