<svg width="16" height="16" viewBox="0 0 16 16" fill="none" xmlns="http://www.w3.org/2000/svg">
<circle cx="8" cy="8" r="7.5" stroke="#231F20"/>
<path d="M7.27026 9.87066H8.47161C8.47161 9.64919 8.47882 9.47311 8.49326 9.34241C8.50769 9.20808 8.5636 9.05741 8.66101 8.8904C8.76203 8.71976 8.90273 8.56365 9.08311 8.42206C9.2671 8.27683 9.44748 8.10983 9.62426 7.92104C9.85154 7.68142 10.0373 7.41457 10.1816 7.12049C10.3296 6.82641 10.4035 6.50511 10.4035 6.15657C10.4035 5.8988 10.3602 5.6501 10.2736 5.41048C10.1907 5.16723 10.0662 4.95121 9.90024 4.76242C9.67296 4.49376 9.38796 4.29952 9.04523 4.17971C8.70611 4.0599 8.34534 4 7.96293 4C7.69596 4 7.42899 4.04175 7.16203 4.12526C6.89506 4.20513 6.65695 4.32857 6.44771 4.49558C6.20239 4.68074 6.00757 4.92398 5.86327 5.22532C5.71896 5.52303 5.63238 5.84071 5.60352 6.17835H6.79405C6.79044 6.01498 6.81389 5.86431 6.86439 5.72634C6.91851 5.58475 7.00149 5.46676 7.11332 5.37236C7.21795 5.27434 7.34782 5.20172 7.50295 5.15453C7.65808 5.10733 7.82403 5.08373 8.00081 5.08373C8.19202 5.08373 8.37601 5.11278 8.55278 5.17086C8.72956 5.22895 8.87567 5.33243 8.99111 5.48128C9.13181 5.65555 9.20216 5.88791 9.20216 6.17835C9.20216 6.36714 9.17691 6.54323 9.1264 6.7066C9.0795 6.86998 8.9839 7.03154 8.83959 7.19129C8.66642 7.37645 8.50047 7.52893 8.34173 7.64874C8.1866 7.76492 8.0423 7.88473 7.90881 8.00817C7.77894 8.12798 7.6653 8.28591 7.56789 8.48196C7.45244 8.6889 7.37308 8.90674 7.32978 9.13547C7.2901 9.36419 7.27026 9.60926 7.27026 9.87066ZM7.27567 12H8.47161V10.6821H7.27567V12Z" fill="#231F20"/>
</svg>
