<!-- Generated by IcoMoon.io -->
<svg version="1.1" xmlns="http://www.w3.org/2000/svg" width="1024" height="1024" viewBox="0 0 1024 1024">
<title></title>
<g id="icomoon-ignore">
</g>
<path fill="#000" d="M1001.095 981.249h-146.118v-207.244l6.899-1.629c42.009-10.179 79.553-42.751 108.576-94.053 33.485-59.037 51.953-136.804 51.953-219.050s-18.468-160.217-51.953-219.050c-35.719-63.11-84.223-97.718-136.786-97.718-38.762 0-75.901 18.933-106.951 54.763l-10.349 12.011-5.074-15.065c-9.334-27.483-20.701-52.93-33.485-75.935-43.634-76.342-102.489-118.279-165.806-118.279-63.32 0-122.172 41.937-165.401 118.279-12.987 22.801-24.15 48.248-33.485 75.528l-5.074 15.065-10.349-12.011c-31.255-35.423-68.189-54.355-106.952-54.355-52.563 0-101.269 34.608-136.988 97.514-33.486 59.037-51.954 136.804-51.954 219.052 0 82.245 18.468 160.215 51.954 219.050 29.224 51.302 66.769 83.875 108.575 94.053l6.9 1.629v207.446h-146.323c-11.771 0-21.309 9.566-21.309 21.374s9.538 21.377 21.309 21.377h978.189c11.771 0 21.311-9.569 21.311-21.377s-9.539-21.374-21.311-21.374zM190.739 531.34c-11.771 0-21.309 9.569-21.309 21.377v178.13l-12.988-6.31c-24.353-11.605-46.88-35.016-65.551-67.589-15.018-26.262-26.586-57.003-34.298-90.592-7.915-33.592-11.974-69.828-11.974-107.286 0-74.918 16.439-145.356 46.271-198.083 27.397-48.045 63.724-75.732 99.849-75.732 36.935 0 74.075 28.908 101.675 78.988l1.625 2.851-0.61 3.256c-7.102 37.865-10.554 77.36-10.554 117.464 0 72.272 11.771 142.709 33.69 203.58l1.217 3.664-1.622 3.461c-0.407 1.017-0.812 1.629-1.015 2.442-20.498 61.481-53.375 106.676-90.107 123.981l-12.989 6.105v-178.333c0-11.808-9.538-21.377-21.309-21.377zM490.69 981.249h-278.642v-207.446l6.899-1.629c25.775-6.31 49.723-20.969 71.437-43.363 16.641-17.101 31.457-38.68 44.244-63.72l7.507-14.859 8.524 14.25c36.124 60.666 81.991 98.124 132.726 108.508l7.305 1.424v206.837zM512.001 278.903c-11.771 0-21.311 9.566-21.311 21.374v56.393l-32.672-32.777c-4.060-4.071-9.337-6.31-15.019-6.31s-10.959 2.239-15.019 6.31c-8.319 8.347-8.319 21.986 0 30.131l62.71 62.905v314.12l-12.176-4.273c-35.312-12.215-68.189-43.77-94.977-90.999-37.544-66.164-58.245-154.312-58.245-248.366s20.701-182.204 58.245-248.367c35.515-61.888 80.976-96.293 128.464-96.293s92.947 34.405 128.464 96.7c37.544 66.163 58.245 154.312 58.245 248.365s-20.701 182.204-58.245 248.368c-26.79 47.229-59.667 78.784-94.979 90.999l-12.176 4.273v-195.231l93.76-94.053c4.060-4.071 6.292-9.364 6.292-15.064s-2.232-10.993-6.292-15.064c-4.057-4.073-9.334-6.312-15.016-6.312s-11.162 2.239-15.019 6.312l-63.725 63.515v-175.281c0-11.808-9.539-21.374-21.308-21.374zM812.358 981.249h-279.049v-207.039l7.307-1.427c50.736-10.381 96.804-48.044 132.929-108.71l8.522-14.25 7.509 14.859c12.379 24.633 26.993 45.807 43.024 62.703 22.121 23.208 46.678 38.273 72.859 44.787l6.899 1.629v207.446zM833.666 531.34c-11.769 0-21.308 9.569-21.308 21.377v178.13l-13.191-6.108c-37.747-18.118-71.031-64.535-91.325-127.44 0-0.203-0.203-0.407-0.203-0.61l-1.015-3.054 1.015-3.054c21.918-60.666 33.485-130.901 33.485-202.766 0-40.104-3.652-79.394-10.552-117.259l-0.812-3.868 2.232-3.259c0.405-0.61 0.812-1.22 1.217-2.034 13.799-24.226 29.63-43.363 46.676-56.392 17.454-12.825 35.517-19.747 53.78-19.747 36.124 0 72.451 27.687 99.849 75.934 29.833 52.727 46.271 122.962 46.271 198.083s-16.439 145.356-46.271 198.083c-18.468 32.572-41.197 55.983-65.552 67.589l-12.987 6.31v-178.13c0-12.215-9.539-21.784-21.311-21.784z"></path>
</svg>
