<!-- Generated by IcoMoon.io -->
<svg version="1.1" xmlns="http://www.w3.org/2000/svg" width="1024" height="1024" viewBox="0 0 1024 1024">
<title></title>
<g id="icomoon-ignore">
</g>
<path fill="#000" d="M1001.405 315.658c-21.719-35.164-130.38-200.044-258.181-200.044-125.688 0-232.86 159.479-257.024 198.194h-7.234v-66.064c0-18.219-14.815-33.032-33.032-33.032h-148.646c-18.217 0-33.032 14.813-33.032 33.032v33.032h-138.074c-12.817 0-24.593 7.53-29.993 19.192l-93.151 201.826c-2.015 4.36-3.039 9.017-3.039 13.84v260.624c0 27.318 22.231 49.549 49.548 49.549h103.969c14.253 47.682 58.483 82.579 110.74 82.579s96.487-34.898 110.742-82.579h125.358c14.252 47.682 58.483 82.579 110.739 82.579 42.082 0 78.864-22.675 99.097-56.369 20.232 33.694 57.014 56.369 99.097 56.369 52.257 0 96.487-34.898 110.742-82.579h70.937c18.217 0 33.032-14.815 33.032-33.032v-445.936c0-14.551-9.513-26.79-22.594-31.183zM743.224 148.647c94.11 0 182.305 113.663 217.453 165.162h-434.887c35.129-51.499 123.326-165.162 217.434-165.162zM148.645 792.777h-99.097c-9.117 0-16.516-7.399-16.516-16.517v-16.515h120.485c-3.138 10.469-4.872 21.553-4.872 33.032zM264.258 875.356c-45.535 0-82.58-37.046-82.58-82.579 0-45.535 37.045-82.582 82.58-82.582s82.582 37.046 82.582 82.582c0 45.533-37.046 82.579-82.582 82.579zM495.483 792.777h-115.612c0-11.479-1.735-22.563-4.872-33.032h125.358c-3.14 10.469-4.874 21.553-4.874 33.032zM611.096 875.356c-45.535 0-82.579-37.046-82.579-82.579 0-45.535 37.044-82.582 82.579-82.582s82.582 37.046 82.582 82.582c0 45.533-37.046 82.579-82.582 82.579zM809.289 875.356c-45.535 0-82.579-37.046-82.579-82.579 0-45.535 37.044-82.582 82.579-82.582s82.582 37.046 82.582 82.582c0 45.533-37.046 82.579-82.582 82.579zM990.967 792.777h-66.064c0-11.479-1.735-22.563-4.872-33.032h70.937v33.032zM990.967 726.71h-86.942c-20.924-29.909-55.56-49.547-94.736-49.547-42.082 0-78.864 22.675-99.097 56.369-20.232-33.694-57.014-56.369-99.097-56.369-39.176 0-73.81 19.638-94.736 49.547h-157.366c-20.924-29.909-55.56-49.547-94.736-49.547s-73.81 19.638-94.736 49.547h-136.489v-33.032h49.548v-33.032h-49.548v-145.011l93.151-201.826h204.139v330.322h660.644v82.579zM990.967 611.099h-66.064v-198.193h-33.032v198.193h-82.582v-198.193h-33.032v198.193h-82.579v-198.193h-33.032v198.193h-82.582v-198.193h-33.032v198.193h-82.582v-198.193h-33.032v198.193h-66.064v-297.29c0-18.219-14.815-33.032-33.032-33.032h-33.032v-33.032h148.646v99.097h545.030v264.258z"></path>
<path fill="#000" d="M264.258 346.841h-95.826c-12.817 0-24.576 7.53-29.993 19.192l-72.374 156.836v71.715c0 18.217 14.815 33.032 33.032 33.032h165.16c18.219 0 33.034-14.815 33.034-33.032v-214.71c0-18.217-14.815-33.032-33.034-33.032zM264.258 512.002h-33.032v33.032h33.032v49.549h-165.16v-49.549h99.097v-33.032h-90.723l60.961-132.129h95.826v132.129z"></path>
<path fill="#000" d="M264.258 743.227c-27.318 0-49.547 22.231-49.547 49.549s22.229 49.547 49.547 49.547c27.318 0 49.549-22.229 49.549-49.547s-22.231-49.549-49.549-49.549zM264.258 809.292c-9.116 0-16.515-7.397-16.515-16.515s7.399-16.517 16.515-16.517c9.118 0 16.517 7.399 16.517 16.517s-7.399 16.515-16.517 16.515z"></path>
<path fill="#000" d="M809.289 743.227c-27.316 0-49.547 22.231-49.547 49.549s22.231 49.547 49.547 49.547c27.318 0 49.549-22.229 49.549-49.547s-22.231-49.549-49.549-49.549zM809.289 809.292c-9.116 0-16.515-7.397-16.515-16.515s7.399-16.517 16.515-16.517c9.118 0 16.517 7.399 16.517 16.517s-7.399 16.515-16.517 16.515z"></path>
<path fill="#000" d="M611.096 743.227c-27.318 0-49.549 22.231-49.549 49.549s22.231 49.547 49.549 49.547c27.318 0 49.549-22.229 49.549-49.547s-22.231-49.549-49.549-49.549zM611.096 809.292c-9.118 0-16.517-7.397-16.517-16.515s7.399-16.517 16.517-16.517c9.118 0 16.515 7.399 16.515 16.517s-7.397 16.515-16.515 16.515z"></path>
<path fill="#000" d="M825.806 181.679h-33.032v33.033h33.032v-33.033z"></path>
<path fill="#000" d="M908.385 264.26h-33.032v33.032h33.032v-33.032z"></path>
<path fill="#000" d="M792.774 247.744h-33.032v33.032h33.032v-33.032z"></path>
<path fill="#000" d="M726.709 214.712h-33.032v33.032h33.032v-33.032z"></path>
<path fill="#000" d="M644.128 247.744h-33.032v33.032h33.032v-33.032z"></path>
</svg>
