<!-- Generated by IcoMoon.io -->
<svg version="1.1" xmlns="http://www.w3.org/2000/svg" width="1024" height="1024" viewBox="0 0 1024 1024">
<title></title>
<g id="icomoon-ignore">
</g>
<path fill="#000" d="M888.007 99.712c-25.397-23.397-128.184-97.988-357.358-98.988 0 0-270.165-16.198-401.75 104.587-73.191 73.191-98.988 180.578-101.787 313.56s-6.199 382.151 233.972 449.743h0.2l-0.2 103.186c0 0-1.6 41.795 25.997 50.196 33.196 10.398 52.793-21.399 84.589-55.591 17.398-18.799 41.395-46.397 59.593-67.392 164.383 13.796 290.564-17.8 304.965-22.397 33.194-10.802 220.973-34.797 251.366-283.966 31.597-257.168-15.194-419.547-99.587-492.938v0zM915.806 573.851c-25.797 207.974-177.98 221.172-205.977 230.171-11.995 3.799-122.983 31.397-262.366 22.397 0 0-103.988 125.383-136.383 157.978-10.599 10.603-22.197 9.599-21.997-11.396 0-13.802 0.8-171.381 0.8-171.381-0.2 0-0.2 0 0 0-203.576-56.39-191.577-268.567-189.377-379.551 2.2-110.986 23.197-201.975 85.189-263.167 111.386-100.987 340.759-85.989 340.759-85.989 193.778 0.8 286.566 59.193 308.16 78.79 71.395 61.192 107.789 207.574 81.193 422.147v0zM637.839 412.272c0.799 17.198-24.998 18.398-25.797 1.2-2.202-43.995-22.796-65.392-65.195-67.792-17.196-1-15.599-26.797 1.403-25.797 55.791 3 86.788 34.996 89.589 92.389zM678.436 434.87c1.997-84.789-50.994-151.181-151.584-158.58-16.998-1.2-15.198-26.997 1.802-25.797 115.985 8.399 177.775 88.189 175.579 184.977-0.2 17.198-26.201 16.398-25.797-0.6v0zM772.423 461.666c0.2 17.198-25.797 17.398-25.797 0.2-1.203-162.98-109.79-251.769-241.572-252.768-16.998-0.2-16.998-25.797 0-25.797 147.381 1 265.97 102.786 267.368 278.364v0zM749.825 657.84v0.399c-21.598 37.996-61.995 79.99-103.59 66.593l-0.399-0.599c-42.194-11.801-141.581-62.994-204.374-112.984-32.396-25.597-61.992-55.796-84.789-84.792-20.597-25.796-41.395-56.391-61.592-93.186-42.595-76.99-51.994-111.386-51.994-111.386-13.398-41.595 28.396-81.99 66.592-103.587h0.4c18.398-9.599 35.996-6.399 47.794 7.799 0 0 24.797 29.596 35.396 44.195 9.999 13.598 23.397 35.396 30.397 47.594 12.198 21.797 4.599 43.995-7.399 53.193l-23.997 19.198c-12.198 9.799-10.599 27.997-10.599 27.997s35.596 134.585 168.578 168.578c0 0 18.2 1.603 27.998-10.597l19.198-24c9.2-11.995 31.397-19.597 53.195-7.397 29.395 16.597 66.793 42.394 91.586 65.794 14.001 11.396 17.201 28.796 7.602 47.19z"></path>
</svg>
