<!-- Generated by IcoMoon.io -->
<svg version="1.1" xmlns="http://www.w3.org/2000/svg" width="1024" height="1024" viewBox="0 0 1024 1024">
<title></title>
<g id="icomoon-ignore">
</g>
<path fill="#000" d="M1003.707 229.968c-126.721-135.984-305.937-213.968-491.713-213.968s-365.007 77.984-491.711 213.968c-2.768 2.96-4.304 6.865-4.304 10.911l0.016 751.122c0 8.831 7.168 15.999 16 15.999h960c8.831 0 15.999-7.168 15.999-15.999l0.016-751.122c0-4.046-1.536-7.951-4.303-10.911zM953.642 224.88h-883.312c118.496-112.832 277.375-176.88 441.663-176.88s323.168 64.048 441.649 176.88zM175.994 384v-48.001c0-8.816 7.184-15.999 16-15.999h639.999c8.816 0 16.002 7.184 16.002 15.999v48.001h-672.001zM815.994 415.999v32.001h-608v-32.001h608zM575.993 783.999h-175.998v-175.998c0-8.834-7.168-16.002-16.002-16.002h-175.999v-48.001h608v432.001h-223.999v-176.001c0-8.831-7.168-15.999-16.002-15.999zM463.995 816.001h31.999v31.999h-31.999v-31.999zM271.995 816.001h31.999v31.999h-31.999v-31.999zM207.994 783.999v-159.999h32v47.998c0 8.834 7.168 16.002 15.999 16.002h64c8.834 0 16.002-7.168 16.002-16.002v-47.998h31.999v159.999h-160zM815.994 512h-608v-31.999h608v31.999zM271.995 624.001h31.999v31.999h-31.999v-31.999zM207.994 816.001h32v48.001c0 8.831 7.168 15.999 15.999 15.999h64c8.834 0 16.002-7.168 16.002-15.999v-48.001h31.999v159.999h-160v-159.999zM399.995 975.999v-159.999h31.999v48.001c0 8.831 7.168 15.999 15.999 15.999h64c8.834 0 16.002-7.168 16.002-15.999v-48.001h31.999v159.999h-159.999zM847.995 975.999v-560.001h15.999c8.831 0 15.999-7.168 15.999-15.999v-64c0-26.462-21.536-48.001-48.001-48.001h-639.999c-26.464 0-48 21.538-48 48.001v64c0 8.831 7.168 15.999 16 15.999h16v560.001h-128l-0.016-719.135h928.033v287.118h-80.018c-8.831 0-15.999 7.168-15.999 16.002v159.999c0 8.831 7.168 15.999 15.999 15.999h80.002v240.001l-128 0.016zM975.995 655.999v48.001h-64v-128h64.016v48.001h-32.001v31.999h31.985z"></path>
<path fill="#000" d="M352.001 160h319.998v32h-319.998v-32z"></path>
<path fill="#000" d="M352.001 96h319.998v32h-319.998v-32z"></path>
<path fill="#000" d="M240.001 911.999h95.999v32.001h-95.999v-32.001z"></path>
<path fill="#000" d="M240.001 719.999h95.999v32.001h-95.999v-32.001z"></path>
<path fill="#000" d="M432.001 911.999h95.999v32.001h-95.999v-32.001z"></path>
</svg>
