<!-- Generated by IcoMoon.io -->
<svg version="1.1" xmlns="http://www.w3.org/2000/svg" width="1024" height="1024" viewBox="0 0 1024 1024">
<title></title>
<g id="icomoon-ignore">
</g>
<path fill="#000" d="M1002.603 277.481c-11.776-42.045-46.477-75.157-90.535-86.395-79.855-20.419-400.068-20.419-400.068-20.419s-320.212 0-400.070 20.419c-44.057 11.239-78.756 44.35-90.533 86.395-21.397 76.208-21.397 235.209-21.397 235.209s0 159.003 21.397 235.21c11.777 42.044 46.475 73.775 90.533 85.013 79.858 20.42 400.070 20.42 400.070 20.42s320.213 0 400.068-20.42c44.057-11.239 78.759-42.969 90.535-85.013 21.397-76.207 21.397-235.21 21.397-235.21s0-159.001-21.397-235.209v0zM407.272 657.049v-288.721l267.633 144.365-267.633 144.356z"></path>
</svg>
